<svg xmlns="http://www.w3.org/2000/svg" xmlns:xlink="http://www.w3.org/1999/xlink" viewBox="0 0 1033.9731 1200"><defs><style>.cls-1{isolation:isolate;}.cls-2{fill:#00629b;}.cls-3{fill:#75787b;}.cls-4{opacity:0.5;mix-blend-mode:multiply;fill:url(#radial-gradient);}.cls-5{fill:url(#linear-gradient);}.cls-6{fill:url(#linear-gradient-2);}.cls-7{fill:url(#linear-gradient-3);}.cls-8{fill:url(#linear-gradient-4);}.cls-9{fill:#414042;}.cls-10{fill:#76bc21;}.cls-11{fill:url(#linear-gradient-5);}.cls-12{fill:url(#linear-gradient-6);}.cls-13{fill:url(#linear-gradient-7);}.cls-14{fill:url(#linear-gradient-8);}.cls-15{fill:url(#linear-gradient-9);}.cls-16{fill:none;}.cls-17{fill:url(#linear-gradient-10);}.cls-18{fill:url(#linear-gradient-11);}.cls-19{fill:url(#linear-gradient-12);}.cls-20{fill:url(#linear-gradient-13);}.cls-21{fill:url(#linear-gradient-14);}</style><radialGradient id="radial-gradient" cx="-4754.2079" cy="-1714.3586" r="66.9511" gradientTransform="translate(21587.9769 1222.0907) scale(4.3851 0.4909)" gradientUnits="userSpaceOnUse"><stop offset="0" stop-color="#181818"/><stop offset="0.1421" stop-color="#717171"/><stop offset="0.3061" stop-color="#9c9c9c" stop-opacity="0.6964"/><stop offset="0.5023" stop-color="#c7c7c7" stop-opacity="0.3949"/><stop offset="0.6888" stop-color="#e6e6e6" stop-opacity="0.1772"/><stop offset="0.8595" stop-color="#f9f9f9" stop-opacity="0.0456"/><stop offset="1" stop-color="#fff" stop-opacity="0"/></radialGradient><linearGradient id="linear-gradient" x1="565.3518" y1="174.8399" x2="895.7167" y2="174.8399" gradientUnits="userSpaceOnUse"><stop offset="0" stop-color="#76bc21"/><stop offset="0.0616" stop-color="#5eaa3a"/><stop offset="0.1636" stop-color="#3c905d"/><stop offset="0.2672" stop-color="#227c78"/><stop offset="0.3717" stop-color="#0f6d8c"/><stop offset="0.4777" stop-color="#046597"/><stop offset="0.5873" stop-color="#00629b"/><stop offset="1" stop-color="#00629b"/></linearGradient><linearGradient id="linear-gradient-2" x1="447.3823" y1="167.3582" x2="742.9547" y2="167.3582" gradientUnits="userSpaceOnUse"><stop offset="0.1701" stop-color="#00629b" stop-opacity="0"/><stop offset="0.185" stop-color="#00629b" stop-opacity="0.0599"/><stop offset="0.2584" stop-color="#00629b" stop-opacity="0.324"/><stop offset="0.3302" stop-color="#00629b" stop-opacity="0.5315"/><stop offset="0.3992" stop-color="#00629b" stop-opacity="0.6799"/><stop offset="0.4641" stop-color="#00629b" stop-opacity="0.7694"/><stop offset="0.5206" stop-color="#00629b" stop-opacity="0.8"/><stop offset="0.6401" stop-color="#00629b" stop-opacity="0.8802"/><stop offset="0.8322" stop-color="#00629b" stop-opacity="0.9694"/><stop offset="1" stop-color="#00629b"/></linearGradient><linearGradient id="linear-gradient-3" x1="592.9411" y1="180.0566" x2="892.6959" y2="180.0566" gradientUnits="userSpaceOnUse"><stop offset="0" stop-color="#00629b"/><stop offset="1" stop-color="#76bc21"/></linearGradient><linearGradient id="linear-gradient-4" x1="653.9444" y1="123.6184" x2="918.8958" y2="123.6184" xlink:href="#linear-gradient-3"/><linearGradient id="linear-gradient-5" x1="481.4214" y1="288.5808" x2="905.4359" y2="288.5808" gradientUnits="userSpaceOnUse"><stop offset="0" stop-color="#00629b" stop-opacity="0"/><stop offset="0.1278" stop-color="#00629b" stop-opacity="0.0725"/><stop offset="0.3541" stop-color="#00629b" stop-opacity="0.266"/><stop offset="0.6523" stop-color="#00629b" stop-opacity="0.5799"/><stop offset="1" stop-color="#00629b"/></linearGradient><linearGradient id="linear-gradient-6" x1="631.9621" y1="220.9296" x2="986.5571" y2="220.9296" gradientUnits="userSpaceOnUse"><stop offset="0" stop-color="#76bc21"/><stop offset="1" stop-color="#ddddde" stop-opacity="0.1"/></linearGradient><linearGradient id="linear-gradient-7" x1="427.887" y1="-486.9583" x2="677.5588" y2="-481.4531" gradientTransform="matrix(1.1025, 0.1911, 0.1911, 1.1889, 107.269, 572.7973)" gradientUnits="userSpaceOnUse"><stop offset="0.3896" stop-color="#00629b"/><stop offset="0.843" stop-color="#c8c9ca"/><stop offset="1" stop-color="#c8c9ca"/></linearGradient><linearGradient id="linear-gradient-8" x1="704.9204" y1="300.432" x2="710.9285" y2="230.6462" gradientUnits="userSpaceOnUse"><stop offset="0" stop-color="#509f48"/><stop offset="0.102" stop-color="#59a63f"/><stop offset="0.3615" stop-color="#69b22e"/><stop offset="0.6457" stop-color="#73ba24"/><stop offset="0.9981" stop-color="#76bc21"/></linearGradient><linearGradient id="linear-gradient-9" x1="773.5235" y1="306.3382" x2="779.5316" y2="236.5524" xlink:href="#linear-gradient-8"/><linearGradient id="linear-gradient-10" x1="565.3518" y1="218.0023" x2="895.7167" y2="218.0023" xlink:href="#linear-gradient"/><linearGradient id="linear-gradient-11" x1="565.3518" y1="194.0375" x2="895.7167" y2="194.0375" xlink:href="#linear-gradient"/><linearGradient id="linear-gradient-12" x1="565.3518" y1="235.5945" x2="895.7167" y2="235.5945" xlink:href="#linear-gradient"/><linearGradient id="linear-gradient-13" x1="565.3518" y1="209.3825" x2="895.7167" y2="209.3825" xlink:href="#linear-gradient"/><linearGradient id="linear-gradient-14" x1="565.3518" y1="231.9169" x2="895.7167" y2="231.9169" xlink:href="#linear-gradient"/></defs><g class="cls-1"><g id="Capa_2" data-name="Capa 2"><g id="Final"><path class="cls-2" d="M80.8029,934.5651l-.2865,28.4586v9.7734c-.191,12.1689-.575,17.7262-5.6527,23.09-7.0913,7.4753-17.6307,7.4753-21.0808,7.4753-12.84,0-20.2173-4.7912-23.8585-9.9664-3.3526-4.5982-3.9277-9.7734-4.2161-20.12v-7.0913c-.0956-14.9466-.0956-17.6307-.48-31.3317l.577-.5751c6.5143.0955,8.7189.0955,16.8627-.2885l.48.5751c-.193,9.4868-.2865,16.8646-.2865,24.6264,0,5.0777,0,10.1554.191,15.2332.191,6.0367.766,9.3913,2.2026,11.8824a11.3176,11.3176,0,0,0,9.7734,5.0777,11.0678,11.0678,0,0,0,8.4323-3.45c2.5866-3.0661,2.8732-7.6643,2.8732-17.7243,0-11.7869-.4776-23.5719-.9571-35.3568l.575-.5751c5.4617.0955,7.3778.0955,14.3736-.2885Z"/><path class="cls-2" d="M137.1568,1001.8287c-7.6663,0-9.2958.0955-15.6191.2885l-.575-.575c0-3.2591.0955-6.6118.0955-9.8689,0-3.6411-.0955-16.7691-.2865-19.9308-.2885-3.45-.768-9.1028-6.0368-9.1028-3.0661,0-5.3662,1.63-7.3778,2.9706.0956,17.1512.1911,20.8878.7661,35.6434l-.575.575c-7.6644,0-9.1029,0-16.0012.2885l-.575-.575c.0955-6.1323.191-12.2645.191-18.3967a266.1652,266.1652,0,0,0-1.341-29.9907l.575-.6706c7.1868-.959,8.8163-1.2455,16.1922-2.7795l.959.67-.1911,5.2707c4.4072-2.5866,9.4849-5.6528,15.3307-5.6528,3.4481,0,8.91.7661,11.88,5.7483,2.3956,3.9277,2.4912,8.3368,2.5886,17.5352V980.75c.191,9.3894.191,12.0715.6705,20.5038Z"/><path class="cls-2" d="M164.0365,1001.9242c-7.7617-.0955-9.6778,0-16.5761.2885l-.577-.6705c.2885-7.8573.577-13.703.577-24.1469,0-13.6056-.2885-16.9582-1.0545-24.24l.575-.575,16.4787-2.8751.6705.766c-.0936,8.1458-.2865,16.3851-.2865,24.529,0,13.2235.384,18.8762.8635,26.254Zm-1.341-60.7474c-6.8028.8635-8.6234,1.0545-15.1416,2.2046l-.6705-.575c.0975-1.8206.0975-3.7367.0975-5.5573,0-2.3-.0975-4.3116-.2885-7.7617l.575-.6706,15.6191-1.9161.5731.5751-.2866,13.03Z"/><path class="cls-2" d="M201.0854,1001.9242c-6.9-.0955-9.3914,0-15.6191.2885l-.6706-.6705c-2.109-7.8573-3.1616-11.4029-15.9056-49.1554l.382-.7661a126.1648,126.1648,0,0,0,16.7692-1.0525l.6705.573c1.3411,6.3252,1.7251,8.1458,4.1207,17.0557l1.82,7.3778,2.3956,10.3484,4.8867-18.8762c1.9161-7.4733,2.2026-8.8144,3.5437-15.2332l.6725-.6725,13.4126-.2865.48.6705c-2.6822,7.8573-6.8983,20.3128-9.4849,28.0746-2.0136,6.0368-3.8342,11.976-6.8983,21.5584Z"/><path class="cls-2" d="M264.281,988.0322l-.6705,10.8259-.5751.768c-5.0777,2.0116-8.5278,3.4482-16.4806,3.4482-6.8983,0-19.9308-1.15-25.488-14.0851a31.9021,31.9021,0,0,1-2.2981-12.551c0-16.5762,9.9644-26.4451,25.0065-26.4451a24.5343,24.5343,0,0,1,6.8028.8616c3.2591.766,10.6369,3.0661,13.9895,14.3716,1.343,4.7912,1.4386,9.5823,1.5341,14.278l-.5751.6705-30.95.5751a13.5759,13.5759,0,0,0,2.1091,5.8437c2.3,3.45,6.2278,5.2707,11.976,5.2707,6.9957,0,11.3074-2.2045,14.9486-4.1206ZM250.578,970.21c0-2.2045-.0955-4.5046-1.4366-6.6117a7.352,7.352,0,0,0-9.9644-2.3c-3.6411,2.3-4.3117,6.3233-4.6,9.2939Z"/><path class="cls-2" d="M300.6671,966.76a7.1768,7.1768,0,0,0-3.9277-1.341c-6.5162,0-6.5162,6.3232-6.5162,10.6349,0,6.6118.575,17.44.959,25.1995l-.48.6705c-7.6663-.0955-9.1984,0-16.29.2885l-.575-.575c.193-7.9528.2885-15.81.2885-23.6674,0-13.319-.2885-17.6307-.8635-24.8155l.575-.575c6.9958-1.0546,8.8163-1.3411,15.9056-2.8751l.768.766-.2884,8.8163c3.0661-7.0912,7.4733-9.2939,11.4029-9.2939.6705,0,1.341.0956,2.0116.0956l.575.67-2.6821,15.6171Z"/><path class="cls-2" d="M334.104,970.5925c5.2687,2.0116,12.6465,4.7912,12.6465,15.3306a16.3248,16.3248,0,0,1-.0955,2.1091c-1.7231,13.701-16.0967,15.0421-23.3789,15.0421-6.9938,0-11.019-1.5321-15.7127-3.2572l-.4795-.8635c.382-4.7892.4795-5.8437.67-10.8259l.8616-.384a21.2746,21.2746,0,0,0,3.8341,2.684,23.9934,23.9934,0,0,0,10.1554,2.6822c5.3662,0,7.5689-2.5866,7.5689-4.9822,0-3.45-4.2143-4.8867-6.8028-5.75l-3.6412-1.3411c-4.5027-1.7251-12.4555-4.7912-12.4555-15.0421a14.4027,14.4027,0,0,1,2.5866-8.4323c4.9822-7.1868,14.3736-7.5689,19.0673-7.5689,6.23,0,10.1574,1.1481,14.66,2.3937l.4795.575-.9571,10.4439-.8635.2885c-2.3956-1.534-6.1322-4.0251-11.976-4.0251-5.9412,0-6.7073,3.1635-6.7073,4.3116,0,2.6841,2.5867,3.7367,5.8438,4.8867Z"/><path class="cls-2" d="M370.8156,1001.9242c-7.7618-.0955-9.6779,0-16.5762.2885l-.575-.6705c.2865-7.8573.575-13.703.575-24.1469,0-13.6056-.2885-16.9582-1.0545-24.24l.575-.575,16.4807-2.8751.6705.766c-.0955,8.1458-.2885,16.3851-.2885,24.529,0,13.2235.384,18.8762.8635,26.254Zm-1.343-60.7474c-6.8028.8635-8.6234,1.0545-15.1377,2.2046l-.6705-.575c.0955-1.8206.0955-3.7367.0955-5.5573,0-2.3-.0955-4.3116-.2885-7.7617l.575-.6706,15.6191-1.9161.5751.5751-.2885,13.03Z"/><path class="cls-2" d="M427.1792,1001.9242c-7.1868,0-9.0073,0-15.6171.2885l-.48-.575.1911-3.7367c-2.3,2.0116-5.8438,5.1733-12.6466,5.1733a20.1972,20.1972,0,0,1-12.5529-4.2162c-5.6528-4.6937-7.6644-12.169-7.6644-19.6423,0-9.8689,2.7777-17.8217,9.4849-22.9949,7.2823-5.75,16.29-5.5572,23.4745-5.3662.0974-10.9234,0-13.319-.575-22.3244l.4795-.575,15.81-2.4911.6705.575c-.384,12.6465-.766,23.09-.766,48.3855,0,12.5529.2865,18.3012.6705,26.9245Zm-19.0673-39.86c-10.73,0-12.8395,8.2413-12.8395,15.619,0,1.9161,0,13.7966,9.2939,13.7966,2.6841,0,4.6-1.15,6.5162-2.3.2866-11.592.384-14.0831.2866-26.8271A21.2866,21.2866,0,0,0,408.1119,962.0647Z"/><path class="cls-2" d="M479.7867,980.4614c0,9.0073,0,11.4029.6705,20.7923l-.4795.6705c-6.2278-.0955-8.3368,0-15.2351.2885l-.575-.6705v-3.5456a19.8054,19.8054,0,0,1-13.3171,5.0777c-9.3913,0-16.7691-6.6118-16.7691-16.8627a15.3244,15.3244,0,0,1,7.1868-13.128c5.7482-3.5456,11.1144-4.5982,22.6128-6.1323a6.0428,6.0428,0,0,0-1.2455-4.1187c-1.2456-1.2475-2.6841-1.82-6.2278-1.82-6.4207,0-12.6484,2.4911-16.0011,3.8321l-.768-.384.48-10.4439.575-.766c5.4617-1.63,10.5395-3.1616,18.7808-3.1616,12.2644,0,16.0966,3.8321,18.0127,6.8982,2.4911,4.0252,2.4911,7.7618,2.3956,16.3852Zm-15.7146-3.4482c-6.5143.8616-14.0851,1.9161-14.0851,8.2394,0,4.0251,2.8751,5.8457,6.3233,5.8457a15.5279,15.5279,0,0,0,7.7618-2.4911Z"/><path class="cls-2" d="M536.0626,1001.9242c-7.1868,0-9.0074,0-15.6172.2885l-.4795-.575.1911-3.7367c-2.3,2.0116-5.8438,5.1733-12.6466,5.1733a20.1975,20.1975,0,0,1-12.553-4.2162c-5.6527-4.6937-7.6643-12.169-7.6643-19.6423,0-9.8689,2.7777-17.8217,9.4849-22.9949,7.2823-5.75,16.29-5.5572,23.4745-5.3662.0974-10.9234,0-13.319-.5751-22.3244l.48-.575,15.81-2.4911.6705.575c-.384,12.6465-.766,23.09-.766,48.3855,0,12.5529.2865,18.3012.6705,26.9245Zm-19.0673-39.86c-10.73,0-12.84,8.2413-12.84,15.619,0,1.9161,0,13.7966,9.2939,13.7966,2.6841,0,4.6-1.15,6.5162-2.3.2866-11.592.384-14.0831.2866-26.8271A21.2876,21.2876,0,0,0,516.9953,962.0647Z"/><path class="cls-2" d="M83.8691,1038.3571c-.0956,10.7324-.1911,21.3673-.1911,32.1,0,11.4965.0955,20.8879.1911,34.78l-.48.48c-5.0777,0-6.8027,0-12.6465.2884l-.67-.4795L61.5446,1093.07l-9.5823-14.085c-6.5163-9.4869-8.0483-11.978-12.551-19.4513l.573,12.84.2885,11.785.959,20.9833-.48.5751c-5.5572,0-7.5707,0-13.9895.2884l-.4776-.575c.0936-9.2938.2866-18.6852.2866-28.0746,0-12.84-.2866-23.8584-.7661-38.7095l.4795-.575c6.9938.0955,8.2394.0955,15.8082-.2885l.67.48c2.3956,3.8321,3.8322,5.9412,11.019,16.8646l8.7188,12.744c4.8887,7.28,5.3662,8.0483,8.1439,12.7421l-.3821-15.8082-.382-13.2235-.6706-12.935.4776-.575c5.9412.0955,7.5688,0,13.6075-.2885Z"/><path class="cls-2" d="M137.51,1084.2534c0,9.0074,0,11.4029.6706,20.7923l-.48.6706c-6.2277-.0955-8.3368,0-15.2351.2884l-.575-.67v-3.5456a19.8145,19.8145,0,0,1-13.317,5.0777c-9.3914,0-16.7692-6.6117-16.7692-16.8627a15.3244,15.3244,0,0,1,7.1868-13.128c5.75-3.5456,11.1144-4.5982,22.6129-6.1322a6.0409,6.0409,0,0,0-1.2456-4.1207c-1.2455-1.2455-2.6821-1.8186-6.23-1.8186-6.4187,0-12.6465,2.4911-15.9992,3.8322l-.7679-.384.48-10.4439.575-.7661c5.4617-1.63,10.5394-3.1616,18.7807-3.1616,12.2645,0,16.0967,3.8321,18.0127,6.8983,2.4911,4.0251,2.4911,7.7618,2.3956,16.3851Zm-15.7146-3.4482c-6.5162.8616-14.085,1.9161-14.085,8.2394,0,4.0251,2.8751,5.8457,6.3252,5.8457a15.5269,15.5269,0,0,0,7.76-2.4911Z"/><path class="cls-2" d="M185.4019,1092.3992l-.384,11.4965-.573.575c-4.0252,1.15-7.2823,2.1091-12.362,2.1091-21.5583,0-27.3066-14.9486-27.3066-25.9675,0-9.7734,4.4072-26.8271,26.9246-26.8271,5.5572,0,9.1983,1.1481,13.4145,2.4911l.48.575c-.768,5.0777-.8635,6.4188-1.2475,11.4965l-.9571.2885c-2.8751-1.9161-5.1751-3.45-9.3893-3.45-9.2939,0-12.362,8.0484-12.362,15.0441,0,5.7483,2.2046,14.7556,13.0325,14.7556,4.8847,0,7.3778-1.534,9.9644-3.0661Z"/><path class="cls-2" d="M209.582,1105.7163c-7.7618-.0955-9.6779,0-16.5762.2884l-.575-.67c.2866-7.8573.575-13.703.575-24.1469,0-13.6056-.2884-16.9582-1.0545-24.2405l.575-.575,16.4807-2.8751.6705.766c-.0955,8.1458-.2885,16.3852-.2885,24.529,0,13.2235.384,18.8762.8635,26.254Zm-1.343-60.7475c-6.8028.8636-8.6234,1.0546-15.1376,2.2046l-.6706-.575c.0955-1.8206.0955-3.7367.0955-5.5572,0-2.3-.0955-4.3117-.2884-7.7618l.575-.6706,15.6191-1.916.575.575-.2885,13.03Z"/><path class="cls-2" d="M242.53,1106.8663c-13.7011,0-18.3968-5.1732-20.8879-8.91-3.5456-5.1752-4.5046-11.4029-4.5046-17.5352,0-17.6306,9.3913-26.5405,26.063-26.5405a34.4226,34.4226,0,0,1,11.69,1.8205c13.4145,5.2688,13.4145,20.7924,13.4145,24.529C268.3042,1094.6018,262.8425,1106.8663,242.53,1106.8663Zm6.4187-40.1461a8.0512,8.0512,0,0,0-6.1322-2.9706,7.9338,7.9338,0,0,0-6.9938,4.3116c-1.9161,3.3527-1.9161,9.4849-1.9161,12.2645,0,9.2939,1.8206,12.5511,3.4482,14.1806a7.75,7.75,0,0,0,5.3662,2.2046c7.9528,0,9.0073-8.7208,9.0073-16.5762C251.728,1074.96,251.2485,1069.4978,248.9484,1066.72Z"/><path class="cls-2" d="M322.3853,1105.6208c-7.6663,0-9.2939.0955-15.6191.2884l-.575-.575c0-3.2591.0974-6.6117.0974-9.8689,0-3.6411-.0974-16.7691-.2885-19.9307-.2865-3.45-.766-9.1029-6.0367-9.1029-3.0661,0-5.3642,1.63-7.3778,2.9706.0955,17.1512.193,20.8878.7661,35.6434l-.5731.5751c-7.6663,0-9.1029,0-16.0031.2884l-.5731-.575c.0955-6.1322.191-12.2645.191-18.3967a266.6531,266.6531,0,0,0-1.341-29.9907l.575-.67c7.1848-.959,8.8144-1.2456,16.1922-2.78l.959.6705-.193,5.2707c4.4072-2.5866,9.4869-5.6527,15.3306-5.6527,3.45,0,8.9118.766,11.8825,5.7482,2.3955,3.9277,2.4911,8.3368,2.5866,17.5352v7.4733c.191,9.3894.191,12.0715.6705,20.5038Z"/><path class="cls-2" d="M374.9265,1084.2534c0,9.0074,0,11.4029.6705,20.7923l-.4795.6706c-6.2278-.0955-8.3368,0-15.2351.2884l-.575-.67v-3.5456a19.8148,19.8148,0,0,1-13.3171,5.0777c-9.3913,0-16.7691-6.6117-16.7691-16.8627a15.3244,15.3244,0,0,1,7.1868-13.128c5.7482-3.5456,11.1144-4.5982,22.6128-6.1322a6.051,6.051,0,0,0-1.2455-4.1207c-1.2456-1.2455-2.6841-1.8186-6.2278-1.8186-6.4207,0-12.6484,2.4911-16.0011,3.8322l-.768-.384.48-10.4439.575-.7661c5.4617-1.63,10.54-3.1616,18.7808-3.1616,12.2644,0,16.0966,3.8321,18.0127,6.8983,2.4911,4.0251,2.4911,7.7618,2.3956,16.3851Zm-15.7146-3.4482c-6.5143.8616-14.0851,1.9161-14.0851,8.2394,0,4.0251,2.8751,5.8457,6.3233,5.8457a15.5279,15.5279,0,0,0,7.7618-2.4911Z"/><path class="cls-2" d="M401.202,1105.7163c-6.9938-.0955-9.5824,0-16.0012.2884l-.575-.67c.384-9.4868.575-15.2351.575-25.5835,0-5.6527,0-11.3074-.0955-16.96-.193-15.5217-.2885-18.6833-1.2456-30.3728l.3821-.575,16.3851-2.5866.6706.67c-.384,10.3484-.48,14.66-.48,23.761,0,30.2792.48,40.3391.959,51.358Z"/><path class="cls-2" d="M487.3341,1105.7163c-7.1868,0-9.0074,0-15.6172.2884l-.48-.575.191-3.7366c-2.3,2.0116-5.8437,5.1732-12.6465,5.1732a20.1969,20.1969,0,0,1-12.553-4.2162c-5.6527-4.6937-7.6643-12.1689-7.6643-19.6422,0-9.8689,2.7776-17.8218,9.4849-22.995,7.2823-5.75,16.29-5.5572,23.4744-5.3662.0975-10.9234,0-13.319-.575-22.3244l.48-.575,15.81-2.4911.6706.5731c-.384,12.6484-.7661,23.0924-.7661,48.3874,0,12.553.2866,18.3012.6706,26.9245Zm-19.0673-39.86c-10.7305,0-12.8395,8.2413-12.8395,15.6191,0,1.9161,0,13.7965,9.2939,13.7965,2.684,0,4.6-1.15,6.5162-2.3.2865-11.592.384-14.0851.2865-26.8271A21.274,21.274,0,0,0,468.2668,1065.8567Z"/><path class="cls-2" d="M540.3431,1091.8242l-.6706,10.8259-.575.7661c-5.0777,2.0135-8.5278,3.45-16.4806,3.45-6.8983,0-19.9308-1.15-25.488-14.0851a31.9021,31.9021,0,0,1-2.2982-12.551c0-16.5761,9.9645-26.445,25.0066-26.445a24.5559,24.5559,0,0,1,6.8047.8615c3.2572.7661,10.6349,3.0661,13.9876,14.3716,1.3411,4.7912,1.4385,9.5824,1.534,14.278l-.575.6706-30.95.575a13.55,13.55,0,0,0,2.1091,5.8438c2.3,3.45,6.2277,5.2706,11.976,5.2706,6.9957,0,11.3074-2.2045,14.9485-4.1206Zm-13.7011-17.8217c0-2.2046-.0975-4.5047-1.4385-6.6118a7.352,7.352,0,0,0-9.9644-2.3c-3.6412,2.3-4.3117,6.3233-4.6,9.2939Z"/><path class="cls-2" d="M597.1531,1038.3571c-.2866,13.2235-.48,26.447-.48,39.6686,0,13.894.1929,18.3012.6705,27.1155l-.575.5751c-7.9528,0-9.8689,0-17.0538.2884l-.4795-.575c.3821-9.9644.5751-15.81.5751-27.1156,0-24.4334-.2885-29.32-.8635-39.6685l.384-.575c6.8982.0955,9.1028.0955,17.3422-.2885Z"/><path class="cls-2" d="M654.3139,1105.6208c-7.6663,0-9.2939.0955-15.6191.2884l-.575-.575c0-3.2591.0975-6.6117.0975-9.8689,0-3.6411-.0975-16.7691-.2885-19.9307-.2866-3.45-.7661-9.1029-6.0367-9.1029-3.0662,0-5.3643,1.63-7.3778,2.9706.0955,17.1512.1929,20.8878.766,35.6434l-.5731.5751c-7.6663,0-9.1028,0-16.0031.2884l-.573-.575c.0955-6.1322.191-12.2645.191-18.3967a266.623,266.623,0,0,0-1.3411-29.9907l.575-.67c7.1849-.959,8.8144-1.2456,16.1922-2.78l.959.6705-.1929,5.2707c4.4071-2.5866,9.4868-5.6527,15.3306-5.6527,3.45,0,8.9118.766,11.8824,5.7482,2.3956,3.9277,2.4911,8.3368,2.5866,17.5352v7.4733c.191,9.3894.191,12.0715.6706,20.5038Z"/><path class="cls-2" d="M680.4568,1092.8768a40.2656,40.2656,0,0,0,9.4849,2.3955l2.3.384c6.2278,1.4366,16.7672,3.7367,16.7672,15.81,0,9.2938-8.0483,18.1082-25.5835,18.1082-3.7366,0-11.017-.191-16.3832-4.0232a13.5114,13.5114,0,0,1-5.9412-10.8279c0-6.2277,4.5027-9.8689,7.3778-12.0735l-4.0232-2.8731v-.8635c2.2026-3.9277,3.6392-6.5143,6.3233-11.69a16.4581,16.4581,0,0,1-6.4208-5.3662,15.5274,15.5274,0,0,1-2.7776-9.2939,16.0721,16.0721,0,0,1,6.1323-12.935c6.2277-5.1732,15.3306-4.9822,22.1333-4.7912l4.4072.0956c6.0368.0974,8.0483,0,15.4261-.2866l.5751.4795-.6706,9.58-.575.4795-6.6117-.382a12.5286,12.5286,0,0,1,2.5885,8.3349c0,9.2938-7.2823,13.4145-12.2645,15.1395a26.92,26.92,0,0,1-10.7324,1.2456Zm-2.4911,14.18a9.11,9.11,0,0,0-2.7795,6.3252c0,3.3527,2.3955,7.3778,9.4868,7.3778,6.3233,0,8.7189-2.9706,8.7189-5.8457a4.2267,4.2267,0,0,0-1.9161-3.7366c-1.15-.9571-1.2456-.9571-9.7734-3.1617Zm5.5573-43.2122c-3.5457,0-6.4208,3.0661-6.4208,7.8573a13.184,13.184,0,0,0,.8635,4.9822,6.1977,6.1977,0,0,0,5.7483,4.0232c1.3411,0,6.0367-.67,6.1322-8.43C689.9417,1068.0612,687.93,1063.8451,683.523,1063.8451Z"/><path class="cls-2" d="M758.1586,1091.8242l-.6706,10.8259-.575.7661c-5.0777,2.0135-8.5278,3.45-16.4806,3.45-6.8983,0-19.9308-1.15-25.488-14.0851a31.9021,31.9021,0,0,1-2.2981-12.551c0-16.5761,9.9644-26.445,25.0065-26.445a24.534,24.534,0,0,1,6.8028.8615c3.2591.7661,10.6369,3.0661,13.99,14.3716,1.343,4.7912,1.4385,9.5824,1.534,14.278l-.575.6706-30.95.575a13.5763,13.5763,0,0,0,2.1091,5.8438c2.3,3.45,6.2277,5.2706,11.976,5.2706,6.9957,0,11.3074-2.2045,14.9485-4.1206Zm-13.703-17.8217c0-2.2046-.0955-4.5047-1.4366-6.6118a7.352,7.352,0,0,0-9.9644-2.3c-3.6412,2.3-4.3117,6.3233-4.6,9.2939Z"/><path class="cls-2" d="M814.0719,1105.6208c-7.6662,0-9.2938.0955-15.6191.2884l-.575-.575c0-3.2591.0975-6.6117.0975-9.8689,0-3.6411-.0975-16.7691-.2885-19.9307-.2865-3.45-.7661-9.1029-6.0367-9.1029-3.0662,0-5.3643,1.63-7.3778,2.9706.0955,17.1512.1929,20.8878.766,35.6434l-.5731.5751c-7.6662,0-9.1028,0-16.0031.2884l-.573-.575c.0955-6.1322.191-12.2645.191-18.3967a266.623,266.623,0,0,0-1.3411-29.9907l.5751-.67c7.1848-.959,8.8143-1.2456,16.1921-2.78l.959.6705-.1929,5.2707c4.4072-2.5866,9.4868-5.6527,15.3306-5.6527,3.45,0,8.9118.766,11.8824,5.7482,2.3956,3.9277,2.4911,8.3368,2.5866,17.5352v7.4733c.1911,9.3894.1911,12.0715.6706,20.5038Z"/><path class="cls-2" d="M840.9517,1105.7163c-7.7618-.0955-9.6779,0-16.5762.2884l-.575-.67c.2865-7.8573.575-13.703.575-24.1469,0-13.6056-.2885-16.9582-1.0545-24.2405l.575-.575,16.4806-2.8751.6706.766c-.0955,8.1458-.2885,16.3852-.2885,24.529,0,13.2235.384,18.8762.8635,26.254Zm-1.343-60.7475c-6.8028.8636-8.6234,1.0546-15.1377,2.2046l-.67-.575c.0955-1.8206.0955-3.7367.0955-5.5572,0-2.3-.0955-4.3117-.2885-7.7618l.575-.6706,15.6191-1.916.575.575-.2884,13.03Z"/><path class="cls-2" d="M893.8671,1091.8242l-.6705,10.8259-.5731.7661c-5.08,2.0135-8.53,3.45-16.4826,3.45-6.8983,0-19.9307-1.15-25.488-14.0851a31.9021,31.9021,0,0,1-2.2981-12.551c0-16.5761,9.9644-26.445,25.0065-26.445a24.5336,24.5336,0,0,1,6.8028.8615c3.2591.7661,10.6349,3.0661,13.9876,14.3716,1.345,4.7912,1.4424,9.5824,1.536,14.278l-.577.6706-30.9477.575a13.576,13.576,0,0,0,2.109,5.8438c2.3,3.45,6.2278,5.2706,11.976,5.2706,6.9958,0,11.3074-2.2045,14.9486-4.1206Zm-13.703-17.8217c0-2.2046-.0955-4.5047-1.4366-6.6118a7.352,7.352,0,0,0-9.9644-2.3c-3.6411,2.3-4.3116,6.3233-4.6,9.2939Z"/><path class="cls-2" d="M930.2512,1070.5523a7.1772,7.1772,0,0,0-3.93-1.341c-6.5143,0-6.5143,6.3233-6.5143,10.6349,0,6.6118.5731,17.4377.959,25.1995l-.48.6706c-7.6643-.0955-9.2,0-16.2876.2884l-.577-.575c.1949-7.9528.2885-15.81.2885-23.6674,0-13.319-.2885-17.6307-.8655-24.8155l.577-.575c6.9938-1.0545,8.8183-1.3411,15.9056-2.8751l.768.766-.2885,8.8163c3.0681-7.0912,7.4733-9.2938,11.403-9.2938.6705,0,1.341.0955,2.0116.0955l.5769.6705-2.6821,15.6172Z"/><path class="cls-2" d="M962.5225,1032.4178c-3.0681,4.6937-7.38,11.3055-10.35,16.1922l-.6706.384h-10.35l-.3821-.575a104.6306,104.6306,0,0,0,5.8477-16.0012l.4756-.4795,15.1415-.191Zm-6.5182,73.2985c-7.7579-.0955-9.6759,0-16.5761.2884l-.5731-.67c.2846-7.8573.5731-13.703.5731-24.1469,0-13.6056-.2885-16.9582-1.0526-24.2405l.577-.575,16.4787-2.8751.6705.766c-.0975,8.1458-.2885,16.3852-.2885,24.529,0,13.2235.386,18.8762.8616,26.254Z"/><path class="cls-2" d="M1008.1654,1084.2534c0,9.0074,0,11.4029.6706,20.7923l-.48.6706c-6.2258-.0955-8.3388,0-15.2351.2884l-.5731-.67v-3.5456a19.8238,19.8238,0,0,1-13.3171,5.0777c-9.3952,0-16.7711-6.6117-16.7711-16.8627a15.3221,15.3221,0,0,1,7.1888-13.128c5.7463-3.5456,11.1105-4.5982,22.6109-6.1322a6.0425,6.0425,0,0,0-1.2475-4.1207c-1.2436-1.2455-2.6821-1.8186-6.2258-1.8186-6.4207,0-12.65,2.4911-16.0031,3.8322l-.7641-.384.4756-10.4439.577-.7661c5.4617-1.63,10.5414-3.1616,18.7827-3.1616,12.2645,0,16.0927,3.8321,18.0108,6.8983,2.4911,4.0251,2.4911,7.7618,2.3936,16.3851Zm-15.7146-3.4482c-6.5143.8616-14.085,1.9161-14.085,8.2394,0,4.0251,2.877,5.8457,6.3232,5.8457a15.5213,15.5213,0,0,0,7.7618-2.4911Z"/><path class="cls-2" d="M36.3939,1139.8822c-.2515,5.6176-.4191,12.2411-.4191,26.6633,0,16.0987.1676,22.9735.67,31.6105l-.5029.5868c-3.69.0838-4.8633.0838-9.3075.2514l-.5029-.5867c.1676-5.1148.3353-9.559.3353-20.3752,0-12.66,0-25.2385-.5867-37.8149l.419-.67c3.69,0,5.031,0,9.3076-.2514Z"/><path class="cls-2" d="M84.5435,1191.8659c-.2515,2.8517-.2515,3.4384-.4191,6.29l-.5867.5868c-16.35,0-18.95.0838-34.8813.2514l-.4191-.5867c.2515-6.6254.5029-11.1515.5029-26.4957,0-14.0871,0-22.1354-.5867-31.7782l.5029-.5867c16.52-.0838,19.7885-.0838,35.2166-.2514l.5029.5867c-.2515,2.5145-.4191,3.52-.5868,6.54l-.5048.5867c-10.8143-.3352-14.42-.3352-25.0689-.4191-.2515,7.7131-.2515,10.1457-.2515,17.8588,10.3134.0838,13.5,0,23.73-.1676l.4172.5867a58.97,58.97,0,0,0-.4172,6.4577l-.5029.5868c-9.7266-.2515-11.8239-.2515-23.2269-.2515-.1676,9.7266-.0838,12.0735,0,20.038,12.6622,0,15.2605,0,26.0767-.4191Z"/><path class="cls-2" d="M128.74,1191.8659c-.2534,2.8517-.2534,3.4384-.421,6.29l-.5868.5868c-16.35,0-18.9483.0838-34.8812.2514l-.4172-.5867c.25-6.6254.5029-11.1515.5029-26.4957,0-14.0871,0-22.1354-.5886-31.7782l.5029-.5867c16.52-.0838,19.7884-.0838,35.2185-.2514l.5029.5867c-.2534,2.5145-.4211,3.52-.5887,6.54l-.5029.5867c-10.8162-.3352-14.42-.3352-25.0709-.4191-.2495,7.7131-.2495,10.1457-.2495,17.8588,10.3114.0838,13.4984,0,23.7279-.1676l.4191.5867a59.4677,59.4677,0,0,0-.4191,6.4577l-.5029.5868c-9.7266-.2515-11.822-.2515-23.225-.2515-.1676,9.7266-.0857,12.0735,0,20.038,12.66,0,15.2585,0,26.0767-.4191Z"/><path class="cls-2" d="M172.9347,1191.8659c-.2514,2.8517-.2514,3.4384-.419,6.29l-.5887.5868c-16.35,0-18.9484.0838-34.8793.2514l-.4191-.5867c.2514-6.6254.5029-11.1515.5029-26.4957,0-14.0871,0-22.1354-.5867-31.7782l.5029-.5867c16.5176-.0838,19.7884-.0838,35.2165-.2514l.5029.5867c-.2514,2.5145-.4191,3.52-.5867,6.54l-.5029.5867c-10.8182-.3352-14.4223-.3352-25.0709-.4191-.2514,7.7131-.2514,10.1457-.2514,17.8588,10.3133.0838,13.4983,0,23.7278-.1676l.4211.5867a60.0007,60.0007,0,0,0-.4211,6.4577l-.5029.5868c-9.7266-.2515-11.822-.2515-23.2249-.2515-.1677,9.7266-.0838,12.0735,0,20.038,12.66,0,15.26,0,26.0766-.4191Z"/><path class="cls-2" d="M228.1756,1165.2025c6.1206,2.6841,14.2546,6.2064,14.2546,16.9388,0,9.3893-6.9587,17.8587-21.5486,17.8587a36.319,36.319,0,0,1-16.6015-3.69l-.3352-.5867c.3352-2.9336.419-4.528.6705-7.713l.8382-.3353a24.7322,24.7322,0,0,0,14.7575,4.9471c8.635,0,12.2411-4.4442,12.2411-9.4751,0-5.8691-4.8633-8.1341-10.3133-10.23l-4.1928-1.8439c-5.9529-2.7679-13.9174-6.374-13.9174-16.6035a15.49,15.49,0,0,1,2.5983-8.8026c3.8575-5.5339,10.8162-7.38,17.6073-7.38a43.8506,43.8506,0,0,1,15.0928,2.6841l.4191.67c-.3353,3.187-.4191,4.36-.6706,7.3778l-.6705.3372c-3.606-1.8459-7.5454-3.8575-13.8336-3.8575-6.9607,0-11.3211,3.2689-11.3211,8.216,0,3.7737,2.5165,5.5338,4.2766,6.6254,1.09.67,1.4249.8381,6.4558,3.0174Z"/><path class="cls-2" d="M269.1112,1192.1193c-.2515,2.7659-.2515,3.3527-.3353,5.7853l-.4191.5029a22.8127,22.8127,0,0,1-6.29.7543c-2.0116,0-7.294,0-9.8923-4.36-1.5107-2.4306-1.5107-4.4442-1.5107-14.3384l.1677-18.4455c-2.9336,0-3.0174.0838-6.0368.1676l-.3352-.5029c.1676-2.684.1676-3.3546.1676-6.0367l.5029-.5029c1.8459,0,2.9355.0838,5.7015,0-.0838-1.7621-.0838-3.606-.0838-5.3662l-.2515-4.7795.4191-.5867c3.7737-.9239,4.6957-1.1754,8.5532-2.3488l.5867.4191c-.2515,5.5338-.3353,6.6234-.3353,12.7459,3.5223-.0838,4.5281-.0838,9.3075-.2514l.4191.5029c-.1676,2.1792-.2514,3.1012-.2514,5.9529l-.4191.5029c-4.1928-.0838-4.6957-.1676-9.14-.1676l-.1676,15.5957c.0838,1.0058.0838,5.7853.0838,6.9587,0,6.12.7543,8.05,4.9471,8.05a11.4255,11.4255,0,0,0,4.0251-.7563Z"/><path class="cls-2" d="M312.98,1155.3941c-.1676,6.372-.2515,12.3249-.2515,19.116,0,10.3133.2515,16.5176.4191,20.1237,0,1.1734.0838,2.3469.1677,3.5222l-.3353.5029c-4.0251.0839-4.6957.1677-8.5532.3353l-.5029-.5029.0838-3.5222a21.4235,21.4235,0,0,1-13.163,4.7795,15.64,15.64,0,0,1-9.559-2.8518c-5.3662-4.3584-5.3662-11.4867-5.45-18.0263v-5.1986c-.1677-11.99-.1677-13.3307-.4191-17.8588l.4191-.5867c3.9413-.0838,4.6956-.0838,8.637-.419l.5029.5867-.3353,18.3616c0,2.265-.0838,3.9413,0,7.9665.0838,3.52.2514,11.0676,8.7188,11.0676,4.9472,0,8.4694-2.7679,10.481-4.36.0838-4.528.0838-8.3855.0838-13.2488,0-11.6544-.0838-14.0013-.5867-19.4513l.5029-.5867c3.8575-.0838,4.7795-.0838,8.637-.3352Z"/><path class="cls-2" d="M351.4657,1133.594c4.2766-.7563,5.1147-.9239,8.8884-1.7621l.5867.5029c-.5867,11.6563-.6705,32.4487-.6705,40.8342,0,12.9954.3353,19.2018.6705,24.987l-.4191.5868c-3.69,0-4.6956.0838-8.5531.2514l-.5867-.5029.1676-3.1032a17.74,17.74,0,0,1-11.5706,4.1928c-11.1515,0-18.8645-8.8046-18.8645-21.5486,0-9.14,3.8555-14.9252,7.3778-18.0264,6.12-5.5358,14.087-5.7872,18.4454-5.7872,1.7621,0,2.6,0,4.8633.1676a186.1423,186.1423,0,0,0-.7543-20.2894Zm.0838,27.5853c-1.4249-.0838-2.4307-.2514-4.1908-.2514-2.6,0-8.1341.1676-12.1593,3.9394-1.8439,1.7621-4.8633,5.7014-4.8633,13.165,0,4.7795,1.343,8.216,3.1032,10.3133a11.0417,11.0417,0,0,0,8.637,3.7737,13.9107,13.9107,0,0,0,9.3894-3.69C351.6333,1177.4456,351.6333,1174.9291,351.55,1161.1793Z"/><path class="cls-2" d="M405.6813,1188.5133c-.4211,3.3526-.5049,4.1927-.6725,7.4616l-.5029.5867a27.3841,27.3841,0,0,1-13.4145,3.187c-13.7518,0-22.3868-7.8827-22.3868-22.4706,0-15.5958,9.3894-23.2269,20.3732-23.2269,6.6254,0,11.2373,2.7678,13.7517,5.7852,4.7795,5.7035,4.6119,14.0032,4.5281,17.6931l-.5867.5029c-13.0812-.0838-15.3443-.0838-29.096,0,.0838,2.9336.3352,7.0425,3.1869,10.481,3.4385,4.1089,8.216,4.528,10.8163,4.528a21.8433,21.8433,0,0,0,7.2939-1.2592,21.1228,21.1228,0,0,0,6.0368-3.6879Zm-7.7989-21.8839a9.3724,9.3724,0,0,0-9.14-6.54c-4.6937,0-10.2275,3.1851-11.0676,11.5706,10.1457.0838,13.3326,0,21.0457-.0838A18.3262,18.3262,0,0,0,397.8824,1166.6294Z"/><path class="cls-2" d="M452.6672,1198.6589c-4.0252.0839-4.528.0839-8.3856.3353l-.5867-.5867c0-.922.0838-1.8459.0838-2.7679.0839-4.109.0839-8.216.0839-12.3249,0-12.9136-.0839-13.7518-.5029-15.5119-1.5925-6.372-6.372-6.372-7.5455-6.372-5.0309,0-8.8884,2.9336-11.1514,4.6957-.0839,14.5879.0838,22.2191.6705,32.0295l-.5029.5029c-4.109.0839-4.7795.0839-8.8046.3353l-.4191-.5867c.0838-4.6957.2514-9.2237.2514-15.4281,0-13.4165-.5867-20.5428-1.0058-26.16l.5029-.5867c4.1928-.7543,4.9472-.9219,8.8885-1.6763l.5867.5867-.0838,4.3585c2.1792-1.5087,7.3778-5.1986,14.7575-5.1986a14.4965,14.4965,0,0,1,6.9587,1.5945,11.354,11.354,0,0,1,4.8633,5.45c1.09,2.5145,1.1735,5.0309,1.2573,10.2295v9.81c.2514,9.8085.3352,13.5822.5867,16.7691Z"/><path class="cls-2" d="M482.9775,1192.1193c-.2514,2.7659-.2514,3.3527-.3352,5.7853l-.4191.5029a22.8127,22.8127,0,0,1-6.29.7543c-2.0116,0-7.294,0-9.8923-4.36-1.5107-2.4306-1.5107-4.4442-1.5107-14.3384l.1677-18.4455c-2.9336,0-3.0174.0838-6.0368.1676l-.3352-.5029c.1676-2.684.1676-3.3546.1676-6.0367l.5029-.5029c1.8459,0,2.9355.0838,5.7015,0-.0838-1.7621-.0838-3.606-.0838-5.3662l-.2515-4.7795.4191-.5867c3.7737-.9239,4.6957-1.1754,8.5532-2.3488l.5867.4191c-.2515,5.5338-.3353,6.6234-.3353,12.7459,3.5222-.0838,4.528-.0838,9.3075-.2514l.4191.5029c-.1676,2.1792-.2514,3.1012-.2514,5.9529l-.4191.5029c-4.1928-.0838-4.6957-.1676-9.14-.1676l-.1676,15.5957c.0838,1.0058.0838,5.7853.0838,6.9587,0,6.12.7543,8.05,4.9471,8.05a11.426,11.426,0,0,0,4.0251-.7563Z"/><path class="cls-2" d="M515.4983,1198.9942l-.4191-.5867c.1677-4.0251.2515-7.8827.2515-15.5119,0-3.6061.0838-21.13.0838-25.0709,0-8.8046-.2514-13.3307-.5867-17.6911l.4191-.5867,11.2353-.1676c1.6782-.0838,4.2766-.0838,6.5416-.0838,4.9451,0,10.2275.1676,14.42,2.5983a12.6877,12.6877,0,0,1,6.6234,11.4867c0,2.9355-.8381,11.3191-12.4925,14.1708a19.9945,19.9945,0,0,1,7.715,1.5087c7.21,3.187,7.9645,9.559,7.9645,12.6622,0,7.713-4.7795,13.163-11.4868,15.5937-4.4442,1.5945-8.8884,1.5945-15.5118,1.5945Zm9.0561-34.1269c7.5454.0838,13.3307,0,16.8529-2.766a9.761,9.761,0,0,0,3.4385-7.2939,8.8126,8.8126,0,0,0-2.3488-5.9549c-2.9336-2.85-8.1322-2.85-10.0619-2.85-2.6821,0-5.2824.0838-7.8807.2515Zm0,7.0445c0,9.5589,0,10.9838.3353,20.1217h1.5925c6.2882,0,11.4029.0858,14.6737-1.2572a9.4929,9.4929,0,0,0,6.2882-9.2218c0-9.81-10.8162-9.8942-14.8414-9.8942-.7543,0-1.5087,0-6.0367.1676Z"/><path class="cls-2" d="M585.36,1163.8615a8.63,8.63,0,0,0-3.3546-.7544,6.26,6.26,0,0,0-3.5223,1.09c-3.4364,2.4327-3.4364,6.1206-3.4364,14.8414,0,9.4752.2514,14.4223.5867,19.1179l-.4191.5868c-3.9413,0-4.8633.0838-8.8884.2514l-.4191-.5029c.0838-6.372.1676-12.1592.1676-19.9561,0-13.4165-.2514-16.853-.7543-21.7163l.5029-.5867c3.1869-.5867,5.1985-1.0058,8.7208-1.6763l.5029.5029-.4191,7.1263c1.0058-2.684,3.1012-8.05,10.23-8.05a8.6882,8.6882,0,0,1,2.3468.2514l.3353.5049c-.8381,4.0232-1.0058,4.8613-1.5925,8.5512Z"/><path class="cls-2" d="M624.0893,1181.4707a157.505,157.505,0,0,0,.5029,16.7692l-.4191.419c-3.9413.0839-4.6118.1677-8.4674.3353l-.3372-.5029.0838-3.0193a17.9615,17.9615,0,0,1-11.7382,4.2766c-8.3836,0-14.2527-5.7015-14.2527-14.0032,0-11.2353,9.3894-14.8394,24.4822-16.6015l1.4249-.1677c0-2.263,0-3.8575-.7543-5.1985-.8382-1.5087-2.766-3.1012-6.9587-3.1012-5.45,0-9.2237,1.6763-12.744,3.185l-.6706-.4191c.1677-3.8575.1677-4.36.2515-6.1206l.5029-.5029a43.2262,43.2262,0,0,1,14.5041-2.7678c6.2063,0,12.2431,2.0973,14.0032,8.6369.5867,2.3469.5867,6.9588.5867,10.481Zm-9.3913-6.1225c-8.4674,1.2592-16.35,2.4326-16.35,9.8943,0,.419,0,7.6312,7.9665,7.6312a13.0772,13.0772,0,0,0,9.1379-3.69v-14.0032Z"/><path class="cls-2" d="M671.6561,1198.6589c-4.0251.0839-4.528.0839-8.3855.3353l-.5867-.5867c0-.922.0838-1.8459.0838-2.7679.0838-4.109.0838-8.216.0838-12.3249,0-12.9136-.0838-13.7518-.5029-15.5119-1.5925-6.372-6.372-6.372-7.5454-6.372-5.031,0-8.8885,2.9336-11.1515,4.6957-.0838,14.5879.0838,22.2191.67,32.0295l-.5029.5029c-4.1089.0839-4.7795.0839-8.8046.3353l-.4191-.5867c.0838-4.6957.2515-9.2237.2515-15.4281,0-13.4165-.5867-20.5428-1.0058-26.16l.5029-.5867c4.1927-.7543,4.9471-.9219,8.8884-1.6763l.5867.5867-.0838,4.3585c2.1792-1.5087,7.3778-5.1986,14.7575-5.1986a14.4967,14.4967,0,0,1,6.9588,1.5945,11.354,11.354,0,0,1,4.8633,5.45c1.09,2.5145,1.1734,5.0309,1.2572,10.2295v9.81c.2515,9.8085.3353,13.5822.5867,16.7691Z"/><path class="cls-2" d="M713.42,1188.7647c-.3353,3.6061-.4191,4.0251-.6705,7.4616l-.5868.5867a23.6113,23.6113,0,0,1-11.57,2.8517c-12.6621,0-20.8781-9.14-20.8781-22.2191,0-13.3327,8.0483-23.3945,21.0457-23.3945a27.5762,27.5762,0,0,1,11.4868,2.684l.3352.5867c-.3352,3.0194-.4191,4.109-.5867,6.6235l-.67.3353a15.8992,15.8992,0,0,0-9.3075-3.2689c-6.9588,0-13.0812,5.3662-13.0812,16.0986,0,11.403,6.4577,15.5119,12.9973,15.5119a16.622,16.622,0,0,0,10.8163-4.1928Z"/><path class="cls-2" d="M757.0124,1198.6589c-4.0251.0839-4.528.0839-8.3855.3353l-.5867-.5867.0838-2.7679c.0838-4.36.0838-8.8027.0838-13.1631l-.0838-8.9722a25.7653,25.7653,0,0,0-.4191-5.7015c-.922-3.8575-3.2688-6.372-7.5454-6.372-4.7795,0-8.4694,2.6821-11.2353,4.6957-.0838,14.5879.0838,22.2191.5867,32.0295l-.4191.5029c-3.8575.0839-4.8633.0839-8.9722.3353l-.4191-.5867c.1676-5.9529.4191-13.5.4191-29.5989,0-7.0425-.0839-14.0851-.1677-21.13-.1676-7.3778-.4191-9.8105-.6705-13.5822l.4191-.5029c4.0251-.6725,5.3662-.9239,9.14-1.7621l.5029.5867c-.5029,8.9723-.5029,18.0283-.5029,27.0825,2.6821-1.76,7.9645-5.1986,15.009-5.1986a14.2127,14.2127,0,0,1,5.6176,1.0078,11.241,11.241,0,0,1,6.8749,7.9645c.4191,1.6763.4191,2.684.5867,8.3017v9.81l.0838,3.9394c.1677,7.0445.1677,8.2179.5029,12.83Z"/><g id="Separator"><rect class="cls-3" y="776.0741" width="1033.9731" height="5.988"/></g><g id="SPS"><ellipse class="cls-4" cx="740.389" cy="380.5119" rx="293.5833" ry="32.8668"/><path class="cls-5" d="M766.7881,150.2971a3.475,3.475,0,0,0-.3583,6.9408c55.8384,2.8973,103.6931,20.8692,117.9739,42.1507q.6591-4.85.99-9.7956C865.9936,168.8751,821.0745,153.1149,766.7881,150.2971Z"/><path class="cls-6" d="M460.3518,302.1607a76.8941,76.8941,0,0,1-11.71-.7545,1.53,1.53,0,0,1,.5387-3.0122c.2627.0485,26.3637,4.4816,55.609-8.31,38.6914-16.9178,65.39-56.29,77.2065-113.86,8.9631-43.6573,32.1151-101.5152,91.5128-129.2177,35.5383-16.5727,67.7179-14.365,68.0291-14.34a1.5312,1.5312,0,0,1,1.4121,1.64,1.5159,1.5159,0,0,1-1.6411,1.4107c-.3229-.0206-31.8126-2.1593-66.6345,14.1228-32.1,15.008-73.7129,49.2236-89.678,127.0011C561.6483,290.5759,488.9468,302.1592,460.3518,302.1607Z"/><path class="cls-7" d="M742.82,329.9353c-82.6429,0-149.8788-67.2359-149.8788-149.8787S660.177,30.1778,742.82,30.1778s149.876,67.2359,149.876,149.8788S825.4627,329.9353,742.82,329.9353Zm0-292.8086c-78.8129,0-142.93,64.1184-142.93,142.93s64.117,142.93,142.93,142.93c78.81,0,142.9271-64.1184,142.9271-142.93S821.63,37.1267,742.82,37.1267Z"/><path class="cls-8" d="M655.4745,174.5152a1.5339,1.5339,0,0,1-1.418-2.105c19.2414-47.5605,49.09-78.5159,88.712-92.009,80.2246-27.3223,174.4266,26.9994,175.369,27.5513a1.529,1.529,0,1,1-1.5443,2.6393c-.9306-.5416-93.9407-54.1646-172.85-27.2885-38.7383,13.1951-67.9586,43.56-86.8507,90.2548A1.5289,1.5289,0,0,1,655.4745,174.5152Z"/><rect class="cls-2" x="645.4737" y="162.8788" width="20.5949" height="18.4574" transform="translate(1087.33 -350.7823) rotate(114.8284)"/><rect class="cls-9" x="849.6061" y="188.7006" width="10.7165" height="9.6043" transform="translate(1394.1275 -497.6633) rotate(115.2042)"/><rect class="cls-9" x="633.4818" y="203.8966" width="10.7165" height="9.6043" transform="translate(1099.7169 -280.4477) rotate(115.2042)"/><rect class="cls-9" x="773.0695" y="53.2568" width="9.9802" height="8.9444" transform="translate(490.7294 -667.6335) rotate(64.1472)"/><rect class="cls-10" x="709.9377" y="205.1685" width="22.4458" height="20.1163" transform="translate(698.018 -537.0097) rotate(71.6204)"/><rect class="cls-10" x="648.1991" y="77.1891" width="25.0429" height="10.1336" transform="translate(174.7397 537.3826) rotate(-50.2187)"/><rect class="cls-2" x="687.5343" y="294.2264" width="25.0429" height="11.3489" transform="translate(168.5459 -245.5493) rotate(22.5515)"/><path class="cls-11" d="M755.7227,353.3983q-2.8105,0-5.633-.0822a1.5452,1.5452,0,0,1-1.5163-1.5751,1.5114,1.5114,0,0,1,1.6124-1.484q2.77.0815,5.5369.0822l.6666-.0015h.009a1.53,1.53,0,1,1,.009,3.0591Zm6.9482-.1277a1.53,1.53,0,1,1-.0571-3.0591q3.1122-.1123,6.2125-.3289a1.56,1.56,0,0,1,1.6725,1.4181,1.544,1.544,0,0,1-1.45,1.6352q-3.1529.22-6.3206.3347Zm-18.7817-.2407c-.036,0-.069,0-.1021-.003q-3.1482-.1938-6.2965-.4976a1.5408,1.5408,0,0,1-1.4053-1.672,1.5587,1.5587,0,0,1,1.7115-1.3725q3.0943.2951,6.1885.4889a1.5289,1.5289,0,0,1-.0961,3.0562Zm31.2967-.6283a1.5288,1.5288,0,0,1-.1621-3.0518q3.1032-.3171,6.1795-.7384a1.5571,1.5571,0,0,1,1.7655,1.3021,1.5361,1.5361,0,0,1-1.3331,1.7277q-3.13.4294-6.2816.7531A1.6316,1.6316,0,0,1,775.1859,352.4016Zm-43.7607-.5666a1.7217,1.7217,0,0,1-.21-.0132q-3.1257-.4051-6.2425-.916a1.5333,1.5333,0,0,1-1.2852-1.7615,1.5615,1.5615,0,0,1,1.8016-1.2565c2.0418.3346,4.0927.6341,6.1405.9013a1.5372,1.5372,0,0,1,1.3452,1.7174A1.555,1.555,0,0,1,731.4252,351.835Zm56.1767-1.123a1.5543,1.5543,0,0,1-1.5373-1.2683,1.5319,1.5319,0,0,1,1.2731-1.77q3.0627-.5219,6.0954-1.1449a1.5726,1.5726,0,0,1,1.8526,1.1816,1.5318,1.5318,0,0,1-1.21,1.8129q-3.0853.6363-6.2035,1.1655A1.6783,1.6783,0,0,1,787.6019,350.712Zm-68.5236-.9013a1.5341,1.5341,0,0,1-.3153-.0323q-3.09-.6142-6.1675-1.3358a1.53,1.53,0,0,1-1.156-1.8451,1.58,1.58,0,0,1,1.8887-1.1318q3.0222.7111,6.0593,1.3152a1.5327,1.5327,0,0,1,1.2221,1.8041A1.56,1.56,0,0,1,719.0783,349.8107Zm80.7775-1.6147a1.5587,1.5587,0,0,1-1.5194-1.1655,1.527,1.527,0,0,1,1.1471-1.8511q3.0175-.7266,5.9933-1.5545a1.5709,1.5709,0,0,1,1.9337,1.054,1.5271,1.5271,0,0,1-1.075,1.8907q-3.0267.841-6.1074,1.5809A1.54,1.54,0,0,1,799.8558,348.196Zm-92.9533-1.2492a1.6133,1.6133,0,0,1-.42-.0572q-3.04-.8257-6.0564-1.76a1.5245,1.5245,0,0,1-1.0179-1.9215,1.5766,1.5766,0,0,1,1.9638-.9967q2.968.92,5.9512,1.7307a1.5257,1.5257,0,0,1,1.087,1.8833A1.56,1.56,0,0,1,706.9025,346.9468Zm104.994-2.0962a1.5632,1.5632,0,0,1-1.4894-1.06,1.5257,1.5257,0,0,1,1.0089-1.9274q2.9592-.9357,5.8642-1.9684a1.573,1.573,0,0,1,2.0058.913,1.521,1.521,0,0,1-.9368,1.9611q-2.9592,1.0548-5.9723,2.0067A1.6076,1.6076,0,0,1,811.8965,344.8506ZM694.97,343.2462a1.61,1.61,0,0,1-.5255-.0895q-2.9725-1.0394-5.9122-2.1858a1.5182,1.5182,0,0,1-.8738-1.9875,1.5748,1.5748,0,0,1,2.0328-.8544q2.8871,1.1253,5.8042,2.1447a1.5216,1.5216,0,0,1,.9488,1.9552A1.5644,1.5644,0,0,1,694.97,343.2462Zm128.688-2.5821a1.5652,1.5652,0,0,1-1.45-.9556,1.5193,1.5193,0,0,1,.8617-1.9934q2.8825-1.1449,5.6961-2.39a1.5785,1.5785,0,0,1,2.0718.7633,1.5174,1.5174,0,0,1-.7807,2.0258q-2.869,1.2683-5.81,2.4367A1.6,1.6,0,0,1,823.6579,340.6641Zm-140.32-1.9582a1.5864,1.5864,0,0,1-.6336-.1321q-2.887-1.2485-5.732-2.6055a1.5143,1.5143,0,0,1-.7177-2.0463,1.5774,1.5774,0,0,1,2.0929-.7046q2.7924,1.3344,5.624,2.5586a1.5187,1.5187,0,0,1,.7987,2.0184A1.5717,1.5717,0,0,1,683.3376,338.7059Zm151.7274-3.0826a1.5679,1.5679,0,0,1-1.3993-.847,1.5113,1.5113,0,0,1,.7-2.0521q2.7835-1.3608,5.4829-2.8184a1.59,1.59,0,0,1,2.1259.6,1.5137,1.5137,0,0,1-.6126,2.08q-2.7564,1.4862-5.5969,2.8742A1.5846,1.5846,0,0,1,835.065,335.6233Zm-162.9784-2.29a1.5772,1.5772,0,0,1-.7386-.1821q-2.7789-1.4553-5.5159-3.0195a1.5111,1.5111,0,0,1-.5615-2.0932,1.5838,1.5838,0,0,1,2.1409-.549q2.6844,1.5369,5.4138,2.9637a1.512,1.512,0,0,1,.64,2.0712A1.57,1.57,0,0,1,672.0866,333.3334Zm173.9381-3.62a1.5682,1.5682,0,0,1-1.3362-.7369,1.5087,1.5087,0,0,1,.5225-2.1021q2.6572-1.5765,5.2246-3.2514a1.5841,1.5841,0,0,1,2.1679.4228,1.5078,1.5078,0,0,1-.4324,2.1226q-2.6213,1.7108-5.3327,3.3219A1.5876,1.5876,0,0,1,846.0247,329.7135Zm-184.7476-2.5674a1.5821,1.5821,0,0,1-.8408-.2393q-2.6617-1.6557-5.2666-3.4246a1.5065,1.5065,0,0,1-.3934-2.1285,1.5862,1.5862,0,0,1,2.1769-.3846q2.5539,1.7329,5.1646,3.3571a1.5109,1.5109,0,0,1,.48,2.1124A1.5747,1.5747,0,0,1,661.2771,327.1461Zm195.1548-4.2291a1.5722,1.5722,0,0,1-1.2611-.6238,1.5089,1.5089,0,0,1,.3363-2.1388q2.5-1.7967,4.9033-3.6889a1.5891,1.5891,0,0,1,2.201.229,1.51,1.51,0,0,1-.2372,2.152q-2.4547,1.9377-5.0175,3.774A1.5764,1.5764,0,0,1,856.4319,322.917ZM650.987,320.1691a1.5939,1.5939,0,0,1-.94-.3053q-2.5177-1.85-4.9844-3.8093a1.5059,1.5059,0,0,1-.2252-2.1519,1.5923,1.5923,0,0,1,2.201-.2232q2.4186,1.9222,4.8883,3.7359a1.509,1.509,0,0,1,.3123,2.1431A1.5762,1.5762,0,0,1,650.987,320.1691Zm215.1855-4.9337a1.5762,1.5762,0,0,1-1.171-.5137,1.5065,1.5065,0,0,1,.1321-2.1593q2.3151-2.0148,4.516-4.1234a1.589,1.589,0,0,1,2.213.02,1.5036,1.5036,0,0,1-.0211,2.1637q-2.252,2.1623-4.63,4.2262A1.5741,1.5741,0,0,1,866.1725,315.2354ZM641.2553,312.46a1.5831,1.5831,0,0,1-1.0119-.3626q-2.3691-1.9641-4.7952-3.887a1.5066,1.5066,0,0,1-.2312-2.152,1.5914,1.5914,0,0,1,2.2009-.2231q2.45,1.942,4.8493,3.9281a1.5058,1.5058,0,0,1,.1832,2.1564A1.5819,1.5819,0,0,1,641.2553,312.46Zm233.8531-5.8012a1.5826,1.5826,0,0,1-1.06-.4037,1.5084,1.5084,0,0,1-.0931-2.1622q2.0988-2.2282,4.0656-4.555a1.5984,1.5984,0,0,1,2.204-.2055,1.5085,1.5085,0,0,1,.21,2.1549q-2.0177,2.3869-4.1737,4.6783A1.58,1.58,0,0,1,875.1084,306.6584Zm-243.5817-1.93a1.5771,1.5771,0,0,1-.9638-.3244q-2.4592-1.88-4.9544-3.72a1.5083,1.5083,0,0,1-.3063-2.1432,1.5915,1.5915,0,0,1,2.192-.2994q2.5131,1.8561,4.9964,3.752a1.506,1.506,0,0,1,.2672,2.149A1.5726,1.5726,0,0,1,631.5267,304.7281Zm-10.0138-7.3851a1.5852,1.5852,0,0,1-.9219-.2936q-2.5221-1.7944-5.0684-3.5509a1.5078,1.5078,0,0,1-.3784-2.1314,1.5816,1.5816,0,0,1,2.18-.37q2.5673,1.7681,5.1105,3.58a1.5053,1.5053,0,0,1,.3423,2.1372A1.5739,1.5739,0,0,1,621.5129,297.343Zm261.58-.1262a1.5959,1.5959,0,0,1-.9308-.298,1.5094,1.5094,0,0,1-.3273-2.14q1.8332-2.4309,3.5251-4.9528a1.5951,1.5951,0,0,1,2.1679-.44,1.51,1.51,0,0,1,.45,2.12q-1.7385,2.5938-3.6272,5.0907A1.5721,1.5721,0,0,1,883.0925,297.2168Zm-271.8067-6.9242a1.58,1.58,0,0,1-.8828-.2657q-2.5762-1.72-5.1706-3.3982a1.5106,1.5106,0,0,1-.4413-2.12,1.5918,1.5918,0,0,1,2.1709-.4315q2.6122,1.6909,5.2066,3.4217a1.5067,1.5067,0,0,1,.4083,2.127A1.5723,1.5723,0,0,1,611.2858,290.2926Zm278.6528-3.3043a1.5747,1.5747,0,0,1-.7807-.2055,1.5117,1.5117,0,0,1-.5765-2.0888q1.5358-2.6049,2.9125-5.3007a1.5821,1.5821,0,0,1,2.0989-.6855,1.5153,1.5153,0,0,1,.7,2.0536q-1.4142,2.7744-2.9966,5.4592A1.5747,1.5747,0,0,1,889.9386,286.9883Zm-289.075-3.4422a1.5857,1.5857,0,0,1-.8468-.2422q-2.63-1.6558-5.2726-3.2661a1.5091,1.5091,0,0,1-.4985-2.108,1.59,1.59,0,0,1,2.1559-.4873q2.6574,1.6206,5.3087,3.2866a1.51,1.51,0,0,1,.4684,2.1153A1.5657,1.5657,0,0,1,600.8636,283.5461Zm-10.6294-6.4838a1.588,1.588,0,0,1-.8138-.2231q-2.6753-1.5919-5.3537-3.137a1.5127,1.5127,0,0,1-.5525-2.0962,1.5917,1.5917,0,0,1,2.1439-.54q2.6934,1.5567,5.39,3.1574a1.5107,1.5107,0,0,1,.5224,2.1036A1.5737,1.5737,0,0,1,590.2342,277.0623ZM895.5265,276.06a1.5928,1.5928,0,0,1-.6155-.1233,1.52,1.52,0,0,1-.8228-2.01q1.2071-2.759,2.246-5.606a1.5776,1.5776,0,0,1,2-.9277,1.5212,1.5212,0,0,1,.9488,1.9553q-1.0719,2.935-2.318,5.7821A1.5662,1.5662,0,0,1,895.5265,276.06ZM579.4516,270.831a1.576,1.576,0,0,1-.7807-.2055q-2.72-1.5326-5.4318-3.0166a1.5145,1.5145,0,0,1-.6005-2.083,1.5788,1.5788,0,0,1,2.1319-.5857q2.7249,1.4929,5.4618,3.0342a1.5114,1.5114,0,0,1,.5765,2.0889A1.5747,1.5747,0,0,1,579.4516,270.831ZM568.5249,264.84a1.5963,1.5963,0,0,1-.7506-.1879q-2.7656-1.4773-5.4979-2.902a1.5143,1.5143,0,0,1-.6456-2.07,1.58,1.58,0,0,1,2.1169-.6312q2.7474,1.4311,5.5279,2.9167a1.5146,1.5146,0,0,1,.6216,2.0771A1.568,1.568,0,0,1,568.5249,264.84Zm331.2113-.2892a1.63,1.63,0,0,1-.4384-.0616,1.524,1.524,0,0,1-1.0629-1.8966q.8557-2.8757,1.5344-5.8291a1.5716,1.5716,0,0,1,1.8706-1.1581,1.53,1.53,0,0,1,1.1861,1.8275q-.7026,3.0518-1.5884,6.0141A1.56,1.56,0,0,1,899.7362,264.5512Zm-342.27-5.4723a1.5729,1.5729,0,0,1-.7236-.1747q-2.8015-1.4268-5.5579-2.792a1.5177,1.5177,0,0,1-.6876-2.058,1.5871,1.5871,0,0,1,2.1048-.6723q2.7655,1.3738,5.588,2.81a1.5132,1.5132,0,0,1,.6636,2.0639A1.57,1.57,0,0,1,557.4661,259.0789Zm-11.1728-5.5458a1.5765,1.5765,0,0,1-.6937-.16q-2.8464-1.3762-5.6149-2.6878a1.5129,1.5129,0,0,1-.7267-2.0433,1.5806,1.5806,0,0,1,2.09-.71q2.7789,1.3144,5.639,2.7a1.5144,1.5144,0,0,1,.7086,2.0507A1.5709,1.5709,0,0,1,546.2933,253.5331Zm356.1994-.9028a1.65,1.65,0,0,1-.2552-.0206,1.5332,1.5332,0,0,1-1.2912-1.757q.4909-2.9506.8137-5.9715a1.5637,1.5637,0,0,1,3.1108.3141q-.3288,3.1134-.8378,6.1506A1.552,1.552,0,0,1,902.4927,252.63Zm-367.4774-4.4331a1.5944,1.5944,0,0,1-.67-.1483q-2.8825-1.3322-5.666-2.5835a1.5156,1.5156,0,0,1-.7657-2.03,1.5751,1.5751,0,0,1,2.0748-.75q2.7971,1.2594,5.6961,2.5982a1.5145,1.5145,0,0,1,.7446,2.036A1.5669,1.5669,0,0,1,535.0153,248.1972Zm-11.3861-5.13a1.5782,1.5782,0,0,1-.6411-.1365q-2.9343-1.29-5.714-2.4837a1.5155,1.5155,0,0,1-.8033-2.0155,1.5763,1.5763,0,0,1,2.0614-.7853q2.79,1.1979,5.7411,2.4955a1.5163,1.5163,0,0,1,.7851,2.0228A1.57,1.57,0,0,1,523.6292,243.0668ZM903.7868,240.47c-.024,0-.048,0-.072-.0015a1.5438,1.5438,0,0,1-1.4924-1.5985q.0542-1.1231.0841-2.2518a1.5486,1.5486,0,0,1,1.5644-1.4885h.042a1.5446,1.5446,0,0,1,1.5224,1.5707q-.0315,1.16-.0841,2.31A1.5511,1.5511,0,0,1,903.7868,240.47Zm-391.6338-2.33a1.5733,1.5733,0,0,1-.6155-.1248q-3.0064-1.2551-5.7636-2.38a1.5175,1.5175,0,0,1-.8423-2.0007,1.5745,1.5745,0,0,1,2.0463-.8235q2.7678,1.1273,5.7907,2.3912a1.5159,1.5159,0,0,1,.8227,2.0081A1.5676,1.5676,0,0,1,512.153,238.1405Zm-11.5782-4.7135a1.5864,1.5864,0,0,1-.5871-.113q-3.1549-1.2485-5.8116-2.2665a1.5176,1.5176,0,0,1-.8843-1.9831A1.5791,1.5791,0,0,1,495.32,228.2c1.7761.6811,3.7293,1.44,5.8432,2.2782a1.52,1.52,0,0,1,.8617,1.9934A1.5651,1.5651,0,0,1,500.5748,233.427Zm-11.68-4.4786a1.5963,1.5963,0,0,1-.554-.1c-3.7653-1.3916-5.8567-2.105-5.8687-2.1094a1.5194,1.5194,0,0,1-.9623-1.9479,1.5746,1.5746,0,0,1,1.9922-.941s2.12.7223,5.9468,2.1359a1.52,1.52,0,0,1,.91,1.9728A1.5651,1.5651,0,0,1,488.8944,228.9484Z"/><rect class="cls-2" x="896.3431" y="225.947" width="16.3769" height="14.6772" transform="translate(1195.183 -654.4763) rotate(93.6665)"/><rect class="cls-10" x="909.1762" y="101.9334" width="16.3769" height="14.6772" transform="matrix(-0.5, 0.866, -0.866, -0.5, 1470.6794, -630.5531)"/><path class="cls-12" d="M633.535,351.5032a1.5276,1.5276,0,0,1-1.5295-1.5075c-1.2477-86.3971,24.4085-152.5928,76.2582-196.7492,102.6924-87.46,275.2958-58.2836,277.028-57.9782a1.5305,1.5305,0,0,1-.5285,3.0151C983.04,97.98,811.8193,69.0572,710.2366,155.5849c-51.1128,43.5369-76.405,108.9311-75.172,194.3667a1.5293,1.5293,0,0,1-1.5061,1.5516Z"/><rect class="cls-2" x="759.907" y="145.8531" width="17.6068" height="15.7795" transform="matrix(-0.0639, 0.998, -0.998, -0.0639, 971.2963, -603.5626)"/><path class="cls-13" d="M729.0984,247.6071a1.7268,1.7268,0,0,1-.7985-3.2588q3.0914-1.6074,6.0713-3.2294a1.7275,1.7275,0,0,1,1.65,3.0357q-3.0078,1.6337-6.1241,3.2587A1.7317,1.7317,0,0,1,729.0984,247.6071Zm12.14-6.591a1.7266,1.7266,0,0,1-.8543-3.2294q3.03-1.7174,5.9421-3.4466a1.726,1.726,0,1,1,1.7674,2.9652q-2.9461,1.7571-6.0068,3.4877A1.7139,1.7139,0,0,1,741.2381,241.0161Zm11.8813-7.0518a1.7265,1.7265,0,0,1-.913-3.1942q2.9592-1.8363,5.7894-3.6874a1.7263,1.7263,0,0,1,1.8907,2.8889q-2.8668,1.8759-5.86,3.7343A1.704,1.704,0,0,1,753.1194,233.9643Zm11.5584-7.5539a1.7265,1.7265,0,0,1-.9806-3.15q2.8668-1.9728,5.6016-3.9575a1.7277,1.7277,0,0,1,2.0316,2.795q-2.77,2.0124-5.6779,4.01A1.7176,1.7176,0,0,1,764.6778,226.41Zm11.1737-8.1147a1.7265,1.7265,0,0,1-1.051-3.0973q2.7612-2.1181,5.3755-4.251a1.7277,1.7277,0,1,1,2.1843,2.6774q-2.6554,2.1623-5.4577,4.3157A1.72,1.72,0,0,1,775.8515,218.2957Zm10.7011-8.7252a1.7264,1.7264,0,0,1-1.1332-3.03q2.6291-2.2855,5.0907-4.577a1.7283,1.7283,0,1,1,2.3546,2.5307q-2.5057,2.33-5.1788,4.6533A1.7215,1.7215,0,0,1,786.5526,209.5705Zm10.1081-9.4064a1.7263,1.7263,0,0,1-1.2213-2.9476q2.4661-2.4618,4.7443-4.9263a1.7285,1.7285,0,0,1,2.5366,2.3486q-2.3251,2.51-4.8383,5.02A1.7227,1.7227,0,0,1,796.6607,200.1641Zm9.3712-10.14a1.7262,1.7262,0,0,1-1.3153-2.8448q2.25-2.6467,4.3069-5.2992a1.7283,1.7283,0,1,1,2.73,2.12q-2.1093,2.7126-4.4067,5.4166A1.7193,1.7193,0,0,1,806.0319,190.0237Zm8.4552-10.91a1.7066,1.7066,0,0,1-.9865-.3112,1.725,1.725,0,0,1-.4257-2.4044q1.99-2.8448,3.77-5.6808a1.7268,1.7268,0,1,1,2.924,1.8378q-1.8231,2.9064-3.8635,5.8217A1.7242,1.7242,0,0,1,814.4871,179.1141Zm7.3219-11.7022a1.7252,1.7252,0,0,1-1.509-2.563c1.1127-2.0081,2.1608-4.0426,3.1149-6.0448a1.7268,1.7268,0,0,1,3.1179,1.4855c-.9864,2.0668-2.0639,4.163-3.2089,6.2328A1.7241,1.7241,0,0,1,821.809,167.4119Zm5.9539-12.4508a1.6789,1.6789,0,0,1-.6488-.1263,1.7265,1.7265,0,0,1-.9512-2.2488c.84-2.0786,1.6323-4.2218,2.3487-6.3767a1.7268,1.7268,0,1,1,3.2763,1.0922c-.74,2.2224-1.556,4.436-2.425,6.5821A1.723,1.723,0,0,1,827.7629,154.9611Zm4.345-13.1a1.7268,1.7268,0,0,1-1.67-2.1608c.5695-2.1931,1.0686-4.4214,1.4826-6.62a1.7268,1.7268,0,0,1,3.3938.64c-.4287,2.2753-.9454,4.58-1.5355,6.8493A1.7228,1.7228,0,0,1,832.1079,141.8614Zm2.5483-13.5606a1.5628,1.5628,0,0,1-.2025-.0118,1.7241,1.7241,0,0,1-1.5149-1.9141c.2613-2.2459.4492-4.5212.5549-6.7613a1.6958,1.6958,0,0,1,1.8084-1.644,1.7309,1.7309,0,0,1,1.6441,1.8085c-.1116,2.3193-.3053,4.6738-.5784,6.996A1.7251,1.7251,0,0,1,834.6562,128.3008Zm-260.4405-.9277a1.68,1.68,0,0,1-.8015-.2,1.7217,1.7217,0,0,1-.7222-2.331L574.97,120.53a1.7271,1.7271,0,0,1,3.0474,1.6265l-2.2723,4.2951A1.7231,1.7231,0,0,1,574.2157,127.3731Zm5.5781-10.39a1.7032,1.7032,0,0,1-.8367-.2172,1.7256,1.7256,0,0,1-.6694-2.3487c1.0481-1.8877,2.19-3.9134,3.4232-6.0537a1.7282,1.7282,0,0,1,2.9945,1.7263c-1.2271,2.1226-2.3574,4.1307-3.4,6.0067A1.726,1.726,0,0,1,579.7938,116.9831Zm255.5142-2.469a1.7271,1.7271,0,0,1-1.7263-1.6881c-.05-2.2459-.1761-4.527-.3758-6.7788a1.7272,1.7272,0,0,1,3.4408-.3054c.2085,2.3282.3377,4.6856.3876,7.0079a1.7277,1.7277,0,0,1-1.6881,1.7644Zm-248.5886-9.53a1.7261,1.7261,0,0,1-1.4767-2.6158q1.7262-2.8713,3.6375-5.9275a1.7269,1.7269,0,0,1,2.9241,1.8379q-1.8936,3.0165-3.6023,5.8687A1.7214,1.7214,0,0,1,586.7194,104.9844ZM834.0838,100.76a1.724,1.724,0,0,1-1.7028-1.4591c-.3494-2.2341-.7751-4.483-1.2624-6.6761a1.7265,1.7265,0,1,1,3.37-.7515c.505,2.2664.9424,4.5857,1.3035,6.8933a1.7262,1.7262,0,0,1-1.4385,1.9729A1.6982,1.6982,0,0,1,834.0838,100.76Zm-240.01-7.501a1.7263,1.7263,0,0,1-1.4415-2.6716q1.8583-2.84,3.8606-5.7807a1.7279,1.7279,0,1,1,2.8536,1.9494q-1.986,2.9066-3.8254,5.722A1.7222,1.7222,0,0,1,594.0737,93.2587ZM831.098,87.2813a1.7261,1.7261,0,0,1-1.6587-1.2506c-.6166-2.14-1.3153-4.3216-2.0757-6.4794A1.728,1.728,0,0,1,830.6224,78.4c.7839,2.2254,1.5032,4.4713,2.1344,6.6791a1.7216,1.7216,0,0,1-1.1832,2.1343A1.6758,1.6758,0,0,1,831.098,87.2813ZM601.88,81.8324a1.7258,1.7258,0,0,1-1.4062-2.73q1.9949-2.7876,4.1043-5.6162a1.7262,1.7262,0,1,1,2.7655,2.0668q-2.0874,2.7963-4.0573,5.5575A1.7235,1.7235,0,0,1,601.88,81.8324Zm224.6322-7.5773a1.7284,1.7284,0,0,1-1.5941-1.06q-1.3255-3.1707-2.7979-6.2151a1.728,1.728,0,0,1,3.112-1.5032q1.5062,3.1268,2.8742,6.3854a1.7246,1.7246,0,0,1-1.5942,2.3928Zm-216.3472-3.5a1.726,1.726,0,0,1-1.3593-2.7919q2.1225-2.7084,4.3567-5.4255a1.7269,1.7269,0,0,1,2.6658,2.1961q-2.2064,2.6773-4.3039,5.3608A1.7233,1.7233,0,0,1,610.165,70.7555Zm210.3435-8.94a1.7268,1.7268,0,0,1-1.5149-.8925q-1.669-3.03-3.4437-5.8951a1.7281,1.7281,0,0,1,2.9417-1.8144q1.8143,2.9373,3.5259,6.042a1.726,1.726,0,0,1-1.509,2.56Zm-201.5478-1.735a1.7262,1.7262,0,0,1-1.3035-2.8595q2.2635-2.6115,4.6357-5.1935a1.7266,1.7266,0,1,1,2.5424,2.3369q-2.334,2.5453-4.5711,5.123A1.7191,1.7191,0,0,1,618.9607,60.0809ZM813.2394,50.0667a1.729,1.729,0,0,1-1.4239-.7427q-1.9773-2.8581-4.025-5.5165a1.7275,1.7275,0,1,1,2.742-2.102q2.0874,2.7214,4.1249,5.6515a1.7256,1.7256,0,0,1-1.418,2.71Zm-184.9251-.1732a1.7262,1.7262,0,0,1-1.239-2.93q2.4222-2.4882,4.9381-4.9176a1.7254,1.7254,0,0,1,2.3957,2.4838q-2.475,2.3911-4.8559,4.8411A1.7227,1.7227,0,0,1,628.3143,49.8935Zm9.9407-9.606a1.7263,1.7263,0,0,1-1.1567-3.0092q2.5893-2.334,5.2669-4.5887a1.7272,1.7272,0,1,1,2.2253,2.6422q-2.6334,2.2151-5.1788,4.5124A1.7323,1.7323,0,0,1,638.255,40.2875Zm166.55-1.1685a1.722,1.722,0,0,1-1.3123-.6018q-2.2855-2.6686-4.5711-5.0526a1.7276,1.7276,0,0,1,2.4955-2.39c1.5618,1.6353,3.1354,3.3674,4.7,5.1935a1.726,1.726,0,0,1-1.3123,2.8507Zm-155.94-7.7359a1.7265,1.7265,0,0,1-1.06-3.0914q2.7522-2.14,5.6045-4.1718a1.7262,1.7262,0,0,1,2.0022,2.8125q-2.7876,1.986-5.4871,4.09A1.72,1.72,0,0,1,648.8651,31.3831ZM795.24,29.1519a1.7116,1.7116,0,0,1-1.1714-.458c-1.6969-1.5677-3.4291-3.0562-5.1407-4.4214a1.7258,1.7258,0,1,1,2.1491-2.7009c1.782,1.415,3.5758,2.9593,5.3344,4.5857a1.7263,1.7263,0,0,1-1.1714,2.9946ZM660.124,23.36a1.7267,1.7267,0,0,1-.9424-3.1766q2.9284-1.9024,5.9509-3.6668a1.7276,1.7276,0,1,1,1.7439,2.9828q-2.9505,1.7219-5.8159,3.5846A1.72,1.72,0,0,1,660.124,23.36Zm124.0037-2.3428a1.698,1.698,0,0,1-.8514-.2261q-3.0255-1.7218-6.01-3.2558a1.7266,1.7266,0,1,1,1.5795-3.0709q3.0517,1.5721,6.1388,3.3263a1.7263,1.7263,0,0,1-.8572,3.2265ZM672.0552,16.4016a1.7269,1.7269,0,0,1-.7927-3.2618q3.109-1.6029,6.3-3.05a1.7266,1.7266,0,0,1,1.421,3.1472q-3.1047,1.4049-6.1359,2.974A1.741,1.741,0,0,1,672.0552,16.4016Zm99.7889-1.6881a1.7469,1.7469,0,0,1-.7192-.1556q-3.1575-1.4445-6.271-2.6893a1.726,1.726,0,0,1,1.28-3.2059q3.1927,1.2728,6.4295,2.7538a1.7267,1.7267,0,0,1-.7193,3.297Zm-87.1942-3.99a1.7265,1.7265,0,0,1-.6194-3.3381c2.1784-.8367,4.4037-1.6176,6.62-2.3222a1.7279,1.7279,0,1,1,1.0451,3.294c-2.149.6811-4.3127,1.4385-6.4265,2.2518A1.7017,1.7017,0,0,1,684.65,10.7237Zm74.3646-1.1245a1.7416,1.7416,0,0,1-.5548-.091q-3.2808-1.11-6.5088-2.011a1.7281,1.7281,0,0,1,.9278-3.3293q3.3247.9292,6.6907,2.07a1.7265,1.7265,0,0,1-.5549,3.3615Zm-61.2-3.0415a1.727,1.727,0,0,1-.42-3.4026c2.2488-.5608,4.5564-1.0569,6.8581-1.4767A1.758,1.758,0,0,1,706.2606,3.07a1.7283,1.7283,0,0,1-1.3916,2.0082c-2.2283.4051-4.46.8866-6.635,1.43A1.7274,1.7274,0,0,1,697.8142,6.5577Zm47.8981-.6547a1.7331,1.7331,0,0,1-.367-.0381c-2.24-.4845-4.4918-.8984-6.6878-1.23a1.7316,1.7316,0,0,1-1.45-1.967,1.7591,1.7591,0,0,1,1.967-1.45c2.2694.3435,4.5887.7722,6.8992,1.2713a1.7265,1.7265,0,0,1-.3611,3.4143ZM711.3807,4.1a1.7274,1.7274,0,0,1-.1938-3.4437c2.3223-.2642,4.6768-.4521,6.9932-.5578a1.7741,1.7741,0,0,1,1.8055,1.647,1.7291,1.7291,0,0,1-1.647,1.8055c-2.24.1028-4.5153.2819-6.7583.54C711.5128,4.0975,711.4482,4.1,711.3807,4.1Zm20.6829-.2671a1.32,1.32,0,0,1-.1526-.0059c-2.2724-.1967-4.5565-.32-6.7818-.3641a1.7274,1.7274,0,0,1-1.694-1.7585,1.6821,1.6821,0,0,1,1.7586-1.694c2.3075.044,4.6679.17,7.0166.3758a1.7266,1.7266,0,0,1-.1468,3.4467Z"/><rect class="cls-2" x="567.5073" y="119.0839" width="14.5892" height="13.0751" transform="matrix(-0.4199, 0.9076, -0.9076, -0.4199, 930.1723, -343.3026)"/><path class="cls-14" d="M723.7973,53.4158C706.2,77.2986,690.5,123.0947,715.6351,205.6426a1.7508,1.7508,0,1,0,3.35-1.0206c-24.7119-81.1568-9.49-125.8916,7.633-149.1283a77.42,77.42,0,0,1,18.8936-18.3224c-1.9948-.0373-3.99-.0034-5.9832.041A82.08,82.08,0,0,0,723.7973,53.4158Z"/><path class="cls-15" d="M822.0616,84.91c-10.0108-39.5992-27.592-60.5368-50.849-60.549-6.0084.0314-13.454,2.0026-21.1745,6.0577q3.59.1705,7.1647.5078a39.5331,39.5331,0,0,1,14.0179-3.0639c27.12.0136,40.77,31.4966,47.4479,57.9051,19.6441,77.7122,3.6128,212.8666-27.2337,229.548a1.7514,1.7514,0,0,0,1.6667,3.0809C825.6555,300.7907,842.4359,165.4992,822.0616,84.91Z"/><path class="cls-2" d="M397.0422,602.2773c6.5445,3.0985,12.8555,5.28,19.6279,5.28,10.4424,0,18.1323-5.8537,18.1323-14.461,0-20.7734-37.2987-14.8058-37.2987-40.5139,0-14.4611,11.9352-20.8874,22.7223-20.8874a46.5181,46.5181,0,0,1,18.5937,4.1313l-2.2964,6.197c-5.5075-2.295-10.4423-3.6726-16.2973-3.6726-9.9836,0-15.6078,5.8536-15.6078,14.2317,0,19.6251,37.2986,15.0351,37.2986,40.5139,0,12.854-10.901,21.1167-25.2467,21.1167-7.3452,0-14.3483-2.0657-21.6935-5.7383Z"/><path class="cls-2" d="M450.9884,584.3731c0-16.4113,11.8212-29.9548,28.4633-29.9548,16.6393,0,28.46,13.5435,28.46,29.9548s-11.8212,29.8395-28.46,29.8395C462.81,614.2126,450.9884,600.7844,450.9884,584.3731Zm50.0374,0c0-12.8541-8.4907-23.5271-21.5741-23.5271-12.97,0-21.5769,10.673-21.5769,23.5271s8.6074,23.4131,21.5769,23.4131C492.5351,607.7862,501.0258,597.2272,501.0258,584.3731Z"/><path class="cls-2" d="M565.0723,610.1966a43.0014,43.0014,0,0,1-18.9385,4.016c-18.3629,0-29.15-13.5422-29.15-29.9535,0-16.2973,10.7871-29.8408,29.15-29.8408a48.7918,48.7918,0,0,1,19.0525,3.9019l-2.0657,5.969a45.3356,45.3356,0,0,0-16.9868-3.4432c-14.69,0-22.4943,11.2471-22.4943,23.4131,0,12.28,7.804,23.5271,22.38,23.5271,5.7383,0,11.2485-1.6069,16.87-3.7879Z"/><path class="cls-2" d="M582.1757,532.2687a4.6561,4.6561,0,0,1,4.8208,4.59,4.7513,4.7513,0,0,1-4.8208,4.7055,4.6141,4.6141,0,0,1-4.8207-4.7055A4.5238,4.5238,0,0,1,582.1757,532.2687Zm-3.3278,23.6425h6.6557v56.81h-6.6557Z"/><path class="cls-2" d="M646.7922,610.7694a45.8337,45.8337,0,0,1-18.1349,3.4432c-17.5595,0-28.3466-13.4282-28.3466-29.8395,0-16.5267,10.7871-29.9548,26.3976-29.9548,17.7875,0,25.1327,13.8869,25.1327,29.61H606.9664c0,13.4282,7.9207,23.7578,21.6909,23.7578A46.1641,46.1641,0,0,0,645.53,604.343ZM644.8406,578.29c-1.607-12.0506-8.4934-17.4441-18.1323-17.4441-8.9521,0-16.9867,5.6229-19.1664,17.4441Z"/><path class="cls-2" d="M667.913,561.6494h-8.1486v-5.7382h8.1486V541.45l6.6558-2.9845v17.4455h14.1176v5.7382H674.5688v34.43c0,7.5759,3.2138,11.7072,10.559,11.7072a22.363,22.363,0,0,0,6.6557-1.0328l1.379,6.197a31.8784,31.8784,0,0,1-8.6074,1.2622c-9.5276,0-16.6421-5.8523-16.6421-17.4442Z"/><path class="cls-2" d="M707.5108,632.92c4.2454,0,7.3452-2.5244,9.2969-8.4934l3.7866-11.7059h-2.2964l-19.97-56.81h7.0032l14.46,41.89c.8035,2.41,1.9517,6.197,2.8691,9.4108.8035-3.2138,1.9517-6.8864,2.7552-9.4108l13.5422-41.89h7l-23.2978,71.5c-2.6384,8.1487-8.4933,11.9366-15.1491,11.9366a24.5622,24.5622,0,0,1-10.559-2.181l1.9516-6.083A21.138,21.138,0,0,0,707.5108,632.92Z"/><path class="cls-2" d="M54.8884,193.74H41.6936c-3.0591,0-15.4477.4832-15.4477.4832l-.8062-.9664c.4832-14.9645.8062-29.7689.8062-44.7334V137.26c0-18.6669-.1628-37.4927-1.45-56.16l.8062-.965H36.7045c5.3094,0,14.6443-.3216,18.021-.4831l.646.9663c-.4831,22.045-.8062,44.25-.8062,66.4568,0,15.2862.3231,30.5738,1.1265,45.7Z"/><path class="cls-2" d="M153.2015,173.143c-.4832,6.5973-.8035,13.5164-1.1265,19.6319l-1.2866.965c-23.4932,0-47.1493.1615-70.8026.3216l-.8035-1.1264c.6433-14.8044.8035-29.6074.8035-44.5733V115.0533c0-11.425-.16-22.6884-1.1265-33.9532l.9663-.965c17.5405,0,60.021-.3216,70.64-.3216l.8062.9649c-.4832,6.5974-.9664,12.39-1.1265,18.6657l-.9663.9663c-13.8381-.3217-27.516-.4832-41.1939-.4832,0,3.0578-.16,7.4022-.16,11.9081,0,5.1493,0,10.2985.16,13.6779,13.0346,0,25.9063-.1615,38.7808-.6446l.9663,1.1264c-.4832,6.1156-.8062,12.0683-1.1265,18.1839l-.9663.9649c-23.6534-.16-37.6543-.16-37.6543-.16,0,9.4936.16,18.8258.323,28.1593,14.8044,0,29.4459-.3217,44.09-1.1265Z"/><path class="cls-2" d="M243.6347,173.143c-.4831,6.5973-.8061,13.5164-1.1264,19.6319l-1.2894.965c-23.4932,0-47.1465.1615-70.8.3216l-.8062-1.1264c.6433-14.8044.8062-29.6074.8062-44.5733V115.0533c0-11.425-.1629-22.6884-1.1265-33.9532l.9636-.965c17.5405,0,60.021-.3216,70.6425-.3216l.8035.9649c-.4832,6.5974-.9636,12.39-1.1265,18.6657l-.9636.9663c-13.8408-.3217-27.5187-.4832-41.1939-.4832,0,3.0578-.1628,7.4022-.1628,11.9081,0,5.1493,0,10.2985.1628,13.6779,13.0319,0,25.9063-.1615,38.7781-.6446l.9663,1.1264c-.4832,6.1156-.8035,12.0683-1.1265,18.1839l-.9663.9649c-23.6534-.16-37.6516-.16-37.6516-.16,0,9.4936.16,18.8258.32,28.1593,14.8044,0,29.4486-.3217,44.09-1.1265Z"/><path class="cls-2" d="M334.0653,173.143c-.4832,6.5973-.8035,13.5164-1.1265,19.6319l-1.2867.965c-23.4932,0-47.1492.1615-70.8026.3216l-.8034-1.1264c.6433-14.8044.8034-29.6074.8034-44.5733V115.0533c0-11.425-.16-22.6884-1.1265-33.9532l.9664-.965c17.5405,0,60.021-.3216,70.64-.3216l.8062.9649c-.4832,6.5974-.9663,12.39-1.1265,18.6657l-.9663.9663c-13.8381-.3217-27.516-.4832-41.1939-.4832,0,3.0578-.16,7.4022-.16,11.9081,0,5.1493,0,10.2985.16,13.6779,13.0346,0,25.9064-.1615,38.7808-.6446l.9663,1.1264c-.4831,6.1156-.8062,12.0683-1.1265,18.1839l-.9663.9649c-23.6533-.16-37.6543-.16-37.6543-.16,0,9.4936.16,18.8258.3231,28.1593,14.8043,0,29.4459-.3217,44.09-1.1265Z"/><path class="cls-10" d="M26.0668,324.7793c10.882,5.346,21.5714,8.5911,33.0262,8.5911,13.173,0,21.3814-7.0629,21.3814-17.5622,0-26.1533-56.6986-20.0446-56.6986-63.1887,0-23.29,19.4732-36.8427,41.6173-36.8427,11.8348,0,22.1442,2.8637,33.599,7.827l-6.4929,17.9436c-9.3539-3.8178-17.7522-6.1088-27.1061-6.1088-12.2175,0-18.3277,7.0643-18.3277,17.1809,0,25.0078,56.6986,21.19,56.6986,63.1887,0,22.5255-19.6632,37.2254-44.671,37.2254-13.3631,0-25.9633-3.2464-39.1336-9.928Z"/><path class="cls-10" d="M129.5264,212.149c6.6829,0,13.1731,5.1547,13.1731,12.4089a12.9957,12.9957,0,0,1-13.1731,12.79,12.4425,12.4425,0,0,1-12.79-12.79C116.7362,217.3037,122.6563,212.149,129.5264,212.149Zm-10.6893,41.9987h21.3814v96.4036H118.8371Z"/><path class="cls-10" d="M172.0938,369.45a67.431,67.431,0,0,0,28.8243,6.49c17.9449,0,26.9188-12.0262,26.9188-28.8257v-8.9725c-6.8729,7.827-16.42,12.409-28.4443,12.409-27.8715,0-45.0538-23.29-45.0538-49.443s17.3723-49.4429,45.0538-49.4429c12.4076,0,22.3341,4.9633,29.207,13.1716l1.1455-10.6893,19.47,1.9082v93.35c0,26.726-19.8532,45.4337-48.2975,45.4337a74.9593,74.9593,0,0,1-35.3145-8.4Zm57.0786-68.342c0-18.5177-12.0276-30.5439-27.2988-30.5439-15.844,0-25.3906,13.1717-25.3906,30.5439,0,17.1809,9.1638,30.5439,25.3906,30.5439C216.1921,331.6522,229.1724,320.7715,229.1724,301.1083Z"/><path class="cls-10" d="M267.7251,256.0559l18.325-1.9082,1.9082,12.4076c6.8729-9.9266,17.3722-14.89,30.5452-14.89,19.2805,0,31.8808,14.1271,31.8808,36.844v62.0419H329.0029V291.3731c0-12.0276-4.3919-20.8087-14.8913-20.8087-15.4612,0-25.0078,13.1717-25.0078,35.5072v44.48H267.7251Z"/><path class="cls-10" d="M437.9972,339.0978a36.42,36.42,0,0,1-29.4,13.9358c-27.8716,0-45.0511-24.4351-45.0511-50.78,0-26.7261,17.945-50.5884,45.0511-50.5884a37.1673,37.1673,0,0,1,28.4443,12.5989V254.1477l21.3814,1.9082v94.4954H439.9055Zm.38-37.0354c0-18.899-12.0248-31.498-27.296-31.498-15.464,0-25.3906,13.9358-25.3906,31.6894,0,16.9895,9.1638,31.8807,25.3906,31.8807C425.3969,334.1345,438.3772,322.2983,438.3772,302.0624Z"/><path class="cls-10" d="M476.7427,213.6759l21.3787-4.5806v116.83c0,5.9188,2.1009,8.4,7.6356,8.4l-2.0982,18.5177c-16.2268,0-26.9161-5.9174-26.9161-24.2437Z"/><path class="cls-10" d="M27.0222,375.3352H65.3931c25.9606,0,44.861,14.7,44.861,40.8532S90.9737,457.2316,65.2,457.2316H49.1664v50.397H27.0222Zm36.08,62.8059C82,438.1411,87.92,429.36,87.92,416.1884c0-13.5544-7.0656-21.3814-24.2451-21.3814H49.1664v43.3341Z"/><path class="cls-10" d="M123.2263,413.1333l18.3277-1.9082,2.2909,13.7444c6.2975-9.7366,16.0341-16.2268,30.9253-16.2268v18.8991c-19.4732,0-30.1625,15.2726-30.1625,37.2254v42.7614H123.2263Z"/><path class="cls-10" d="M178.7712,459.5225c0-27.2988,20.236-50.78,49.6357-50.78,29.3971,0,49.633,23.481,49.633,50.78s-19.8532,50.5885-49.633,50.5885C198.6244,510.111,178.7712,486.82,178.7712,459.5225Zm77.1245,0c0-18.899-12.4075-31.8807-27.4888-31.8807s-27.4915,12.9817-27.4915,31.8807c0,18.7077,12.2175,31.6894,27.4915,31.6894C243.8682,491.2119,255.8957,478.23,255.8957,459.5225Z"/><path class="cls-10" d="M371.76,503.2381c-11.072,5.3447-21.7614,6.8729-32.6434,6.8729-31.878,0-51.1612-23.291-51.1612-50.78s19.09-50.5885,51.1612-50.5885c11.2648,0,21.9541,2.4824,33.0262,7.2543l-6.1074,17.1808c-8.7839-3.4364-17.565-5.536-26.5361-5.536-18.7077,0-29.4,14.7-29.4,31.6894,0,17.1808,10.6921,31.8807,29.4,31.8807,8.9711,0,17.5622-2.291,26.5361-5.9188Z"/><path class="cls-10" d="M463.5751,503.2381a78.25,78.25,0,0,1-33.0262,6.8729c-32.2607,0-50.3984-22.9083-50.3984-50.5885,0-27.49,17.1822-50.78,45.4337-50.78,29.59,0,44.291,22.9083,44.291,54.2149H401.5319c1.3355,15.464,9.9266,28.2543,29.59,28.2543,10.3094,0,18.8977-2.291,28.2543-6.1088Zm-15.2713-54.979c-3.0564-16.6081-12.41-20.6173-22.72-20.6173-10.1166,0-20.0431,5.3447-23.29,20.6173Z"/><path class="cls-10" d="M481.5119,484.72c8.3984,3.8178,16.0367,6.6815,24.2451,6.6815,8.0157,0,13.17-4.3906,13.17-10.4993,0-15.844-39.7063-12.2176-39.7063-43.9069,0-17.5623,14.8912-28.253,32.0707-28.253,9.3538,0,17.7549,2.291,26.726,6.3l-6.1074,16.99c-6.4928-2.8637-12.41-4.582-19.09-4.582-8.0184,0-11.4548,3.8192-11.4548,9.5453,0,15.0812,39.7064,13.7444,39.7064,44.2882,0,17.1809-15.4613,28.8271-34.5517,28.8271a63.7252,63.7252,0,0,1-30.1626-7.637Z"/><path class="cls-10" d="M551.9454,484.72c8.4011,3.8178,16.0367,6.6815,24.2451,6.6815,8.0183,0,13.173-4.3906,13.173-10.4993,0-15.844-39.7064-12.2176-39.7064-43.9069,0-17.5623,14.8886-28.253,32.0708-28.253,9.3538,0,17.7522,2.291,26.726,6.3l-6.11,16.99c-6.49-2.8637-12.4076-4.582-19.09-4.582-8.0184,0-11.4521,3.8192-11.4521,9.5453,0,15.0812,39.7063,13.7444,39.7063,44.2882,0,17.1809-15.4639,28.8271-34.5544,28.8271a63.7066,63.7066,0,0,1-30.16-7.637Z"/><path class="cls-10" d="M634.5964,369.2264c6.6829,0,13.173,5.1546,13.173,12.4089a12.9956,12.9956,0,0,1-13.173,12.79,12.4426,12.4426,0,0,1-12.79-12.79C621.8061,374.381,627.7262,369.2264,634.5964,369.2264Zm-10.6893,41.9987h21.3814v96.4035H623.9071Z"/><path class="cls-10" d="M663.6107,413.1333l18.325-1.9082,1.9082,12.4075c6.8729-9.9266,17.3722-14.89,30.5452-14.89,19.28,0,31.8808,14.1272,31.8808,36.8441v62.0418H724.8885V448.4505c0-12.0276-4.3919-20.8087-14.8913-20.8087-15.4612,0-25.0078,13.1717-25.0078,35.5072v44.48H663.6107Z"/><path class="cls-10" d="M777.1843,526.5277a67.4512,67.4512,0,0,0,28.827,6.49c17.9449,0,26.9161-12.0262,26.9161-28.8257V495.22c-6.8729,7.827-16.4168,12.4089-28.4443,12.4089-27.8716,0-45.0511-23.29-45.0511-49.4429s17.3722-49.443,45.0511-49.443c12.41,0,22.3368,4.9633,29.21,13.1717l1.1428-10.6893,19.4731,1.9082v93.35c0,26.726-19.8531,45.4337-48.2974,45.4337a74.97,74.97,0,0,1-35.3172-8.4Zm57.0785-68.342c0-18.5177-12.0248-30.5439-27.296-30.5439-15.8468,0-25.3906,13.1717-25.3906,30.5439,0,17.1808,9.1638,30.5439,25.3906,30.5439C821.2825,488.73,834.2628,477.8489,834.2628,458.1857Z"/><path class="cls-16" d="M888.5449,214.9817c-.2887,1.2048-.5755,2.41-.893,3.603A19.4773,19.4773,0,0,0,888.5449,214.9817Z"/><path class="cls-17" d="M895.6818,213.6379a28.5079,28.5079,0,0,0-4.08-15.7745,148.8765,148.8765,0,0,1-3.0564,17.1183,19.4773,19.4773,0,0,1-.893,3.603,148.6275,148.6275,0,0,1-6.6741,19.5565C890.1322,230.9219,895.2173,222.6,895.6818,213.6379Z"/><path class="cls-18" d="M571.5814,178.0031a3.4738,3.4738,0,1,0-5.51,4.2318A151.1726,151.1726,0,0,0,596.2706,211.43q-1.0723-5.0124-1.7989-10.1439A140.3507,140.3507,0,0,1,571.5814,178.0031Z"/><path class="cls-19" d="M761.2833,256.3559c-51.4109-2.6666-114.5209-17.1339-158.7285-48.8925q.99,5.0753,2.3392,10.0155C649.9124,247.07,710.8845,260.7,760.925,263.2966q8.3019.43,16.4411.4289c28.599-.0014,55.2952-3.959,76.4649-11.4453a116.24,116.24,0,0,0,16.1171-7.0312q2.8976-5.6272,5.3064-11.5276c-6.08,4.5027-14.0627,8.5843-23.7416,12.0076C827.1674,254.3391,795.1265,258.1175,761.2833,256.3559Z"/><path class="cls-20" d="M602.5548,207.4634q-4.1571-2.9862-8.0831-6.1773.73,5.1292,1.7989,10.1439c2.8078,2.0794,5.6708,4.1081,8.6234,6.0489Q603.5514,212.5373,602.5548,207.4634Z"/><path class="cls-21" d="M875.2545,233.7214q-2.4,5.9013-5.3064,11.5276a74.8815,74.8815,0,0,0,11.03-7.1078,148.6275,148.6275,0,0,0,6.6741-19.5565C885.7864,223.9228,881.5607,229.05,875.2545,233.7214Z"/><path class="cls-2" d="M756.62,557.0648h-3.1188v-1.7006h8.154v1.7006h-3.1188v9.8506H756.62Z"/><path class="cls-2" d="M763.6258,555.3642h2.215l2.2013,7.4348c.1656.5822.3828,1.45.5511,2.2163.1845-.7668.399-1.6164.5808-2.2163l2.2014-7.4348h2.2177l1.6666,11.5512h-1.9326l-.9012-6.634c-.0651-.55-.133-1.3165-.1683-2.0331-.1981.7329-.4153,1.4834-.5809,2.0331l-1.9842,6.5336h-2.1661l-2-6.5336c-.1683-.55-.3855-1.3-.5673-2.0331-.0516.7329-.1005,1.4834-.1656,2.0331l-.9012,6.634h-1.9327Z"/></g></g></g></g></svg>