<svg xmlns="http://www.w3.org/2000/svg" xmlns:xlink="http://www.w3.org/1999/xlink" viewBox="0 0 1200 252.7971"><defs><style>.cls-1{isolation:isolate;}.cls-2{fill:#00629b;}.cls-3{fill:#75787b;}.cls-4{opacity:0.5;mix-blend-mode:multiply;fill:url(#radial-gradient);}.cls-5{fill:url(#linear-gradient);}.cls-6{fill:url(#linear-gradient-2);}.cls-7{fill:url(#linear-gradient-3);}.cls-8{fill:url(#linear-gradient-4);}.cls-9{fill:#414042;}.cls-10{fill:#76bc21;}.cls-11{fill:url(#linear-gradient-5);}.cls-12{fill:url(#linear-gradient-6);}.cls-13{fill:url(#linear-gradient-7);}.cls-14{fill:url(#linear-gradient-8);}.cls-15{fill:url(#linear-gradient-9);}.cls-16{fill:none;}.cls-17{fill:url(#linear-gradient-10);}.cls-18{fill:url(#linear-gradient-11);}.cls-19{fill:url(#linear-gradient-12);}.cls-20{fill:url(#linear-gradient-13);}.cls-21{fill:url(#linear-gradient-14);}</style><radialGradient id="radial-gradient" cx="-4603.0634" cy="577.3028" r="23.7004" gradientTransform="translate(21280.8802 -135.463) scale(4.3851 0.4909)" gradientUnits="userSpaceOnUse"><stop offset="0" stop-color="#181818"/><stop offset="0.1421" stop-color="#717171"/><stop offset="0.3061" stop-color="#9c9c9c" stop-opacity="0.6964"/><stop offset="0.5023" stop-color="#c7c7c7" stop-opacity="0.3949"/><stop offset="0.6888" stop-color="#e6e6e6" stop-opacity="0.1772"/><stop offset="0.8595" stop-color="#f9f9f9" stop-opacity="0.0456"/><stop offset="1" stop-color="#fff" stop-opacity="0"/></radialGradient><linearGradient id="linear-gradient" x1="1034.1108" y1="75.128" x2="1151.0584" y2="75.128" gradientUnits="userSpaceOnUse"><stop offset="0" stop-color="#76bc21"/><stop offset="0.0616" stop-color="#5eaa3a"/><stop offset="0.1636" stop-color="#3c905d"/><stop offset="0.2672" stop-color="#227c78"/><stop offset="0.3717" stop-color="#0f6d8c"/><stop offset="0.4777" stop-color="#046597"/><stop offset="0.5873" stop-color="#00629b"/><stop offset="1" stop-color="#00629b"/></linearGradient><linearGradient id="linear-gradient-2" x1="992.3501" y1="72.4795" x2="1096.9814" y2="72.4795" gradientUnits="userSpaceOnUse"><stop offset="0.1701" stop-color="#00629b" stop-opacity="0"/><stop offset="0.185" stop-color="#00629b" stop-opacity="0.0599"/><stop offset="0.2584" stop-color="#00629b" stop-opacity="0.324"/><stop offset="0.3302" stop-color="#00629b" stop-opacity="0.5315"/><stop offset="0.3992" stop-color="#00629b" stop-opacity="0.6799"/><stop offset="0.4641" stop-color="#00629b" stop-opacity="0.7694"/><stop offset="0.5206" stop-color="#00629b" stop-opacity="0.8"/><stop offset="0.6401" stop-color="#00629b" stop-opacity="0.8802"/><stop offset="0.8322" stop-color="#00629b" stop-opacity="0.9694"/><stop offset="1" stop-color="#00629b"/></linearGradient><linearGradient id="linear-gradient-3" x1="1043.8773" y1="76.9746" x2="1149.9891" y2="76.9746" gradientUnits="userSpaceOnUse"><stop offset="0" stop-color="#00629b"/><stop offset="1" stop-color="#76bc21"/></linearGradient><linearGradient id="linear-gradient-4" x1="1065.4722" y1="56.9958" x2="1159.2637" y2="56.9958" xlink:href="#linear-gradient-3"/><linearGradient id="linear-gradient-5" x1="1004.3998" y1="115.3917" x2="1154.499" y2="115.3917" gradientUnits="userSpaceOnUse"><stop offset="0" stop-color="#00629b" stop-opacity="0"/><stop offset="0.1278" stop-color="#00629b" stop-opacity="0.0725"/><stop offset="0.3541" stop-color="#00629b" stop-opacity="0.266"/><stop offset="0.6523" stop-color="#00629b" stop-opacity="0.5799"/><stop offset="1" stop-color="#00629b"/></linearGradient><linearGradient id="linear-gradient-6" x1="1057.6905" y1="91.4435" x2="1183.2155" y2="91.4435" gradientUnits="userSpaceOnUse"><stop offset="0" stop-color="#76bc21"/><stop offset="1" stop-color="#ddddde" stop-opacity="0.1"/></linearGradient><linearGradient id="linear-gradient-7" x1="524.5844" y1="-941.573" x2="612.9671" y2="-939.6242" gradientTransform="matrix(1.1025, 0.1911, 0.1911, 1.1889, 607.6219, 1059.1882)" gradientUnits="userSpaceOnUse"><stop offset="0.3896" stop-color="#00629b"/><stop offset="0.843" stop-color="#c8c9ca"/><stop offset="1" stop-color="#c8c9ca"/></linearGradient><linearGradient id="linear-gradient-8" x1="1083.5174" y1="119.587" x2="1085.6443" y2="94.8831" gradientUnits="userSpaceOnUse"><stop offset="0" stop-color="#509f48"/><stop offset="0.102" stop-color="#59a63f"/><stop offset="0.3615" stop-color="#69b22e"/><stop offset="0.6457" stop-color="#73ba24"/><stop offset="0.9981" stop-color="#76bc21"/></linearGradient><linearGradient id="linear-gradient-9" x1="1107.8026" y1="121.6778" x2="1109.9294" y2="96.9739" xlink:href="#linear-gradient-8"/><linearGradient id="linear-gradient-10" x1="1034.1108" y1="90.4073" x2="1151.0584" y2="90.4073" xlink:href="#linear-gradient"/><linearGradient id="linear-gradient-11" x1="1034.1108" y1="81.9238" x2="1151.0584" y2="81.9238" xlink:href="#linear-gradient"/><linearGradient id="linear-gradient-12" x1="1034.1108" y1="96.6348" x2="1151.0584" y2="96.6348" xlink:href="#linear-gradient"/><linearGradient id="linear-gradient-13" x1="1034.1108" y1="87.3559" x2="1151.0584" y2="87.3559" xlink:href="#linear-gradient"/><linearGradient id="linear-gradient-14" x1="1034.1108" y1="95.3329" x2="1151.0584" y2="95.3329" xlink:href="#linear-gradient"/></defs><g class="cls-1"><g id="Capa_2" data-name="Capa 2"><g id="Final"><path class="cls-2" d="M36.8512,43.55,36.66,62.4212v6.4807c-.1267,8.0692-.38,11.7542-3.7483,15.3113C28.2094,89.17,21.222,89.17,18.9342,89.17c-8.5152,0-13.4061-3.177-15.82-6.6087C.8905,79.5122.508,76.0806.318,69.22V64.5177C.2546,54.6066.2546,52.8268,0,43.7416L.3813,43.36c4.32.0634,5.7828.0634,11.1829-.1913l.318.3813c-.128,6.2907-.1913,11.1829-.1913,16.33,0,3.367,0,6.734.1267,10.1011.1266,4.0029.5092,6.2273,1.46,7.8792a7.5063,7.5063,0,0,0,6.4807,3.367A7.3353,7.3353,0,0,0,25.35,78.94c1.7165-2.0332,1.9065-5.0823,1.9065-11.753,0-7.8159-.3167-15.6305-.6347-23.4451l.38-.3813c3.6217.0634,4.8935.0634,9.5311-.1913Z"/><path class="cls-2" d="M74.2181,88.1528c-5.0822,0-6.1628.0633-10.3557.1913l-.3826-.3813c0-2.1611.0646-4.3843.0646-6.5441,0-2.4144-.0646-11.12-.1913-13.2161-.1913-2.2877-.508-6.036-4.0017-6.036a8.7238,8.7238,0,0,0-4.8935,1.97c.0647,11.3729.1267,13.8507.5093,23.6351l-.3826.3813c-5.0822,0-6.0361,0-10.609.1913l-.3826-.3813c.0646-4.0663.1279-8.1326.1279-12.1989A176.4358,176.4358,0,0,0,42.83,55.8771l.3826-.4446c4.7642-.6359,5.8448-.8259,10.737-1.8431l.6346.4446-.1267,3.495c2.9237-1.7152,6.2895-3.7483,10.167-3.7483,2.2865,0,5.9082.5079,7.8767,3.8116,1.59,2.6045,1.6518,5.5281,1.7165,11.6276v4.9555c.1266,6.2261.1266,8.0046.4446,13.5961Z"/><path class="cls-2" d="M92.042,88.2161c-5.1469-.0633-6.4161,0-10.9917.1913l-.3813-.4446c.19-5.21.3813-9.0865.3813-16.0118a120.8039,120.8039,0,0,0-.6979-16.0739l.38-.3813,10.9283-1.9064.4446.5079c-.0633,5.4015-.19,10.865-.19,16.2652,0,8.7684.2533,12.5168.5713,17.409Zm-.8893-40.2815c-4.5109.5726-5.7181.6992-10.039,1.4618l-.4447-.3813c.0634-1.2072.0634-2.4777.0634-3.685,0-1.5251-.0634-2.859-.19-5.1468l.3813-.4446,10.3557-1.2706.3813.3813-.19,8.64Z"/><path class="cls-2" d="M116.609,88.2161c-4.5743-.0633-6.2261,0-10.357.1913l-.4446-.4446c-1.3973-5.21-2.0965-7.5613-10.547-32.5949l.2546-.508a83.6786,83.6786,0,0,0,11.12-.6979l.4446.38c.8893,4.1942,1.1426,5.4014,2.7324,11.31l1.2072,4.8923,1.5872,6.862,3.24-12.5168c1.2706-4.9556,1.4618-5.8448,2.3511-10.1011l.4446-.4459,8.8952-.19.3179.4446c-1.7785,5.21-4.5755,13.4694-6.2894,18.6162-1.3352,4.003-2.5424,7.9413-4.5755,14.2953Z"/><path class="cls-2" d="M158.5139,79.0043l-.4446,7.1787-.38.5092a24.5541,24.5541,0,0,1-10.93,2.2865c-4.5729,0-13.2148-.7626-16.9-9.34a21.1294,21.1294,0,0,1-1.5252-8.3226c0-10.9916,6.6087-17.5356,16.5818-17.5356a16.2888,16.2888,0,0,1,4.5135.5713c2.1585.5079,7.052,2.0331,9.2751,9.53a37.2,37.2,0,0,1,1.016,9.4678l-.38.4446-20.5227.3813a8.97,8.97,0,0,0,1.3986,3.875c1.5251,2.2878,4.1283,3.495,7.9412,3.495a19.42,19.42,0,0,0,9.9111-2.7324ZM149.43,67.1867a7.7652,7.7652,0,0,0-.9539-4.3842,4.8749,4.8749,0,0,0-6.6074-1.5252c-2.4144,1.5252-2.8591,4.193-3.05,6.1628Z"/><path class="cls-2" d="M182.6428,64.899a4.7592,4.7592,0,0,0-2.6057-.8893c-4.32,0-4.32,4.1929-4.32,7.052,0,4.3843.38,11.5642.636,16.71l-.318.4446c-5.0848-.0633-6.1007,0-10.8029.1913l-.38-.3813c.1266-5.2735.1913-10.4837.1913-15.6938,0-8.8319-.1913-11.6909-.5739-16.4552l.3826-.3813c4.6376-.6992,5.8448-.8892,10.547-1.9064l.5092.5079-.1913,5.8461c2.0319-4.7022,4.9556-6.1627,7.5613-6.1627.4446,0,.8893.0633,1.3339.0633l.38.4446-1.7785,10.3557Z"/><path class="cls-2" d="M204.8148,67.44c3.4924,1.3338,8.3859,3.177,8.3859,10.1657a10.5967,10.5967,0,0,1-.0647,1.3985c-1.1426,9.0851-10.6736,9.9744-15.5025,9.9744a26.4551,26.4551,0,0,1-10.4178-2.16l-.3179-.5726c.2533-3.1757.3179-3.875.4446-7.1787l.5713-.2546a14.0986,14.0986,0,0,0,2.5411,1.78,15.9108,15.9108,0,0,0,6.7341,1.7785c3.56,0,5.02-1.7152,5.02-3.3037,0-2.2878-2.7944-3.24-4.5109-3.8129l-2.4144-.8893c-2.9858-1.1439-8.2593-3.177-8.2593-9.9744A9.56,9.56,0,0,1,188.7383,58.8c3.3037-4.7655,9.5311-5.0188,12.6435-5.0188a32.3639,32.3639,0,0,1,9.7224,1.5872l.3179.3813-.6359,6.9253-.5713.1913a13.7842,13.7842,0,0,0-7.9413-2.669c-3.94,0-4.4488,2.0977-4.4488,2.859,0,1.78,1.7164,2.4778,3.875,3.24Z"/><path class="cls-2" d="M229.1582,88.2161c-5.1469-.0633-6.4187,0-10.9917.1913l-.3826-.4446c.1913-5.21.3826-9.0865.3826-16.0118a120.2534,120.2534,0,0,0-.7005-16.0739l.3826-.3813,10.927-1.9064.4446.5079c-.062,5.4015-.1913,10.865-.1913,16.2652,0,8.7684.2559,12.5168.5739,17.409Zm-.8919-40.2815c-4.5109.5726-5.7181.6992-10.0377,1.4618l-.4447-.3813c.0647-1.2072.0647-2.4777.0647-3.685,0-1.5251-.0647-2.859-.1913-5.1468l.38-.4446,10.3583-1.2706.38.3813-.1913,8.64Z"/><path class="cls-2" d="M266.5328,88.2161c-4.7668,0-5.974,0-10.3557.1913l-.318-.3813.1267-2.4778a11.64,11.64,0,0,1-8.3859,3.43,13.3885,13.3885,0,0,1-8.3239-2.7957c-3.7483-3.1124-5.0822-8.0693-5.0822-13.0248,0-6.5441,1.8406-11.8176,6.29-15.2479,4.8288-3.813,10.8-3.685,15.5645-3.5583.0647-7.2434,0-8.8319-.38-14.8033l.318-.3813,10.4824-1.6519.4446.3813c-.2533,8.3859-.5067,15.3113-.5067,32.0844,0,8.3238.1887,12.1355.4447,17.8536ZM253.8893,61.7853c-7.1166,0-8.5151,5.4648-8.5151,10.357,0,1.27,0,9.1485,6.1627,9.1485a8.0365,8.0365,0,0,0,4.3222-1.5252c.1887-7.6867.2534-9.3385.1887-17.789A14.1015,14.1015,0,0,0,253.8893,61.7853Z"/><path class="cls-2" d="M301.4155,73.9841c0,5.9728,0,7.5613.4446,13.7874l-.318.4446c-4.1283-.0633-5.5268,0-10.1023.1913l-.38-.4446V85.6117a13.1331,13.1331,0,0,1-8.8306,3.367,10.7265,10.7265,0,0,1-11.1209-11.1816,10.16,10.16,0,0,1,4.7669-8.7052c3.81-2.3511,7.37-3.0491,14.9933-4.0663a4.0125,4.0125,0,0,0-.8247-2.7311c-.8272-.8272-1.7811-1.2072-4.1309-1.2072-4.2576,0-8.3859,1.6518-10.609,2.5411l-.5093-.2546.318-6.9254.38-.5079a38.6628,38.6628,0,0,1,12.4548-2.0965c8.1325,0,10.6736,2.5411,11.9429,4.5742,1.6518,2.6691,1.6518,5.1469,1.59,10.865Zm-10.42-2.2865c-4.32.5713-9.34,1.2706-9.34,5.4635,0,2.6691,1.9078,3.8763,4.193,3.8763a10.292,10.292,0,0,0,5.1468-1.6518Z"/><path class="cls-2" d="M338.7332,88.2161c-4.7668,0-5.974,0-10.3557.1913l-.3179-.3813.1266-2.4778a11.64,11.64,0,0,1-8.3859,3.43,13.3883,13.3883,0,0,1-8.3238-2.7957c-3.7484-3.1124-5.0822-8.0693-5.0822-13.0248,0-6.5441,1.8405-11.8176,6.2894-15.2479,4.8289-3.813,10.8-3.685,15.5646-3.5583.0646-7.2434,0-8.8319-.38-14.8033l.3179-.3813,10.4824-1.6519.4446.3813c-.2533,8.3859-.5066,15.3113-.5066,32.0844,0,8.3238.1887,12.1355.4446,17.8536ZM326.09,61.7853c-7.1167,0-8.5152,5.4648-8.5152,10.357,0,1.27,0,9.1485,6.1628,9.1485a8.0368,8.0368,0,0,0,4.3222-1.5252c.1887-7.6867.2533-9.3385.1887-17.789A14.1036,14.1036,0,0,0,326.09,61.7853Z"/><path class="cls-2" d="M38.883,112.3747c-.062,7.1166-.1266,14.1686-.1266,21.2853,0,7.6233.0646,13.8507.1266,23.0625l-.3166.318c-3.3671,0-4.511,0-8.3872.1912l-.4447-.3179-5.6535-8.2592-6.354-9.34c-4.3209-6.2907-5.3382-7.9426-8.3239-12.8981l.3813,8.5138.19,7.8146.6359,13.9141-.3179.3813c-3.6837,0-5.0189,0-9.2752.1912l-.3179-.3812c.0633-6.1628.1912-12.39.1912-18.6163,0-8.5138-.1912-15.82-.5092-25.6682l.318-.3813c4.6375.0633,5.4648.0633,10.4823-.1913l.4447.3179c1.59,2.5411,2.5424,3.94,7.3079,11.183l5.7815,8.45c3.24,4.8276,3.5583,5.3368,5.4,8.4492l-.2546-10.4823-.2533-8.7685-.4447-8.5772.318-.3813c3.94.0633,5.0189,0,9.0218-.1913Z"/><path class="cls-2" d="M74.4533,142.8085c0,5.9727,0,7.5612.4446,13.7873l-.3179.4447c-4.1309-.0634-5.5282,0-10.1024.1912l-.3813-.4446V154.436a13.1431,13.1431,0,0,1-8.8318,3.367,10.7244,10.7244,0,0,1-11.1183-11.1816,10.163,10.163,0,0,1,4.7642-8.7051c3.813-2.3511,7.37-3.0491,14.9959-4.0663a4.0067,4.0067,0,0,0-.8272-2.7324c-.8246-.8259-1.7785-1.2059-4.13-1.2059-4.2563,0-8.3872,1.6518-10.61,2.5411l-.5079-.2547.3166-6.9253.3826-.508a38.6488,38.6488,0,0,1,12.4522-2.0965c8.1326,0,10.6737,2.5411,11.9455,4.5743,1.6519,2.6691,1.6519,5.1468,1.5872,10.865Zm-10.42-2.2865c-4.3209.5713-9.34,1.27-9.34,5.4635,0,2.6691,1.9052,3.8763,4.1929,3.8763A10.3012,10.3012,0,0,0,64.033,148.21Z"/><path class="cls-2" d="M106.2106,148.21l-.2546,7.6233-.3813.3813a26.602,26.602,0,0,1-8.1959,1.3985c-14.2953,0-18.107-9.9123-18.107-17.219,0-6.4807,2.9211-17.789,17.8524-17.789a26.3769,26.3769,0,0,1,8.8951,1.6519l.318.3813c-.508,3.367-.5713,4.2562-.8259,7.6233l-.6347.1913c-1.9077-1.2706-3.4316-2.2878-6.2273-2.2878-6.1628,0-8.1959,5.3368-8.1959,9.9757,0,3.8116,1.4618,9.7844,8.64,9.7844a11.3164,11.3164,0,0,0,6.6074-2.0331Z"/><path class="cls-2" d="M122.2431,157.0405c-5.1468-.0634-6.4161,0-10.9916.1912l-.3813-.4446c.19-5.21.3813-9.0864.3813-16.0118a120.7987,120.7987,0,0,0-.698-16.0738l.38-.3813,10.9283-1.9065.4446.508c-.0633,5.4014-.19,10.8649-.19,16.2651,0,8.7685.2534,12.5168.5713,17.409Zm-.8893-40.2816c-4.5109.5726-5.7181.6993-10.039,1.4619l-.4446-.3813c.0633-1.2072.0633-2.4778.0633-3.685,0-1.5252-.0633-2.8591-.19-5.1468l.3813-.4447,10.3557-1.27.3813.3813-.19,8.6405Z"/><path class="cls-2" d="M144.0919,157.803c-9.0864,0-12.1988-3.43-13.8507-5.9081-2.3523-3.4316-2.987-7.5613-2.987-11.6275,0-11.6909,6.2261-17.5991,17.2824-17.5991a22.8126,22.8126,0,0,1,7.75,1.2073c8.8952,3.4937,8.8952,13.7873,8.8952,16.2651C161.1817,149.6705,157.56,157.803,144.0919,157.803Zm4.255-26.6208a5.3347,5.3347,0,0,0-4.0662-1.97,5.2639,5.2639,0,0,0-4.6376,2.8591c-1.2693,2.2231-1.2693,6.2894-1.2693,8.1325,0,6.1628,1.2072,8.3226,2.2852,9.4031a5.1426,5.1426,0,0,0,3.56,1.4619c5.2735,0,5.9715-5.7828,5.9715-10.9916C150.19,136.6457,149.8721,133.0241,148.3469,131.1822Z"/><path class="cls-2" d="M197.0441,156.9771c-5.0848,0-6.1628.0634-10.3583.1913l-.38-.3813c0-2.1611.0646-4.3842.0646-6.544,0-2.4145-.0646-11.12-.1913-13.2161-.1913-2.2878-.5092-6.0361-4.0042-6.0361a8.7236,8.7236,0,0,0-4.8909,1.97c.062,11.3729.1266,13.8507.5092,23.6351l-.3826.3813c-5.0822,0-6.036,0-10.6116.1913l-.38-.3813c.0646-4.0663.1267-8.1325.1267-12.1988a176.4794,176.4794,0,0,0-.8893-19.8868l.3826-.4446c4.7643-.636,5.8448-.826,10.7357-1.8432l.6359.4446-.1266,3.495c2.9211-1.7151,6.2894-3.7483,10.1644-3.7483,2.2878,0,5.9094.508,7.8792,3.8117,1.59,2.6044,1.6519,5.5281,1.7165,11.6275V143c.1267,6.226.1267,8.0046.4446,13.596Z"/><path class="cls-2" d="M231.8828,142.8085c0,5.9727,0,7.5612.4446,13.7873l-.3179.4447c-4.1284-.0634-5.5269,0-10.1024.1912l-.38-.4446V154.436a13.1389,13.1389,0,0,1-8.83,3.367,10.7265,10.7265,0,0,1-11.1209-11.1816,10.16,10.16,0,0,1,4.7668-8.7051c3.81-2.3511,7.37-3.0491,14.9933-4.0663a4.0185,4.0185,0,0,0-.8246-2.7324c-.8272-.8259-1.7811-1.2059-4.1309-1.2059-4.2576,0-8.3859,1.6518-10.6091,2.5411l-.5092-.2547.3179-6.9253.38-.508a38.666,38.666,0,0,1,12.4548-2.0965c8.1326,0,10.6737,2.5411,11.9429,4.5743,1.6519,2.6691,1.6519,5.1468,1.59,10.865Zm-10.42-2.2865c-4.32.5713-9.34,1.27-9.34,5.4635,0,2.6691,1.9078,3.8763,4.1929,3.8763a10.2925,10.2925,0,0,0,5.1469-1.6519Z"/><path class="cls-2" d="M249.306,157.0405c-4.6375-.0634-6.354,0-10.609.1912l-.3826-.4446c.2559-6.2907.3826-10.1024.3826-16.9644,0-3.7483,0-7.4979-.0646-11.2462-.1267-10.2924-.1913-12.3889-.8247-20.14l.2534-.3813L248.926,106.34l.4447.4446c-.256,6.862-.318,9.7211-.318,15.7559,0,20.0781.318,26.7488.6359,34.0554Z"/><path class="cls-2" d="M306.42,157.0405c-4.7642,0-5.9714,0-10.3557.1912l-.318-.3812.1267-2.4778a11.64,11.64,0,0,1-8.3859,3.43,13.397,13.397,0,0,1-8.3238-2.7957c-3.7484-3.1124-5.0823-8.0692-5.0823-13.0248,0-6.544,1.8432-11.8175,6.29-15.2479,4.8288-3.8129,10.8029-3.685,15.5671-3.5583.0647-7.2433,0-8.8318-.3825-14.8033l.3179-.3813,10.485-1.6518.4446.38c-.2559,8.3872-.5093,15.3125-.5093,32.0856,0,8.3239.1913,12.1355.4447,17.8537ZM293.7766,130.61c-7.114,0-8.5125,5.4648-8.5125,10.357,0,1.2706,0,9.1485,6.1627,9.1485a8.0277,8.0277,0,0,0,4.32-1.5252c.1913-7.6866.256-9.34.1913-17.789A14.1179,14.1179,0,0,0,293.7766,130.61Z"/><path class="cls-2" d="M341.5716,147.8286l-.4446,7.1787-.3826.508a24.5145,24.5145,0,0,1-10.927,2.2877c-4.5755,0-13.2174-.7625-16.9011-9.34a21.1552,21.1552,0,0,1-1.5251-8.3226c0-10.9916,6.6074-17.5357,16.5831-17.5357a16.2752,16.2752,0,0,1,4.5109.5713c2.1611.508,7.052,2.0331,9.2751,9.53a37.1979,37.1979,0,0,1,1.0185,9.4677l-.3826.4447L321.8735,143a9.037,9.037,0,0,0,1.3986,3.8749c1.5251,2.2878,4.1309,3.495,7.9412,3.495a19.4215,19.4215,0,0,0,9.9137-2.7324Zm-9.0864-11.8175a7.7655,7.7655,0,0,0-.9539-4.3843,4.875,4.875,0,0,0-6.6074-1.5251c-2.4144,1.5251-2.8591,4.1929-3.05,6.1627Z"/><path class="cls-2" d="M379.241,112.3747c-.1888,8.7685-.318,17.537-.318,26.3041,0,9.2132.1292,12.1356.4446,17.98l-.38.3813c-5.2735,0-6.5453,0-11.31.1912l-.3179-.3812c.2533-6.6074.3826-10.4837.3826-17.98,0-16.2018-.1913-19.4421-.5739-26.3041l.2559-.3813c4.5729.0633,6.0361.0633,11.4983-.1913Z"/><path class="cls-2" d="M417.1455,156.9771c-5.0848,0-6.1627.0634-10.3583.1913l-.38-.3813c0-2.1611.0647-4.3842.0647-6.544,0-2.4145-.0647-11.12-.1913-13.2161-.1913-2.2878-.5093-6.0361-4.0043-6.0361a8.7239,8.7239,0,0,0-4.8909,1.97c.0621,11.3729.1267,13.8507.5093,23.6351l-.3826.3813c-5.0822,0-6.0361,0-10.6116.1913l-.38-.3813c.0646-4.0663.1266-8.1325.1266-12.1988a176.51,176.51,0,0,0-.8892-19.8868l.3826-.4446c4.7642-.636,5.8447-.826,10.7357-1.8432l.6359.4446-.1267,3.495c2.9211-1.7151,6.2894-3.7483,10.1644-3.7483,2.2878,0,5.9095.508,7.8793,3.8117,1.59,2.6044,1.6518,5.5281,1.7164,11.6275V143c.1267,6.226.1267,8.0046.4447,13.596Z"/><path class="cls-2" d="M434.4809,148.5266a26.6639,26.6639,0,0,0,6.2894,1.5885l1.5252.2546c4.1283.9526,11.1183,2.4778,11.1183,10.4837,0,6.1628-5.3382,12.0076-16.9657,12.0076-2.4765,0-7.3054-.1267-10.8624-2.6678a8.9561,8.9561,0,0,1-3.94-7.18c0-4.13,2.9857-6.544,4.8909-8.0059l-2.6678-1.9052V152.53c1.4606-2.6044,2.4145-4.32,4.193-7.7512a10.9229,10.9229,0,0,1-4.2576-3.5583,10.296,10.296,0,0,1-1.8405-6.1628A10.6576,10.6576,0,0,1,426.03,126.48c4.1284-3.43,10.1645-3.3037,14.6754-3.177l2.9237.0633c4.0016.0646,5.3355,0,10.229-.19l.38.318-.4446,6.3527-.38.318-4.3843-.2533a8.3138,8.3138,0,0,1,1.7165,5.5268c0,6.1627-4.8289,8.8951-8.1326,10.039a17.8523,17.8523,0,0,1-7.1166.826ZM432.829,157.93a6.0412,6.0412,0,0,0-1.8431,4.1943c0,2.2231,1.5872,4.8922,6.2894,4.8922,4.193,0,5.7828-1.97,5.7828-3.8763a2.8008,2.8008,0,0,0-1.2719-2.4778c-.7626-.6346-.8246-.6346-6.4807-2.0965Zm3.6837-28.654c-2.35,0-4.2576,2.0332-4.2576,5.21a8.7242,8.7242,0,0,0,.5739,3.3037,4.1084,4.1084,0,0,0,3.81,2.6678c.8892,0,4.0042-.4447,4.0663-5.59C440.77,132.0715,439.4364,129.2757,436.5127,129.2757Z"/><path class="cls-2" d="M486.0035,147.8286l-.4446,7.1787-.38.508a24.5353,24.5353,0,0,1-10.93,2.2877c-4.573,0-13.2148-.7625-16.9011-9.34a21.1559,21.1559,0,0,1-1.5226-8.3226c0-10.9916,6.6074-17.5357,16.58-17.5357a16.2921,16.2921,0,0,1,4.5135.5713c2.1585.508,7.052,2.0331,9.2752,9.53a37.1984,37.1984,0,0,1,1.0159,9.4677l-.38.4447L466.308,143a8.9677,8.9677,0,0,0,1.3985,3.8749c1.5252,2.2878,4.1283,3.495,7.9413,3.495a19.4192,19.4192,0,0,0,9.9111-2.7324ZM476.92,136.0111a7.7647,7.7647,0,0,0-.9539-4.3843,4.8749,4.8749,0,0,0-6.6073-1.5251c-2.4145,1.5251-2.8591,4.1929-3.05,6.1627Z"/><path class="cls-2" d="M523.0809,156.9771c-5.0848,0-6.1628.0634-10.3583.1913l-.38-.3813c0-2.1611.0646-4.3842.0646-6.544,0-2.4145-.0646-11.12-.1913-13.2161-.1913-2.2878-.5093-6.0361-4.0043-6.0361a8.7239,8.7239,0,0,0-4.8909,1.97c.0621,11.3729.1267,13.8507.5093,23.6351l-.3826.3813c-5.0822,0-6.0361,0-10.6116.1913l-.38-.3813c.0646-4.0663.1266-8.1325.1266-12.1988a176.51,176.51,0,0,0-.8892-19.8868l.3826-.4446c4.7642-.636,5.8448-.826,10.7357-1.8432l.6359.4446-.1267,3.495c2.9211-1.7151,6.29-3.7483,10.1644-3.7483,2.2878,0,5.9095.508,7.8793,3.8117,1.59,2.6044,1.6518,5.5281,1.7165,11.6275V143c.1266,6.226.1266,8.0046.4446,13.596Z"/><path class="cls-2" d="M540.9048,157.0405c-5.1469-.0634-6.4187,0-10.9917.1912l-.3825-.4446c.1912-5.21.3825-9.0864.3825-16.0118a120.2526,120.2526,0,0,0-.7005-16.0738l.3826-.3813,10.927-1.9065.4446.508c-.062,5.4014-.1913,10.8649-.1913,16.2651,0,8.7685.2559,12.5168.5739,17.409Zm-.8919-40.2816c-4.5109.5726-5.7181.6993-10.0377,1.4619l-.4446-.3813c.0646-1.2072.0646-2.4778.0646-3.685,0-1.5252-.0646-2.8591-.1913-5.1468l.38-.4447,10.3583-1.27.38.3813-.1913,8.6405Z"/><path class="cls-2" d="M575.9916,147.8286l-.4446,7.1787-.38.508a24.535,24.535,0,0,1-10.93,2.2877c-4.5729,0-13.2147-.7625-16.901-9.34a21.1541,21.1541,0,0,1-1.5226-8.3226c0-10.9916,6.6074-17.5357,16.5805-17.5357a16.2926,16.2926,0,0,1,4.5135.5713c2.1585.508,7.052,2.0331,9.2751,9.53a37.1985,37.1985,0,0,1,1.016,9.4677l-.38.4447L556.2962,143a8.9677,8.9677,0,0,0,1.3985,3.8749c1.5251,2.2878,4.1283,3.495,7.9412,3.495a19.4189,19.4189,0,0,0,9.9111-2.7324Zm-9.0838-11.8175a7.7647,7.7647,0,0,0-.9539-4.3843,4.875,4.875,0,0,0-6.6074-1.5251c-2.4144,1.5251-2.8591,4.1929-3.05,6.1627Z"/><path class="cls-2" d="M600.1179,133.7233a4.7575,4.7575,0,0,0-2.6031-.8892c-4.3222,0-4.3222,4.1929-4.3222,7.052,0,4.3842.3825,11.5629.6359,16.71l-.318.4447c-5.0822-.0634-6.0981,0-10.8.1912l-.3826-.3812c.1293-5.2735.1913-10.4837.1913-15.6939,0-8.8318-.1913-11.6909-.5713-16.4551l.38-.3813c4.64-.6993,5.8474-.8893,10.547-1.9065l.5093.508-.1913,5.8461c2.0344-4.7022,4.9555-6.1628,7.5612-6.1628.4447,0,.8893.0633,1.3339.0633l.3826.4447-1.7785,10.3557Z"/><path class="cls-2" d="M617.1973,157.0405c-5.1468-.0634-6.4186,0-10.9916.1912l-.3826-.4446c.1913-5.21.3826-9.0864.3826-16.0118a120.2526,120.2526,0,0,0-.7005-16.0738l.3825-.3813,10.927-1.9065.4447.508c-.0621,5.4014-.1913,10.8649-.1913,16.2651,0,8.7685.2559,12.5168.5739,17.409Zm4.32-48.6041c-2.0344,3.1124-4.8935,7.4966-6.8633,10.737l-.4446.2546h-6.8607l-.2533-.3813a69.3879,69.3879,0,0,0,3.8749-10.61l.318-.318,10.0378-.1267Z"/><path class="cls-2" d="M651.7827,142.8085c0,5.9727,0,7.5612.4446,13.7873l-.3179.4447c-4.1284-.0634-5.5269,0-10.1024.1912l-.38-.4446V154.436a13.1389,13.1389,0,0,1-8.8305,3.367,10.7265,10.7265,0,0,1-11.1209-11.1816,10.16,10.16,0,0,1,4.7668-8.7051c3.81-2.3511,7.37-3.0491,14.9933-4.0663a4.0185,4.0185,0,0,0-.8246-2.7324c-.8272-.8259-1.7811-1.2059-4.1309-1.2059-4.2576,0-8.3859,1.6518-10.6091,2.5411l-.5092-.2547.3179-6.9253.38-.508a38.666,38.666,0,0,1,12.4548-2.0965c8.1326,0,10.6737,2.5411,11.9429,4.5743,1.6519,2.6691,1.6519,5.1468,1.59,10.865Zm-10.42-2.2865c-4.32.5713-9.34,1.27-9.34,5.4635,0,2.6691,1.9078,3.8763,4.1929,3.8763a10.2925,10.2925,0,0,0,5.1469-1.6519Z"/><path class="cls-2" d="M7.4023,179.6958c-.1655,3.7251-.2766,8.1171-.2766,17.68,0,10.6749.1111,15.2337.4446,20.9608l-.3335.3891c-2.4467.0556-3.2261.0556-6.1718.1667l-.3347-.389c.1111-3.3916.2223-6.3386.2223-13.5108,0-8.3949,0-16.7356-.3878-25.075l.2766-.4446c2.4481,0,3.3373,0,6.1731-.1667Z"/><path class="cls-2" d="M39.33,214.1662c-.1654,1.8909-.1654,2.28-.2766,4.1709l-.39.3891c-10.8417,0-12.5659.0556-23.1284.1667l-.2792-.389c.168-4.3933.3334-7.3946.3334-17.5693,0-9.3411,0-14.6779-.3877-21.072l.3335-.3891c10.9528-.0556,13.1217-.0556,23.3507-.1667l.3335.389c-.1655,1.6674-.2766,2.3343-.3878,4.3364l-.3347.3891c-7.1723-.2223-9.5634-.2223-16.6232-.2779-.168,5.1145-.168,6.7276-.168,11.8421,6.84.0556,8.952,0,15.7352-.1111l.2779.389a39.399,39.399,0,0,0-.2779,4.2821l-.3335.3891c-6.45-.1667-7.8405-.1667-15.4017-.1667-.1112,6.45-.0543,8.0059,0,13.2871,8.3962,0,10.12,0,17.2914-.2779Z"/><path class="cls-2" d="M68.6369,214.1662c-.1667,1.8909-.1667,2.28-.2779,4.1709l-.389.3891c-10.8417,0-12.5659.0556-23.13.1667l-.2779-.389c.1667-4.3933.3334-7.3946.3334-17.5693,0-9.3411,0-14.6779-.389-21.072l.3335-.3891c10.9541-.0556,13.1217-.0556,23.352-.1667l.3335.389c-.1668,1.6674-.2779,2.3343-.3891,4.3364l-.3347.3891c-7.171-.2223-9.5621-.2223-16.6232-.2779-.1667,5.1145-.1667,6.7276-.1667,11.8421,6.8387.0556,8.952,0,15.7352-.1111l.2766.389a39.1088,39.1088,0,0,0-.2766,4.2821l-.3335.3891c-6.45-.1667-7.84-.1667-15.4017-.1667-.1112,6.45-.0556,8.0059,0,13.2871,8.3962,0,10.1191,0,17.2914-.2779Z"/><path class="cls-2" d="M97.9436,214.1662c-.168,1.8909-.168,2.28-.2791,4.1709l-.3891.3891c-10.8417,0-12.5646.0556-23.13.1667l-.2766-.389c.1654-4.3933.3334-7.3946.3334-17.5693,0-9.3411,0-14.6779-.39-21.072l.3335-.3891c10.9541-.0556,13.1217-.0556,23.3533-.1667l.3335.389c-.168,1.6674-.2792,2.3343-.39,4.3364l-.3334.3891c-7.1722-.2223-9.5621-.2223-16.6245-.2779-.1654,5.1145-.1654,6.7276-.1654,11.8421,6.8374.0556,8.9507,0,15.7339-.1111l.2779.389a39.45,39.45,0,0,0-.2779,4.2821l-.3335.3891c-6.45-.1667-7.8392-.1667-15.4-.1667-.1112,6.45-.0569,8.0059,0,13.2871,8.3949,0,10.1179,0,17.2914-.2779Z"/><path class="cls-2" d="M134.5738,196.4857c4.0585,1.78,9.4509,4.1154,9.4509,11.2321,0,6.2261-4.6143,11.8421-14.2875,11.8421a24.09,24.09,0,0,1-11.01-2.4468l-.2223-.389c.2223-1.9453.2792-3.0026.4447-5.1145l.5557-.2224a16.4036,16.4036,0,0,0,9.7857,3.28c5.7272,0,8.1184-2.947,8.1184-6.283,0-3.8918-3.2262-5.3937-6.84-6.7832l-2.7789-1.2227c-3.9473-1.8354-9.23-4.2265-9.23-11.01a10.2824,10.2824,0,0,1,1.7229-5.8371c2.5592-3.6694,7.1735-4.8935,11.6767-4.8935a29.0761,29.0761,0,0,1,10.0067,1.78l.2792.4447c-.2223,2.1133-.2792,2.8914-.4446,4.8922l-.4446.2236a18.353,18.353,0,0,0-9.1744-2.5579c-4.6143,0-7.5057,2.1675-7.5057,5.448a4.9908,4.9908,0,0,0,2.8345,4.3933,30.1,30.1,0,0,0,4.2809,2.0008Z"/><path class="cls-2" d="M161.7168,214.3342c-.1654,1.8341-.1654,2.2231-.2223,3.8362l-.2766.3335a15.1377,15.1377,0,0,1-4.1723.5c-1.3339,0-4.8366,0-6.5582-2.8914-1.003-1.6118-1.003-2.9469-1.003-9.5078l.1111-12.2312c-1.9439,0-2.0008.0556-4.0016.1112l-.2224-.3335c.1112-1.78.1112-2.2244.1112-4.0029l.3335-.3335c1.2227,0,1.9465.0556,3.7793,0-.0543-1.1684-.0543-2.3912-.0543-3.5583q-.0852-1.5859-.168-3.1693l.2792-.389c2.5023-.6127,3.1124-.7794,5.6716-1.5575l.3877.2779c-.1654,3.6694-.2223,4.392-.2223,8.4518,2.3369-.0556,3.0039-.0556,6.1731-.1668l.2766.3335c-.1111,1.4451-.1654,2.0564-.1654,3.9474l-.2792.3335c-2.7789-.0556-3.1124-.1112-6.0594-.1112l-.1111,10.3415c.0543.6669.0543,3.8362.0543,4.6143,0,4.0585.5015,5.3381,3.28,5.3381a7.5786,7.5786,0,0,0,2.67-.5015Z"/><path class="cls-2" d="M190.8064,189.9817c-.1112,4.2253-.1655,8.1727-.1655,12.6758,0,6.8388.1655,10.9529.2766,13.3441,0,.7781.0569,1.5562.1112,2.3355l-.2223.3335c-2.6678.0556-3.1124.1112-5.6716.2223l-.3335-.3334.0569-2.3356a14.2076,14.2076,0,0,1-8.73,3.1692,10.3739,10.3739,0,0,1-6.3386-1.8909c-3.557-2.89-3.557-7.6169-3.6139-11.9533v-3.4472c-.1111-7.95-.1111-8.8395-.2766-11.8421l.2766-.389c2.6135-.0556,3.115-.0556,5.7285-.2779l.3335.389-.2224,12.1756c0,1.5019-.0568,2.6135,0,5.2826.0543,2.3343.1655,7.3389,5.78,7.3389a11.0924,11.0924,0,0,0,6.9512-2.8914c.0543-3.0025.0543-5.56.0543-8.7852a114.6467,114.6467,0,0,0-.3878-12.8981l.3335-.3891c2.5566-.0556,3.1693-.0556,5.7259-.2223Z"/><path class="cls-2" d="M216.326,175.5261c2.8358-.5015,3.3916-.6126,5.8939-1.1684l.39.3335c-.39,7.7293-.4446,21.5166-.4446,27.0771,0,8.6172.2223,12.7326.4446,16.5688l-.2792.3891c-2.4454,0-3.1124.0556-5.6716.1667l-.3877-.3334.1111-2.0577a11.7634,11.7634,0,0,1-7.6724,2.78c-7.3958,0-12.509-5.8384-12.509-14.2889,0-6.0606,2.5566-9.8968,4.8909-11.9532,4.0585-3.6708,9.3423-3.8376,12.2324-3.8376,1.1685,0,1.7243,0,3.2236.1112a123.5324,123.5324,0,0,0-.4989-13.4539Zm.0568,18.2919c-.9461-.0556-1.613-.1668-2.7789-.1668-1.7242,0-5.395.1112-8.0628,2.6122-1.2227,1.1684-3.2261,3.7806-3.2261,8.73a10.54,10.54,0,0,0,2.0577,6.8388,7.3229,7.3229,0,0,0,5.7285,2.5023,9.2194,9.2194,0,0,0,6.2248-2.4468C216.4371,204.6041,216.4371,202.9354,216.3828,193.818Z"/><path class="cls-2" d="M252.2763,211.943c-.2766,2.2232-.3335,2.78-.4447,4.9478l-.3334.3891a18.1639,18.1639,0,0,1-8.8952,2.1132c-9.12,0-14.8459-5.2269-14.8459-14.9,0-10.3415,6.2273-15.4017,13.5094-15.4017a11.6126,11.6126,0,0,1,9.12,3.8362c3.1693,3.7819,3.0581,9.2855,3.0012,11.7322l-.3877.3335c-8.6755-.0556-10.1748-.0556-19.2948,0a10.84,10.84,0,0,0,2.1145,6.95,9.0147,9.0147,0,0,0,7.171,3.0026,14.4783,14.4783,0,0,0,4.8366-.835,14.0346,14.0346,0,0,0,4.0042-2.4455Zm-5.17-14.5112a6.2165,6.2165,0,0,0-6.062-4.3364c-3.1124,0-6.7806,2.112-7.3389,7.6725,6.7288.0555,8.8408,0,13.9566-.0556A12.2046,12.2046,0,0,0,247.1062,197.4318Z"/><path class="cls-2" d="M283.4339,218.6706c-2.67.0556-3.0039.0556-5.56.2223l-.39-.389c0-.6114.0568-1.224.0568-1.8354.0543-2.7246.0543-5.448.0543-8.1726,0-8.563-.0543-9.1188-.3334-10.286-1.0547-4.2252-4.224-4.2252-5.0021-4.2252-3.3373,0-5.8939,1.9452-7.3958,3.1137-.0543,9.6732.0568,14.7335.4446,21.2387l-.3335.3335c-2.7246.0556-3.1693.0556-5.837.2223l-.2792-.389c.0569-3.1137.168-6.1162.168-10.23,0-8.8964-.39-13.6219-.6669-17.3469l.3334-.3891c2.779-.5,3.2805-.6113,5.894-1.1115l.3877.389-.0543,2.89a16.8308,16.8308,0,0,1,9.7844-3.4472,9.61,9.61,0,0,1,4.6144,1.0573,7.5385,7.5385,0,0,1,3.2261,3.6139c.7212,1.6674.7781,3.336.8324,6.7832v6.5053c.168,6.5039.2223,9.0063.39,11.1195Z"/><path class="cls-2" d="M303.5326,214.3342c-.168,1.8341-.168,2.2231-.2223,3.8362l-.2792.3335a15.1163,15.1163,0,0,1-4.17.5c-1.3339,0-4.8366,0-6.5608-2.8914-1-1.6118-1-2.9469-1-9.5078l.1111-12.2312c-1.9465,0-2.0008.0556-4.0042.1112l-.2223-.3335c.1111-1.78.1111-2.2244.1111-4.0029l.3335-.3335c1.2253,0,1.9465.0556,3.7819,0-.0569-1.1684-.0569-2.3912-.0569-3.5583q-.0813-1.5859-.1654-3.1693l.2766-.389c2.5023-.6127,3.115-.7794,5.6716-1.5575l.39.2779c-.168,3.6694-.2223,4.392-.2223,8.4518,2.3343-.0556,3.0013-.0556,6.1705-.1668l.2792.3335c-.1111,1.4451-.168,2.0564-.168,3.9474l-.2766.3335c-2.7815-.0556-3.115-.1112-6.0619-.1112l-.1112,10.3415c.0569.6669.0569,3.8362.0569,4.6143,0,4.0585.4989,5.3381,3.28,5.3381a7.5743,7.5743,0,0,0,2.6678-.5015Z"/><path class="cls-2" d="M325.0971,218.8929l-.2792-.389c.1112-2.6691.168-5.227.168-10.2859,0-2.3912.0543-14.011.0543-16.6245,0-5.8383-.1654-8.84-.3877-11.7309l.2766-.3891,7.45-.1111c1.1141-.0556,2.8358-.0556,4.3377-.0556,3.28,0,6.7832.1111,9.5621,1.7229a8.4133,8.4133,0,0,1,4.392,7.6169c0,1.9465-.5558,7.5057-8.2825,9.3966a13.2577,13.2577,0,0,1,5.1158,1,8.66,8.66,0,0,1,5.2813,8.3963c0,5.1145-3.1693,8.7284-7.6182,10.34-2.9469,1.0573-5.8939,1.0573-10.2859,1.0573Zm6.0051-22.63c5.002.0556,8.8382,0,11.1751-1.8341a6.468,6.468,0,0,0,2.28-4.8366,5.8448,5.8448,0,0,0-1.5587-3.9487c-1.944-1.89-5.3925-1.89-6.6721-1.89-1.7785,0-3.5027.0555-5.2243.1667Zm0,4.6712c0,6.3385,0,7.2834.2223,13.3427h1.0547c4.1722,0,7.5612.0569,9.73-.8337a6.2929,6.2929,0,0,0,4.17-6.1149c0-6.5053-7.1709-6.5608-9.8413-6.5608-.4989,0-1,0-4.0016.1111Z"/><path class="cls-2" d="M371.4212,195.5965a5.7221,5.7221,0,0,0-2.2232-.5,4.1519,4.1519,0,0,0-2.3368.7225c-2.2775,1.613-2.2775,4.0585-2.2775,9.8413,0,6.2829.1655,9.5634.3878,12.677l-.2766.3891c-2.6135,0-3.2262.0556-5.8939.1667l-.2792-.3334c.0569-4.2253.1111-8.0628.1111-13.2329a119.4408,119.4408,0,0,0-.4989-14.4l.3335-.3891c2.112-.389,3.4459-.6669,5.7828-1.1115l.3334.3334-.2792,4.7255c.667-1.78,2.0577-5.3381,6.7832-5.3381a5.7523,5.7523,0,0,1,1.5562.1667l.2223.3348c-.5558,2.6677-.6669,3.2235-1.0547,5.67Z"/><path class="cls-2" d="M397.1036,207.2731a104.08,104.08,0,0,0,.3335,11.12l-.2792.2779c-2.6135.0556-3.0581.1112-5.6147.2223l-.2223-.3334.0543-2.0022a11.9037,11.9037,0,0,1-7.7836,2.8358c-5.5579,0-9.4509-3.7806-9.4509-9.2855,0-7.45,6.2273-9.84,16.2341-11.0084l.9461-.1112a6.9436,6.9436,0,0,0-.5015-3.4471c-.5558-1-1.8328-2.0564-4.6143-2.0564a19.8429,19.8429,0,0,0-8.4505,2.112l-.4447-.2779c.1112-2.5579.1112-2.8914.168-4.0586l.3335-.3334a28.6493,28.6493,0,0,1,9.6164-1.8354c4.1154,0,8.12,1.3907,9.2855,5.7272a37.1021,37.1021,0,0,1,.39,6.95Zm-6.2273-4.06c-5.6148.835-10.8417,1.6131-10.8417,6.5609a4.9031,4.9031,0,0,0,5.2812,5.06,8.6659,8.6659,0,0,0,6.0594-2.4467v-9.2855Z"/><path class="cls-2" d="M428.6438,218.6706c-2.6677.0556-3.0012.0556-5.56.2223l-.3878-.389c0-.6114.0543-1.224.0543-1.8354.0569-2.7246.0569-5.448.0569-8.1726,0-8.563-.0569-9.1188-.3335-10.286-1.0573-4.2252-4.2265-4.2252-5.0046-4.2252-3.3348,0-5.8939,1.9452-7.3933,3.1137-.0568,9.6732.0543,14.7335.4447,21.2387l-.3335.3335c-2.7247.0556-3.1693.0556-5.84.2223l-.2766-.389c.0542-3.1137.1654-6.1162.1654-10.23,0-8.8964-.3878-13.6219-.6669-17.3469l.3334-.3891c2.7815-.5,3.28-.6113,5.8939-1.1115l.39.389-.0569,2.89a16.8407,16.8407,0,0,1,9.787-3.4472,9.6159,9.6159,0,0,1,4.6143,1.0573,7.52,7.52,0,0,1,3.2236,3.6139c.7238,1.6674.7781,3.336.8349,6.7832v6.5053c.1655,6.5039.2224,9.0063.3878,11.1195Z"/><path class="cls-2" d="M456.3375,212.11c-.2223,2.3911-.2766,2.669-.4447,4.9477l-.3877.3891a15.6612,15.6612,0,0,1-7.6724,1.891c-8.3963,0-13.8456-6.0607-13.8456-14.7335,0-8.8409,5.3382-15.5129,13.9567-15.5129a18.2726,18.2726,0,0,1,7.6156,1.78l.2223.389c-.2223,2.0022-.2766,2.7247-.3878,4.392l-.4446.2224a10.5466,10.5466,0,0,0-6.1731-2.1676c-4.6143,0-8.6728,3.5583-8.6728,10.675,0,7.5612,4.2808,10.2859,8.6185,10.2859a11.0175,11.0175,0,0,0,7.1709-2.78Z"/><path class="cls-2" d="M485.2435,218.6706c-2.6678.0556-3.0013.0556-5.56.2223l-.3877-.389.0543-1.8354c.0568-2.8914.0568-5.837.0568-8.7284l-.0568-5.9495a17.1644,17.1644,0,0,0-.2766-3.7807c-.6127-2.5579-2.1689-4.2252-5.0047-4.2252-3.1693,0-5.6147,1.7785-7.45,3.1137-.0543,9.6732.0569,14.7335.39,21.2387l-.2791.3335c-2.5567.0556-3.2236.0556-5.9482.2223l-.2792-.389c.1111-3.9474.2792-8.952.2792-19.627,0-4.67-.0569-9.34-.1112-14.011-.1111-4.8922-.2792-6.5053-.4446-9.0063l.2766-.3335c2.67-.4459,3.56-.6126,6.0619-1.1684l.3335.389c-.3335,5.95-.3335,11.9546-.3335,17.9584a17.9415,17.9415,0,0,1,9.9525-3.4472,9.429,9.429,0,0,1,3.725.6683,7.4549,7.4549,0,0,1,4.5575,5.2812c.2791,1.1116.2791,1.78.39,5.5049v6.5053l.0543,2.6121c.1111,4.6712.1111,5.4493.3335,8.5074Z"/><rect class="cls-3" x="746.411" width="3.9706" height="252.7971"/><g id="SPS"><ellipse class="cls-4" cx="1096.0732" cy="147.9349" rx="103.9271" ry="11.6347"/><path class="cls-5" d="M1105.4183,66.44a1.23,1.23,0,0,0-.1268,2.457c19.7665,1.0257,36.7069,7.3876,41.7622,14.9212q.2334-1.7168.35-3.4676C1140.5366,73.0164,1124.6355,67.4374,1105.4183,66.44Z"/><path class="cls-6" d="M996.9413,120.1989a27.2309,27.2309,0,0,1-4.1451-.267.5416.5416,0,0,1,.1907-1.0663,37.74,37.74,0,0,0,19.6853-2.9417c13.6966-5.9888,23.1477-19.9265,27.3308-40.306,3.1729-15.4545,11.3685-35.9359,32.3951-45.7425a53.7626,53.7626,0,0,1,24.0819-5.0763.542.542,0,0,1,.5.58.5366.5366,0,0,1-.5809.4994,52.6552,52.6552,0,0,0-23.5883,4.9994c-11.3634,5.3128-26.0941,17.4249-31.7456,44.9578C1032.8,116.098,1007.0638,120.1984,996.9413,120.1989Z"/><path class="cls-7" d="M1096.9337,130.031a53.0564,53.0564,0,1,1,53.0554-53.0564A53.1167,53.1167,0,0,1,1096.9337,130.031Zm0-103.6529a50.5966,50.5966,0,1,0,50.5955,50.5965A50.6536,50.6536,0,0,0,1096.9337,26.3781Z"/><path class="cls-8" d="M1066.0138,75.013a.5429.5429,0,0,1-.5019-.7451c6.8113-16.8362,17.3776-27.7943,31.4036-32.5708,28.3991-9.672,61.7462,9.5577,62.08,9.753a.5413.5413,0,1,1-.5467.9344c-.3294-.1918-33.2545-19.1741-61.1881-9.66-13.7131,4.671-24.057,15.42-30.7447,31.95A.5412.5412,0,0,1,1066.0138,75.013Z"/><rect class="cls-2" x="1062.4736" y="70.8938" width="7.2905" height="6.5338" transform="translate(1581.0898 -862.2762) rotate(114.8284)"/><rect class="cls-9" x="1134.7355" y="80.0346" width="3.7936" height="3.3999" transform="translate(1694.615 -911.8795) rotate(115.2042)"/><rect class="cls-9" x="1058.2285" y="85.4139" width="3.7936" height="3.3999" transform="translate(1590.395 -834.9862) rotate(115.2042)"/><rect class="cls-9" x="1107.6419" y="32.0881" width="3.5329" height="3.1663" transform="translate(655.9399 -979.387) rotate(64.1472)"/><rect class="cls-10" x="1085.2935" y="85.8642" width="7.9457" height="7.1211" transform="matrix(0.3153, 0.949, -0.949, 0.3153, 830.6712, -972.4729)"/><rect class="cls-10" x="1063.4384" y="40.5601" width="8.8651" height="3.5873" transform="translate(352.036 835.9042) rotate(-50.2187)"/><rect class="cls-2" x="1077.3628" y="117.3902" width="8.8651" height="4.0175" transform="translate(128.5106 -405.7539) rotate(22.5515)"/><path class="cls-11" d="M1101.5012,138.3368q-.9948,0-1.994-.0291a.5469.5469,0,0,1-.5368-.5576.5351.5351,0,0,1,.5708-.5253q.9805.0288,1.96.0291l.236,0h.0032a.5416.5416,0,1,1,.0032,1.0829Zm2.46-.0452a.5415.5415,0,1,1-.02-1.0829q1.1018-.04,2.1992-.1164a.5522.5522,0,0,1,.5921.502.5465.5465,0,0,1-.5134.5788q-1.1161.078-2.2375.1185Zm-6.6486-.0852c-.0127,0-.0244,0-.0361-.0011q-1.1145-.0685-2.229-.1761a.5454.5454,0,0,1-.4974-.5919.5516.5516,0,0,1,.6058-.4858q1.0955.1044,2.1907.173a.5412.5412,0,0,1-.034,1.0819Zm11.0789-.2224a.5412.5412,0,0,1-.0574-1.08q1.0986-.1123,2.1875-.2614a.5512.5512,0,0,1,.625.4609.5438.5438,0,0,1-.4719.6116q-1.108.152-2.2237.2666A.5639.5639,0,0,1,1108.3911,137.984Zm-15.4911-.2006a.613.613,0,0,1-.0744-.0047q-1.1065-.1434-2.21-.3242a.5429.5429,0,0,1-.455-.6236.5528.5528,0,0,1,.6378-.4448c.7228.1185,1.4488.2245,2.1737.3191a.5441.5441,0,0,1,.4762.6079A.55.55,0,0,1,1092.9,137.7834Zm19.8863-.3975a.55.55,0,0,1-.5442-.449.5424.5424,0,0,1,.4507-.6267q1.0842-.1847,2.1577-.4053a.5567.5567,0,0,1,.6559.4183.5424.5424,0,0,1-.4284.6418q-1.0921.2253-2.196.4126A.5947.5947,0,0,1,1112.7863,137.3859Zm-24.257-.3191a.5437.5437,0,0,1-.1117-.0114q-1.0937-.2175-2.1832-.4729a.5416.5416,0,0,1-.4092-.6532.5592.5592,0,0,1,.6685-.4006q1.07.2519,2.145.4656a.5425.5425,0,0,1,.4326.6386A.5523.5523,0,0,1,1088.5293,137.0668Zm28.5948-.5716a.5515.5515,0,0,1-.5378-.4126.54.54,0,0,1,.406-.6552q1.0683-.2573,2.1216-.55a.5562.5562,0,0,1,.6846.3731.5407.5407,0,0,1-.3806.6693q-1.0714.2977-2.162.56A.5446.5446,0,0,1,1117.1241,136.4952Zm-32.905-.4422a.57.57,0,0,1-.1488-.02q-1.0763-.2924-2.1439-.6231a.54.54,0,0,1-.36-.68.5581.5581,0,0,1,.6952-.3528q1.0506.3258,2.1067.6126a.54.54,0,0,1,.3848.6667A.5523.5523,0,0,1,1084.2191,136.053Zm37.1674-.742a.5531.5531,0,0,1-.5272-.3752.54.54,0,0,1,.3571-.6823q1.0475-.3312,2.0759-.6968a.5567.5567,0,0,1,.71.3232.5383.5383,0,0,1-.3316.6942q-1.0474.3734-2.1142.71A.5706.5706,0,0,1,1121.3865,135.311Zm-41.3915-.568a.569.569,0,0,1-.186-.0317q-1.0522-.3678-2.0929-.7737a.5375.5375,0,0,1-.3093-.7036.5574.5574,0,0,1,.72-.3024q1.0219.3983,2.0546.7592a.5386.5386,0,0,1,.3359.6921A.5538.5538,0,0,1,1079.995,134.743Zm45.555-.914a.5539.5539,0,0,1-.5134-.3383.5379.5379,0,0,1,.305-.7057q1.02-.4053,2.0164-.8459a.5587.5587,0,0,1,.7334.27.5372.5372,0,0,1-.2763.7171q-1.0157.4489-2.0568.8626A.5665.5665,0,0,1,1125.55,133.829Zm-49.6728-.6932a.5616.5616,0,0,1-.2242-.0468q-1.0221-.4419-2.0292-.9223a.5361.5361,0,0,1-.254-.7244.5583.5583,0,0,1,.7408-.2494q.9887.4724,1.9909.9057a.5376.5376,0,0,1,.2827.7145A.5563.5563,0,0,1,1075.8772,133.1358Zm53.7108-1.0912a.5549.5549,0,0,1-.4953-.3.5349.5349,0,0,1,.2477-.7264q.9852-.4818,1.9409-.9977a.5626.5626,0,0,1,.7525.2125.5358.5358,0,0,1-.2168.7363q-.9758.5262-1.9813,1.0175A.562.562,0,0,1,1129.588,132.0446Zm-57.6936-.8107a.5592.5592,0,0,1-.2614-.0644q-.9838-.5153-1.9526-1.0689a.5349.5349,0,0,1-.1988-.741.5607.5607,0,0,1,.7579-.1943q.95.544,1.9164,1.0491a.5352.5352,0,0,1,.2264.7332A.5557.5557,0,0,1,1071.8944,131.2339Zm61.5733-1.2814a.555.555,0,0,1-.473-.2609.5341.5341,0,0,1,.1849-.7441q.9408-.558,1.85-1.151a.5609.5609,0,0,1,.7675.15.5338.5338,0,0,1-.1531.7514q-.9279.6056-1.8877,1.1759A.5625.5625,0,0,1,1133.4677,129.9525Zm-65.4-.9088a.561.561,0,0,1-.2976-.0847q-.9423-.5862-1.8644-1.2124a.5331.5331,0,0,1-.1392-.7534.5615.5615,0,0,1,.7706-.1362q.9041.6135,1.8282,1.1884a.5349.5349,0,0,1,.17.7478A.5576.5576,0,0,1,1068.0679,129.0437Zm69.0839-1.4971a.5564.5564,0,0,1-.4464-.2209.5341.5341,0,0,1,.119-.7571q.8848-.636,1.7358-1.3058a.5625.5625,0,0,1,.7791.0811.5343.5343,0,0,1-.084.7617q-.869.686-1.7761,1.336A.5583.5583,0,0,1,1137.1518,127.5466Zm-72.7265-.9728a.5637.5637,0,0,1-.3327-.1081q-.8913-.6546-1.7645-1.3484a.5331.5331,0,0,1-.08-.7618.5636.5636,0,0,1,.7791-.079q.8562.6805,1.73,1.3225a.5342.5342,0,0,1,.1106.7587A.5581.5581,0,0,1,1064.4253,126.5738Zm76.1746-1.7465a.5581.5581,0,0,1-.4145-.1818.5333.5333,0,0,1,.0468-.7644q.8194-.7132,1.5986-1.46a.5625.5625,0,0,1,.7834.0073.5322.5322,0,0,1-.0075.7659q-.7971.7655-1.639,1.4961A.5575.5575,0,0,1,1140.6,124.8273Zm-79.62-.9826a.5607.5607,0,0,1-.3582-.1283q-.8386-.6954-1.6975-1.376a.5333.5333,0,0,1-.0818-.7618.5633.5633,0,0,1,.7791-.079q.8673.6874,1.7166,1.3905a.533.533,0,0,1,.0648.7634A.56.56,0,0,1,1060.98,123.8447Zm82.7829-2.0536a.56.56,0,0,1-.3752-.1429.534.534,0,0,1-.033-.7654q.7431-.7889,1.4393-1.6124a.5657.5657,0,0,1,.78-.0728.5339.5339,0,0,1,.0744.7628q-.7141.8449-1.4774,1.6561A.5594.5594,0,0,1,1143.7632,121.7911Zm-86.2268-.6833a.558.558,0,0,1-.3412-.1149q-.87-.6656-1.7538-1.3167a.5339.5339,0,0,1-.1084-.7587.5633.5633,0,0,1,.7759-.106q.89.6572,1.7687,1.3282a.5332.5332,0,0,1,.0946.7608A.5568.5568,0,0,1,1057.5364,121.1078Zm-3.5448-2.6143a.5617.5617,0,0,1-.3264-.1039q-.8928-.6353-1.7942-1.257a.5337.5337,0,0,1-.1339-.7545.56.56,0,0,1,.7717-.131q.9087.626,1.8091,1.2674a.5329.5329,0,0,1,.1211.7566A.5571.5571,0,0,1,1053.9916,118.4935Zm92.5979-.0447a.5649.5649,0,0,1-.33-.1055.5343.5343,0,0,1-.1158-.7576q.6489-.8606,1.2478-1.7533a.5647.5647,0,0,1,.7675-.1558.5343.5343,0,0,1,.1594.75q-.6155.9181-1.284,1.8021A.5567.5567,0,0,1,1146.59,118.4488Zm-96.2183-2.4511a.5588.5588,0,0,1-.3125-.0941q-.912-.6087-1.83-1.2029a.5349.5349,0,0,1-.1563-.75.5635.5635,0,0,1,.7685-.1527q.9248.5985,1.8431,1.2112a.5335.5335,0,0,1,.1446.753A.5566.5566,0,0,1,1050.3712,115.9977Zm98.6418-1.17a.557.557,0,0,1-.2763-.0728.535.535,0,0,1-.2041-.7394q.5436-.922,1.031-1.8764a.56.56,0,0,1,.743-.2427.5365.5365,0,0,1,.2477.727q-.5007.9821-1.0608,1.9325A.5575.5575,0,0,1,1149.013,114.828Zm-102.3312-1.2186a.5608.5608,0,0,1-.3-.0857q-.9312-.5862-1.8665-1.1562a.5342.5342,0,0,1-.1765-.7462.563.563,0,0,1,.7632-.1725q.9407.5737,1.8793,1.1635a.5346.5346,0,0,1,.1658.7488A.5543.5543,0,0,1,1046.6818,113.6094Zm-3.7628-2.2952a.5611.5611,0,0,1-.288-.079q-.9471-.5636-1.8952-1.11a.5356.5356,0,0,1-.1956-.7421.5634.5634,0,0,1,.7589-.1912q.9535.5511,1.908,1.1177a.5347.5347,0,0,1,.1849.7447A.5569.5569,0,0,1,1042.919,111.3142Zm108.0721-.3549a.5646.5646,0,0,1-.2179-.0436.5383.5383,0,0,1-.2912-.7114q.4272-.9766.795-1.9845a.5584.5584,0,0,1,.708-.3284.5385.5385,0,0,1,.3358.6921q-.3793,1.0391-.8205,2.0469A.5545.5545,0,0,1,1150.9911,110.9593Zm-111.889-1.8509a.5576.5576,0,0,1-.2764-.0728q-.963-.5424-1.9228-1.0678a.5362.5362,0,0,1-.2126-.7374.5588.5588,0,0,1,.7547-.2073q.9645.5284,1.9334,1.0741a.5349.5349,0,0,1,.2041.7394A.5574.5574,0,0,1,1039.1021,109.1084Zm-3.868-2.1207a.5655.5655,0,0,1-.2658-.0665q-.9789-.523-1.9462-1.0273a.536.536,0,0,1-.2285-.7327.5594.5594,0,0,1,.7494-.2234q.9724.5065,1.9568,1.0325a.5361.5361,0,0,1,.22.7353A.5548.5548,0,0,1,1035.2341,106.9877Zm117.2472-.1023a.5738.5738,0,0,1-.1551-.0219.5394.5394,0,0,1-.3763-.6713q.3029-1.0181.5431-2.0635a.5565.5565,0,0,1,.6622-.41.5417.5417,0,0,1,.42.647q-.2487,1.08-.5623,2.1289A.5519.5519,0,0,1,1152.4813,106.8854Zm-121.162-1.9372a.5573.5573,0,0,1-.2562-.0619q-.9917-.5051-1.9674-.9883a.5373.5373,0,0,1-.2434-.7285.5618.5618,0,0,1,.7451-.238q.9789.4863,1.9781.9945a.5358.5358,0,0,1,.2349.7307A.5559.5559,0,0,1,1031.3193,104.9482Zm-3.9551-1.9632a.5578.5578,0,0,1-.2456-.0567q-1.0076-.487-1.9876-.9514a.5356.5356,0,0,1-.2573-.7233.5594.5594,0,0,1,.74-.2515q.9837.4653,1.9962.9556a.536.536,0,0,1,.2508.7259A.556.556,0,0,1,1027.3642,102.985Zm126.0929-.32a.5839.5839,0,0,1-.09-.0073.5427.5427,0,0,1-.4571-.622q.1738-1.0445.2881-2.1138a.5535.5535,0,0,1,1.1012.1112q-.1164,1.102-.2966,2.1772A.5494.5494,0,0,1,1153.4571,102.6654Zm-130.0853-1.5693a.5636.5636,0,0,1-.237-.0525q-1.02-.4716-2.0058-.9145a.5366.5366,0,0,1-.271-.7187.5575.5575,0,0,1,.7345-.2655q.99.4458,2.0163.92a.5361.5361,0,0,1,.2636.7208A.5546.5546,0,0,1,1023.3718,101.0961Zm-4.0306-1.8161a.5589.5589,0,0,1-.2269-.0483q-1.0387-.4568-2.0228-.8793a.5363.5363,0,0,1-.2843-.7134.5579.5579,0,0,1,.73-.278q.9878.424,2.0323.8834a.5366.5366,0,0,1,.2779.716A.5555.5555,0,0,1,1019.3412,99.28Zm134.574-.9193-.0255,0a.5465.5465,0,0,1-.5283-.5659q.0192-.3975.03-.7971a.5482.5482,0,0,1,.5538-.5269h.0149a.5468.5468,0,0,1,.5389.556q-.0113.4108-.03.8179A.549.549,0,0,1,1153.9152,98.3607Zm-138.6365-.8246a.5563.5563,0,0,1-.2179-.0442q-1.0642-.4443-2.04-.8423a.5373.5373,0,0,1-.2982-.7083.5574.5574,0,0,1,.7244-.2915q.98.3991,2.05.8465a.5366.5366,0,0,1,.2912.7109A.5549.5549,0,0,1,1015.2787,97.5361Zm-4.0987-1.6686a.562.562,0,0,1-.2078-.04q-1.1169-.4419-2.0573-.8023a.5373.5373,0,0,1-.313-.702.559.559,0,0,1,.718-.3061c.6287.2411,1.32.51,2.0685.8065a.538.538,0,0,1,.305.7057A.554.554,0,0,1,1011.18,95.8675Zm-4.1348-1.5854a.5652.5652,0,0,1-.1961-.0353c-1.3329-.4926-2.0732-.7452-2.0775-.7467a.5379.5379,0,0,1-.3406-.69.5575.5575,0,0,1,.7052-.3331s.75.2557,2.1052.7561a.5381.5381,0,0,1,.322.6984A.5541.5541,0,0,1,1007.0452,94.2821Z"/><rect class="cls-2" x="1151.2802" y="93.2196" width="5.7973" height="5.1957" transform="translate(1323.6081 -1049.8716) rotate(93.6665)"/><rect class="cls-10" x="1155.8231" y="49.3194" width="5.7973" height="5.1957" transform="matrix(-0.5, 0.866, -0.866, -0.5, 1783.0443, -925.6066)"/><path class="cls-12" d="M1058.2474,137.666a.5409.5409,0,0,1-.5415-.5337c-.4417-30.5842,8.64-54.0171,26.9951-69.6483,36.3526-30.96,97.4534-20.6321,98.0666-20.524a.5418.5418,0,0,1-.1871,1.0673c-.61-.1076-61.2214-10.3459-97.1812,20.2845-18.0937,15.4119-27.047,38.5611-26.61,68.8049a.5415.5415,0,0,1-.5331.5493Z"/><rect class="cls-2" x="1102.9824" y="64.8668" width="6.2327" height="5.5859" transform="matrix(-0.0639, 0.998, -0.998, -0.0639, 1244.3533, -1031.8484)"/><path class="cls-13" d="M1092.0763,100.8872a.6113.6113,0,0,1-.2826-1.1536q1.0943-.569,2.1492-1.1432a.6115.6115,0,1,1,.584,1.0746q-1.0647.5784-2.1679,1.1536A.6123.6123,0,0,1,1092.0763,100.8872Zm4.2974-2.3331a.6112.6112,0,0,1-.3024-1.1432q1.0725-.6081,2.1035-1.22a.6109.6109,0,0,1,.6256,1.05q-1.0428.6221-2.1263,1.2347A.6074.6074,0,0,1,1096.3737,98.5541Zm4.206-2.4964a.6112.6112,0,0,1-.3233-1.1307q1.0476-.65,2.05-1.3053a.6111.6111,0,1,1,.6693,1.0226q-1.0149.6641-2.0744,1.322A.6038.6038,0,0,1,1100.58,96.0577Zm4.0916-2.674a.6112.6112,0,0,1-.3471-1.1152q1.0148-.6983,1.9829-1.4009a.6116.6116,0,0,1,.7192.9894q-.9806.7124-2.01,1.42A.6077.6077,0,0,1,1104.6713,93.3837Zm3.9554-2.8726a.6111.6111,0,0,1-.372-1.0964q.9774-.75,1.9029-1.5049a.6116.6116,0,0,1,.7732.9479q-.94.7653-1.932,1.5277A.6091.6091,0,0,1,1108.6267,90.5111Zm3.7882-3.0887a.6111.6111,0,0,1-.4012-1.0725q.9307-.8091,1.8021-1.62a.6118.6118,0,1,1,.8335.8958q-.887.8247-1.8333,1.6473A.6093.6093,0,0,1,1112.4149,87.4224Zm3.5782-3.33a.6111.6111,0,0,1-.4324-1.0434q.873-.8715,1.6795-1.7439a.6119.6119,0,1,1,.8979.8314q-.823.8886-1.7127,1.7771A.6094.6094,0,0,1,1115.9931,84.0926Zm3.3173-3.59a.6111.6111,0,0,1-.4656-1.0071q.7966-.9369,1.5247-1.8759a.6118.6118,0,1,1,.9665.75q-.7467.96-1.56,1.9174A.6085.6085,0,0,1,1119.31,80.503Zm2.9931-3.862a.6044.6044,0,0,1-.3492-.11.6107.6107,0,0,1-.1507-.8512q.7047-1.0071,1.3345-2.011a.6113.6113,0,0,1,1.0351.6506q-.6454,1.0289-1.3677,2.0609A.61.61,0,0,1,1122.3035,76.641Zm2.592-4.1425a.6107.6107,0,0,1-.5342-.9073c.3939-.7108.7649-1.4311,1.1027-2.14a.6113.6113,0,1,1,1.1037.5258c-.3492.7317-.7306,1.4737-1.136,2.2064A.61.61,0,0,1,1124.8955,72.4985Zm2.1076-4.4076a.5961.5961,0,0,1-.23-.0446.6113.6113,0,0,1-.3367-.7961c.2972-.7358.5779-1.4945.8314-2.2573a.6113.6113,0,0,1,1.16.3866c-.2619.7867-.5509,1.57-.8585,2.33A.61.61,0,0,1,1127.0031,68.0909Zm1.5381-4.6372a.6111.6111,0,0,1-.5913-.7649c.2016-.7763.3783-1.5651.5248-2.3435a.6113.6113,0,1,1,1.2014.2265c-.1517.8055-.3346,1.6213-.5435,2.4246A.61.61,0,0,1,1128.5412,63.4537Zm.9021-4.8a.5561.5561,0,0,1-.0717-.0041.61.61,0,0,1-.5362-.6776c.0925-.7951.159-1.6005.1964-2.3935a.6.6,0,0,1,.64-.582.6129.6129,0,0,1,.582.64c-.0395.8211-.1081,1.6545-.2048,2.4766A.6107.6107,0,0,1,1129.4433,58.6533Zm-92.1947-.3284a.595.595,0,0,1-.2837-.0706.61.61,0,0,1-.2557-.8252l.8065-1.5267a.6114.6114,0,1,1,1.0787.5757l-.8044,1.5205A.61.61,0,0,1,1037.2486,58.3249Zm1.9746-3.678a.603.603,0,0,1-.2962-.0769.6108.6108,0,0,1-.2369-.8314c.371-.6682.7752-1.3853,1.2117-2.143a.6118.6118,0,0,1,1.06.6111c-.4344.7514-.8345,1.4623-1.2035,2.1264A.6109.6109,0,0,1,1039.2232,54.6469Zm90.4508-.874a.6112.6112,0,0,1-.611-.5976c-.0177-.795-.0624-1.6025-.1331-2.4a.6114.6114,0,1,1,1.2181-.1081c.0737.8241.12,1.6587.1371,2.4807a.6115.6115,0,0,1-.5975.6246Zm-87.9992-3.3735a.611.611,0,0,1-.5227-.9259q.6111-1.0166,1.2876-2.0983a.6113.6113,0,0,1,1.0352.6505q-.67,1.068-1.2752,2.0776A.61.61,0,0,1,1041.6748,50.3994Zm87.5659-1.4955a.61.61,0,0,1-.6028-.5165c-.1237-.7909-.2744-1.587-.4469-2.3633a.6112.6112,0,1,1,1.1931-.266c.1787.8023.3336,1.6233.4614,2.44a.611.611,0,0,1-.5092.6984A.6013.6013,0,0,1,1129.2407,48.9039Zm-84.9625-2.6553a.6111.6111,0,0,1-.51-.9457q.6579-1.0056,1.3667-2.0464a.6117.6117,0,1,1,1.01.69q-.7031,1.0289-1.3541,2.0256A.61.61,0,0,1,1044.2782,46.2486Zm83.9055-2.116a.6112.6112,0,0,1-.5872-.4427c-.2182-.7576-.4655-1.53-.7347-2.2937a.6117.6117,0,0,1,1.1536-.4074c.2775.7878.5321,1.5829.7555,2.3644a.6093.6093,0,0,1-.4188.7555A.5912.5912,0,0,1,1128.1837,44.1326Zm-81.1421-1.9288a.611.611,0,0,1-.4978-.9666q.7062-.9867,1.4529-1.9881a.6111.6111,0,1,1,.979.7317q-.7389.99-1.4363,1.9673A.61.61,0,0,1,1047.0416,42.2038Zm79.5188-2.6824a.6118.6118,0,0,1-.5643-.3752q-.4694-1.1225-.9905-2.2a.6117.6117,0,1,1,1.1017-.5321q.5331,1.1068,1.0174,2.26a.61.61,0,0,1-.5643.847Zm-76.5859-1.2388a.611.611,0,0,1-.4812-.9884q.7514-.9586,1.5422-1.92a.6113.6113,0,1,1,.9437.7773q-.7811.9478-1.5236,1.8978A.61.61,0,0,1,1049.9745,38.2826Zm74.4606-3.1646a.6114.6114,0,0,1-.5363-.3159q-.5909-1.0725-1.219-2.0869a.6117.6117,0,0,1,1.0413-.6423q.6423,1.04,1.2482,2.1389a.6111.6111,0,0,1-.24.83A.6049.6049,0,0,1,1124.4351,35.118Zm-71.347-.6142a.6111.6111,0,0,1-.4614-1.0123q.8013-.9243,1.641-1.8384a.6112.6112,0,0,1,.9.8272q-.8262.9011-1.6182,1.8136A.6087.6087,0,0,1,1053.0881,34.5038Zm68.7737-3.545a.6119.6119,0,0,1-.504-.2629q-.7-1.0118-1.4248-1.9528a.6115.6115,0,1,1,.9706-.7441q.7391.9635,1.46,2.0006a.6107.6107,0,0,1-.502.9592Zm-65.4626-.0613a.611.611,0,0,1-.4385-1.0372q.8574-.8808,1.748-1.7407a.6108.6108,0,0,1,.8481.8792q-.8762.8465-1.719,1.7137A.61.61,0,0,1,1056.3992,30.8975Zm3.519-3.4005a.6111.6111,0,0,1-.4095-1.0652q.9166-.8262,1.8645-1.6244a.6114.6114,0,0,1,.7877.9353q-.9321.7842-1.8332,1.5974A.6132.6132,0,0,1,1059.9182,27.497Zm58.9578-.4136a.61.61,0,0,1-.4645-.213q-.8091-.9447-1.6182-1.7886a.6116.6116,0,1,1,.8834-.846c.5529.5789,1.11,1.192,1.6639,1.8385a.611.611,0,0,1-.4646,1.0091Zm-55.2019-2.7385a.6112.6112,0,0,1-.3752-1.0943q.9744-.7576,1.984-1.4768a.6111.6111,0,1,1,.7088.9956q-.9868.703-1.9424,1.4477A.6089.6089,0,0,1,1063.6741,24.3449Zm51.816-.79a.606.606,0,0,1-.4147-.1621c-.6007-.555-1.2139-1.0819-1.82-1.5652a.6109.6109,0,0,1,.7608-.9561c.6308.5009,1.2658,1.0476,1.8883,1.6233a.6111.6111,0,0,1-.4146,1.06Zm-47.83-2.05a.6112.6112,0,0,1-.3336-1.1245q1.0367-.6735,2.1066-1.298a.6116.6116,0,1,1,.6173,1.0559q-1.0445.6094-2.0588,1.2689A.6087.6087,0,0,1,1067.66,21.5046Zm43.8967-.8293a.6008.6008,0,0,1-.3013-.08q-1.071-.6094-2.1274-1.1525a.6112.6112,0,1,1,.5591-1.0871q1.08.5565,2.1731,1.1775a.6111.6111,0,0,1-.3035,1.1422Zm-39.6731-1.6338a.6113.6113,0,0,1-.2806-1.1546q1.1006-.5674,2.23-1.08a.6112.6112,0,0,1,.503,1.1141q-1.0991.4973-2.1721,1.0528A.6166.6166,0,0,1,1071.8833,19.0415Zm35.3248-.5976a.6183.6183,0,0,1-.2546-.055q-1.1177-.5114-2.22-.952a.611.611,0,0,1,.4531-1.1349q1.13.4506,2.2761.9748a.6113.6113,0,0,1-.2547,1.1671Zm-30.8663-1.4123a.6112.6112,0,0,1-.2193-1.1817c.7711-.2962,1.5589-.5726,2.3436-.822a.6116.6116,0,1,1,.37,1.166c-.7607.2411-1.5266.5093-2.2749.7971A.6012.6012,0,0,1,1076.3418,17.0316Zm26.3247-.3981a.6177.6177,0,0,1-.1964-.0322q-1.1615-.3928-2.3041-.7119a.6117.6117,0,0,1,.3284-1.1785q1.177.3289,2.3685.7327a.6111.6111,0,0,1-.1964,1.19Zm-21.6646-1.0766a.6114.6114,0,0,1-.1486-1.2046c.796-.1985,1.6129-.3741,2.4277-.5227a.6224.6224,0,0,1,.7109.4926.6119.6119,0,0,1-.4927.7109c-.7888.1434-1.5786.3138-2.3487.5061A.61.61,0,0,1,1081.0019,15.5569Zm16.9557-.2318a.6157.6157,0,0,1-.13-.0135c-.793-.1715-1.59-.318-2.3675-.4355a.613.613,0,0,1-.5134-.6963.6228.6228,0,0,1,.6963-.5134c.8034.1216,1.6244.2733,2.4423.45a.6112.6112,0,0,1-.1278,1.2087Zm-12.1532-.6381a.6115.6115,0,0,1-.0686-1.2191c.822-.0935,1.6555-.16,2.4755-.1974a.628.628,0,0,1,.6392.583.6121.6121,0,0,1-.5831.6391c-.7929.0364-1.5984.1-2.3924.1913C1085.8511,14.6859,1085.8283,14.687,1085.8044,14.687Zm7.3216-.0946a.4634.4634,0,0,1-.054-.0021c-.8044-.07-1.613-.1132-2.4007-.1288a.6116.6116,0,0,1-.6-.6226.5954.5954,0,0,1,.6225-.6c.8169.0156,1.6525.06,2.4839.133a.6112.6112,0,0,1-.052,1.22Z"/><rect class="cls-2" x="1034.8738" y="55.3906" width="5.1645" height="4.6285" transform="translate(1525.4567 -859.6284) rotate(114.8284)"/><path class="cls-14" d="M1090.2,32.1444c-6.23,8.4544-11.7872,24.666-2.8894,53.8876a.62.62,0,1,0,1.1857-.3613c-8.7479-28.7291-3.3593-44.565,2.702-52.7907a27.407,27.407,0,0,1,6.6883-6.4861c-.7061-.0132-1.4123-.0012-2.118.0146A29.0508,29.0508,0,0,0,1090.2,32.1444Z"/><path class="cls-15" d="M1124.9849,43.2931c-3.5438-14.0179-9.7675-21.43-18-21.434a16.9269,16.9269,0,0,0-7.4957,2.1444q1.2709.06,2.5363.18a13.9966,13.9966,0,0,1,4.9622-1.0846c9.6.0048,14.4326,11.15,16.7964,20.4982,6.9539,27.51,1.2789,75.3538-9.6406,81.2589a.62.62,0,0,0,.59,1.0906C1126.2571,119.714,1132.1973,71.8214,1124.9849,43.2931Z"/><path class="cls-2" d="M974.53,226.4388a16.1708,16.1708,0,0,0,6.9482,1.869c3.6965,0,6.4187-2.0722,6.4187-5.1192,0-7.3536-13.2036-5.2411-13.2036-14.3417,0-5.1191,4.2251-7.394,8.0436-7.394a16.4684,16.4684,0,0,1,6.5821,1.4624l-.8129,2.1938a14.3754,14.3754,0,0,0-5.7692-1.3c-3.5341,0-5.5251,2.0721-5.5251,5.0379,0,6.9472,13.2036,5.3224,13.2036,14.3417,0,4.55-3.8589,7.4753-8.9372,7.4753a16.9551,16.9551,0,0,1-7.6794-2.0313Z"/><path class="cls-2" d="M993.6267,220.1008c0-5.8095,4.1847-10.6039,10.0759-10.6039s10.0749,4.7944,10.0749,10.6039-4.1847,10.5631-10.0749,10.5631S993.6267,225.91,993.6267,220.1008Zm17.713,0c0-4.55-3.0057-8.3285-7.6371-8.3285-4.5912,0-7.6381,3.7782-7.6381,8.3285s3.0469,8.2882,7.6381,8.2882C1008.334,228.389,1011.34,224.6511,1011.34,220.1008Z"/><path class="cls-2" d="M1034.0118,229.2422a15.2211,15.2211,0,0,1-6.7041,1.4217c-6.5,0-10.3189-4.7939-10.3189-10.6034,0-5.7692,3.8185-10.5636,10.3189-10.5636a17.2729,17.2729,0,0,1,6.7445,1.3813l-.7312,2.113a16.0494,16.0494,0,0,0-6.0133-1.2189c-5.2,0-7.9629,3.9815-7.9629,8.2882,0,4.347,2.7626,8.3285,7.9226,8.3285a16.5181,16.5181,0,0,0,5.9719-1.341Z"/><path class="cls-2" d="M1040.0664,201.6561a1.6482,1.6482,0,0,1,1.7065,1.6249,1.682,1.682,0,0,1-1.7065,1.6657,1.6333,1.6333,0,0,1-1.7065-1.6657A1.6014,1.6014,0,0,1,1040.0664,201.6561Zm-1.178,8.3693h2.356v20.1105h-2.356Z"/><path class="cls-2" d="M1062.94,229.445a16.2246,16.2246,0,0,1-6.42,1.2189c-6.2159,0-10.0345-4.7535-10.0345-10.5631,0-5.85,3.8186-10.6039,9.3446-10.6039,6.2967,0,8.8969,4.916,8.8969,10.4819h-15.8854c0,4.7535,2.8039,8.41,7.6784,8.41a16.3408,16.3408,0,0,0,5.9729-1.2189Zm-.6908-11.4975c-.5689-4.2659-3.0067-6.1752-6.4188-6.1752-3.169,0-6.0132,1.99-6.7848,6.1752Z"/><path class="cls-2" d="M1070.417,212.0568h-2.8846v-2.0314h2.8846v-5.1191l2.3561-1.0565v6.1756h4.9976v2.0314h-4.9976v12.1879c0,2.6818,1.1377,4.1443,3.7379,4.1443a7.9163,7.9163,0,0,0,2.3561-.3657l.4881,2.1938a11.2861,11.2861,0,0,1-3.047.4468c-3.3727,0-5.8912-2.0717-5.8912-6.1752Z"/><path class="cls-2" d="M1084.4344,237.2863c1.5029,0,2.6-.8936,3.2911-3.0066l1.34-4.1438h-.8129l-7.0692-20.11h2.479l5.1187,14.8289c.2844.8533.6909,2.1937,1.0157,3.3314.2844-1.1377.6908-2.4377.9753-3.3314l4.7938-14.8289h2.4782l-8.2473,25.3108c-.934,2.8846-3.0067,4.2255-5.3628,4.2255a8.694,8.694,0,0,1-3.7378-.7721l.6909-2.1533A7.4824,7.4824,0,0,0,1084.4344,237.2863Z"/><path class="cls-2" d="M853.4091,81.8185h-4.6709c-1.0829,0-5.4684.171-5.4684.171l-.2854-.3421c.1711-5.2973.2854-10.538.2854-15.8354V61.8248c0-6.608-.0576-13.2723-.5131-19.88l.2854-.3416h3.93c1.88,0,5.184-.1139,6.3794-.171l.2286.3421c-.171,7.8038-.2853,15.6643-.2853,23.5254,0,5.4112.1143,10.8229.3987,16.1775Z"/><path class="cls-2" d="M888.2115,74.5273c-.171,2.3354-.2844,4.7847-.3988,6.95l-.4554.3416c-8.3165,0-16.6906.0571-25.0638.1138l-.2844-.3987c.2277-5.2407.2844-10.4809.2844-15.7788V53.9638c0-4.0444-.0567-8.0316-.3988-12.0193l.3421-.3416c6.2092,0,21.2471-.1139,25.0061-.1139l.2854.3416c-.171,2.3355-.3421,4.386-.3988,6.6076l-.342.3421c-4.8986-.1139-9.7406-.1711-14.5825-.1711,0,1.0825-.0567,2.62-.0567,4.2154,0,1.8228,0,3.6457.0567,4.842,4.6142,0,9.1707-.0572,13.7282-.2283l.3421.3988c-.171,2.1649-.2854,4.2721-.3988,6.437l-.342.3416c-8.3732-.0567-13.3295-.0567-13.3295-.0567,0,3.3607.0567,6.6642.1144,9.9683,5.2407,0,10.4237-.1139,15.6077-.3988Z"/><path class="cls-2" d="M920.2245,74.5273c-.1711,2.3354-.2854,4.7847-.3988,6.95l-.4564.3416c-8.3165,0-16.69.0571-25.0629.1138l-.2854-.3987c.2278-5.2407.2854-10.4809.2854-15.7788V53.9638c0-4.0444-.0576-8.0316-.3987-12.0193l.3411-.3416c6.2092,0,21.2471-.1139,25.0071-.1139l.2844.3416c-.171,2.3355-.3411,4.386-.3988,6.6076L918.8,48.78c-4.9-.1139-9.7415-.1711-14.5824-.1711,0,1.0825-.0577,2.62-.0577,4.2154,0,1.8228,0,3.6457.0577,4.842,4.6132,0,9.1707-.0572,13.7272-.2283l.3421.3988c-.171,2.1649-.2844,4.2721-.3988,6.437l-.342.3416c-8.3732-.0567-13.3285-.0567-13.3285-.0567,0,3.3607.0567,6.6642.1134,9.9683,5.2406,0,10.4246-.1139,15.6077-.3988Z"/><path class="cls-2" d="M952.2364,74.5273c-.171,2.3354-.2844,4.7847-.3987,6.95l-.4555.3416c-8.3165,0-16.6906.0571-25.0638.1138l-.2844-.3987c.2277-5.2407.2844-10.4809.2844-15.7788V53.9638c0-4.0444-.0567-8.0316-.3988-12.0193l.3421-.3416c6.2093,0,21.2472-.1139,25.0062-.1139l.2853.3416c-.171,2.3355-.342,4.386-.3987,6.6076l-.3421.3421c-4.8986-.1139-9.74-.1711-14.5824-.1711,0,1.0825-.0567,2.62-.0567,4.2154,0,1.8228,0,3.6457.0567,4.842,4.6141,0,9.1707-.0572,13.7282-.2283l.342.3988c-.171,2.1649-.2853,4.2721-.3987,6.437l-.3421.3416c-8.3732-.0567-13.3294-.0567-13.3294-.0567,0,3.3607.0567,6.6642.1143,9.9683,5.2407,0,10.4237-.1139,15.6077-.3988Z"/><path class="cls-10" d="M843.2064,128.2058a26.1842,26.1842,0,0,0,11.6911,3.0412c4.6632,0,7.5689-2.5,7.5689-6.2169,0-9.2582-20.071-7.0957-20.071-22.3685,0-8.2444,6.8934-13.0422,14.7323-13.0422A28.8621,28.8621,0,0,1,869.0216,92.39l-2.2984,6.3519a24.6958,24.6958,0,0,0-9.5955-2.1625c-4.3249,0-6.4879,2.5007-6.4879,6.082,0,8.8526,20.0711,7.5012,20.0711,22.3685,0,7.9739-6.9607,13.1776-15.8134,13.1776a29.895,29.895,0,0,1-13.8531-3.5144Z"/><path class="cls-10" d="M879.8306,88.3352a4.4646,4.4646,0,1,1,0,8.92,4.4607,4.4607,0,1,1,0-8.92Zm-3.7839,14.8674h7.5689V137.329h-7.5689Z"/><path class="cls-10" d="M894.8993,144.0192a23.871,23.871,0,0,0,10.2037,2.2974c6.3524,0,9.5291-4.2572,9.5291-10.2041v-3.1762a12.903,12.903,0,0,1-10.0692,4.3927c-9.8664,0-15.9488-8.2444-15.9488-17.5026s6.15-17.5026,15.9488-17.5026a13.0441,13.0441,0,0,1,10.3392,4.6627l.4055-3.7839,6.8924.6755v33.0454c0,9.4609-7.0279,16.0833-17.097,16.0833a26.536,26.536,0,0,1-12.5012-2.9734Zm20.2055-24.1928c0-6.5552-4.2577-10.8124-9.6636-10.8124-5.6087,0-8.9882,4.6627-8.9882,10.8124,0,6.0819,3.244,10.8124,8.9882,10.8124C910.51,130.6388,915.1048,126.7871,915.1048,119.8264Z"/><path class="cls-10" d="M928.7523,103.8781l6.487-.6755.6755,4.3922c2.433-3.514,6.15-5.271,10.8129-5.271,6.8251,0,11.2856,5.001,11.2856,13.0426V137.329h-7.5689V116.38c0-4.2577-1.5547-7.3662-5.2715-7.3662-5.4732,0-8.8526,4.6627-8.8526,12.5694V137.329h-7.568Z"/><path class="cls-10" d="M989.0279,133.2745a12.893,12.893,0,0,1-10.4074,4.9332c-9.8664,0-15.9479-8.65-15.9479-17.9758,0-9.4609,6.3525-17.9081,15.9479-17.9081a13.157,13.157,0,0,1,10.0691,4.46v-3.5812l7.569.6755V137.329h-6.5552Zm.1345-13.11c0-6.69-4.2567-11.15-9.6627-11.15-5.4742,0-8.9881,4.9332-8.9881,11.2179,0,6.0142,3.2439,11.2856,8.9881,11.2856C984.5674,131.5175,989.1624,127.3276,989.1624,120.1642Z"/><path class="cls-10" d="M1002.7436,88.8757l7.5679-1.6215v41.3571c0,2.0952.7438,2.9735,2.703,2.9735l-.7427,6.5552c-5.7442,0-9.5282-2.0948-9.5282-8.5822Z"/><path class="cls-10" d="M843.5446,146.1024h13.5831c9.19,0,15.8806,5.2037,15.8806,14.4618s-6.8252,14.5291-15.9488,14.5291h-5.6759v17.84h-7.839Zm12.7722,22.233c6.69,0,8.7854-3.1085,8.7854-7.7712,0-4.7982-2.5012-7.5689-8.5827-7.5689h-5.1359v15.34Z"/><path class="cls-10" d="M877.6,159.4827l6.4879-.6755.811,4.8655a12.2031,12.2031,0,0,1,10.9474-5.7442v6.69c-6.8934,0-10.6774,5.4064-10.6774,13.1776v15.1373H877.6Z"/><path class="cls-10" d="M897.2631,175.9043c0-9.6636,7.1634-17.9758,17.5708-17.9758s17.57,8.3122,17.57,17.9758-7.0279,17.9081-17.57,17.9081S897.2631,185.5675,897.2631,175.9043Zm27.3017,0c0-6.69-4.3922-11.2856-9.7309-11.2856s-9.7319,4.5954-9.7319,11.2856c0,6.6224,4.325,11.2179,9.7319,11.2179C920.3071,187.1222,924.5648,182.5267,924.5648,175.9043Z"/><path class="cls-10" d="M965.58,191.3794a25.621,25.621,0,0,1-11.5557,2.433c-11.2846,0-18.1108-8.2449-18.1108-17.9758s6.758-17.9081,18.1108-17.9081a28.9938,28.9938,0,0,1,11.6912,2.568l-2.162,6.0819a25.7055,25.7055,0,0,0-9.3937-1.96c-6.6224,0-10.4073,5.2037-10.4073,11.2179,0,6.0819,3.7849,11.2856,10.4073,11.2856a24.862,24.862,0,0,0,9.3937-2.0952Z"/><path class="cls-10" d="M998.0823,191.3794a27.7,27.7,0,0,1-11.6911,2.433c-11.42,0-17.8408-8.1094-17.8408-17.9081,0-9.7314,6.0824-17.9758,16.0833-17.9758,10.4747,0,15.6788,8.1094,15.6788,19.1918H976.1193c.4728,5.4742,3.514,10.0019,10.4746,10.0019a25.3314,25.3314,0,0,0,10.0019-2.1625Zm-5.4059-19.4623c-1.082-5.8792-4.3932-7.2984-8.0427-7.2984-3.5812,0-7.0952,1.892-8.2444,7.2984Z"/><path class="cls-10" d="M1004.4319,184.8242c2.973,1.3515,5.6769,2.3653,8.5826,2.3653,2.8375,0,4.6622-1.5543,4.6622-3.7168,0-5.6087-14.0558-4.3249-14.0558-15.5428,0-6.217,5.2714-10.0014,11.3529-10.0014a22.5582,22.5582,0,0,1,9.4609,2.23l-2.162,6.0142a16.2637,16.2637,0,0,0-6.7579-1.622c-2.8385,0-4.055,1.352-4.055,3.379,0,5.3387,14.0559,4.8655,14.0559,15.6778,0,6.082-5.4732,10.2047-12.2312,10.2047a22.5581,22.5581,0,0,1-10.6774-2.7035Z"/><path class="cls-10" d="M1029.365,184.8242c2.9739,1.3515,5.6769,2.3653,8.5826,2.3653,2.8385,0,4.6632-1.5543,4.6632-3.7168,0-5.6087-14.0558-4.3249-14.0558-15.5428,0-6.217,5.27-10.0014,11.3529-10.0014a22.5614,22.5614,0,0,1,9.4609,2.23l-2.163,6.0142a16.2565,16.2565,0,0,0-6.7579-1.622c-2.8385,0-4.054,1.352-4.054,3.379,0,5.3387,14.0559,4.8655,14.0559,15.6778,0,6.082-5.4742,10.2047-12.2321,10.2047a22.5515,22.5515,0,0,1-10.6765-2.7035Z"/><path class="cls-10" d="M1058.6231,143.94a4.4646,4.4646,0,1,1,0,8.92,4.4607,4.4607,0,1,1,0-8.92Zm-3.784,14.8673h7.5689v34.1264h-7.5689Z"/><path class="cls-10" d="M1068.894,159.4827l6.487-.6755.6755,4.3922c2.4329-3.5139,6.15-5.2709,10.8128-5.2709,6.8252,0,11.2857,5.0009,11.2857,13.0426v21.9625h-7.569V171.9848c0-4.2577-1.5547-7.3661-5.2714-7.3661-5.4732,0-8.8526,4.6627-8.8526,12.5694v15.7455h-7.568Z"/><path class="cls-10" d="M1109.0985,199.6238a23.8771,23.8771,0,0,0,10.2046,2.2975c6.3525,0,9.5282-4.2572,9.5282-10.2041v-3.1763a12.9012,12.9012,0,0,1-10.0691,4.3927c-9.8664,0-15.9479-8.2444-15.9479-17.5025s6.15-17.5026,15.9479-17.5026a13.0448,13.0448,0,0,1,10.34,4.6627l.4045-3.784,6.8934.6755v33.0454c0,9.4609-7.0279,16.0834-17.0971,16.0834a26.5387,26.5387,0,0,1-12.5021-2.9735Zm20.2056-24.1927c0-6.5552-4.2568-10.8124-9.6627-10.8124-5.61,0-8.9882,4.6627-8.9882,10.8124,0,6.0819,3.244,10.8124,8.9882,10.8124C1124.7091,186.2435,1129.3041,182.3917,1129.3041,175.4311Z"/><path class="cls-16" d="M1148.52,89.338c-.1023.4265-.2037.853-.3162,1.2754A6.8972,6.8972,0,0,0,1148.52,89.338Z"/><path class="cls-17" d="M1151.0461,88.8623a10.0918,10.0918,0,0,0-1.4445-5.5841,52.71,52.71,0,0,1-1.0819,6.06,6.8972,6.8972,0,0,1-.3162,1.2754,52.5937,52.5937,0,0,1-2.3626,6.9229C1149.0815,94.9807,1150.8816,92.0347,1151.0461,88.8623Z"/><path class="cls-18" d="M1036.3161,76.2477a1.23,1.23,0,1,0-1.9506,1.4981,53.512,53.512,0,0,0,10.69,10.3349q-.38-1.7743-.6368-3.5909A49.6774,49.6774,0,0,1,1036.3161,76.2477Z"/><path class="cls-19" d="M1103.47,103.9842c-18.1992-.9439-40.54-6.0653-56.1891-17.3077q.3505,1.7967.8281,3.5455c15.9363,10.475,37.52,15.3,55.2342,16.2192q2.9388.1521,5.82.1519c10.1239-.0005,19.5742-1.4015,27.0682-4.0516a41.1512,41.1512,0,0,0,5.7054-2.489q1.0257-1.992,1.8784-4.0807a32.26,32.26,0,0,1-8.4044,4.2506C1126.7923,103.27,1115.45,104.6079,1103.47,103.9842Z"/><path class="cls-20" d="M1047.2805,86.6765q-1.4716-1.0571-2.8614-2.1867.2586,1.8157.6368,3.5909c.9939.7361,2.0074,1.4542,3.0527,2.1413Q1047.6332,88.4727,1047.2805,86.6765Z"/><path class="cls-21" d="M1143.8149,95.9718q-.85,2.0889-1.8784,4.0807a26.504,26.504,0,0,0,3.9044-2.5162,52.5937,52.5937,0,0,0,2.3626-6.9229A11.8768,11.8768,0,0,1,1143.8149,95.9718Z"/><path class="cls-2" d="M1101.8188,210.4338h-1.104v-.602h2.8865v.602h-1.1041v3.4871h-.6784Z"/><path class="cls-2" d="M1104.2989,209.8318h.7841l.7792,2.6319c.0587.2061.1355.5131.1951.7846.0653-.2715.1413-.5723.2056-.7846l.7793-2.6319h.7851l.59,4.0891h-.6841l-.319-2.3484c-.0231-.1946-.0471-.4661-.06-.72-.07.2594-.147.5251-.2056.72l-.7024,2.3128h-.7668l-.7082-2.3128c-.06-.1946-.1364-.46-.2008-.72-.0183.2594-.0356.5251-.0586.72l-.3191,2.3484h-.6841Z"/></g></g></g></g></svg>